%TF.GenerationSoftware,KiCad,Pcbnew,(6.0.6)*%
%TF.CreationDate,2022-07-28T15:02:35+08:00*%
%TF.ProjectId,Motor_clock,4d6f746f-725f-4636-9c6f-636b2e6b6963,rev?*%
%TF.SameCoordinates,Original*%
%TF.FileFunction,Soldermask,Bot*%
%TF.FilePolarity,Negative*%
%FSLAX46Y46*%
G04 Gerber Fmt 4.6, Leading zero omitted, Abs format (unit mm)*
G04 Created by KiCad (PCBNEW (6.0.6)) date 2022-07-28 15:02:35*
%MOMM*%
%LPD*%
G01*
G04 APERTURE LIST*
G04 Aperture macros list*
%AMRoundRect*
0 Rectangle with rounded corners*
0 $1 Rounding radius*
0 $2 $3 $4 $5 $6 $7 $8 $9 X,Y pos of 4 corners*
0 Add a 4 corners polygon primitive as box body*
4,1,4,$2,$3,$4,$5,$6,$7,$8,$9,$2,$3,0*
0 Add four circle primitives for the rounded corners*
1,1,$1+$1,$2,$3*
1,1,$1+$1,$4,$5*
1,1,$1+$1,$6,$7*
1,1,$1+$1,$8,$9*
0 Add four rect primitives between the rounded corners*
20,1,$1+$1,$2,$3,$4,$5,0*
20,1,$1+$1,$4,$5,$6,$7,0*
20,1,$1+$1,$6,$7,$8,$9,0*
20,1,$1+$1,$8,$9,$2,$3,0*%
G04 Aperture macros list end*
%ADD10RoundRect,0.250000X-0.600000X-0.725000X0.600000X-0.725000X0.600000X0.725000X-0.600000X0.725000X0*%
%ADD11O,1.700000X1.950000*%
%ADD12RoundRect,0.249999X-0.350001X-0.625001X0.350001X-0.625001X0.350001X0.625001X-0.350001X0.625001X0*%
%ADD13O,1.200000X1.750000*%
%ADD14R,1.700000X1.700000*%
%ADD15O,1.700000X1.700000*%
%ADD16RoundRect,0.249999X0.625001X-0.350001X0.625001X0.350001X-0.625001X0.350001X-0.625001X-0.350001X0*%
%ADD17O,1.750000X1.200000*%
%ADD18C,1.524000*%
%ADD19O,4.000000X2.000000*%
%ADD20O,2.350000X4.700000*%
%ADD21C,3.200000*%
%ADD22RoundRect,0.249999X-0.625001X0.350001X-0.625001X-0.350001X0.625001X-0.350001X0.625001X0.350001X0*%
%ADD23RoundRect,0.249999X0.350001X0.625001X-0.350001X0.625001X-0.350001X-0.625001X0.350001X-0.625001X0*%
%ADD24C,1.300000*%
%ADD25O,1.900000X1.070000*%
G04 APERTURE END LIST*
D10*
%TO.C,J1*%
X165027600Y-121462800D03*
D11*
X167527600Y-121462800D03*
X170027600Y-121462800D03*
%TD*%
D12*
%TO.C,J3*%
X119126000Y-121412000D03*
D13*
X121126000Y-121412000D03*
%TD*%
D14*
%TO.C,J4*%
X135509000Y-69977000D03*
D15*
X138049000Y-69977000D03*
X135509000Y-72517000D03*
X138049000Y-72517000D03*
X135509000Y-75057000D03*
X138049000Y-75057000D03*
%TD*%
D16*
%TO.C,J5*%
X195707000Y-96075500D03*
D17*
X195707000Y-94075500D03*
X195707000Y-92075500D03*
X195707000Y-90075500D03*
%TD*%
D16*
%TO.C,J6*%
X143764000Y-96456500D03*
D17*
X143764000Y-94456500D03*
X143764000Y-92456500D03*
X143764000Y-90456500D03*
%TD*%
D16*
%TO.C,J7*%
X195897500Y-72390000D03*
D17*
X195897500Y-70390000D03*
X195897500Y-68390000D03*
X195897500Y-66390000D03*
%TD*%
D16*
%TO.C,J8*%
X143256000Y-71882000D03*
D17*
X143256000Y-69882000D03*
X143256000Y-67882000D03*
X143256000Y-65882000D03*
%TD*%
D16*
%TO.C,J9*%
X169799000Y-96393000D03*
D17*
X169799000Y-94393000D03*
X169799000Y-92393000D03*
X169799000Y-90393000D03*
%TD*%
D16*
%TO.C,J10*%
X169481500Y-72644000D03*
D17*
X169481500Y-70644000D03*
X169481500Y-68644000D03*
X169481500Y-66644000D03*
%TD*%
D18*
%TO.C,U3*%
X215442800Y-102362000D03*
X215458040Y-99816920D03*
X215458040Y-97292160D03*
X215458040Y-94650560D03*
X215458040Y-92095320D03*
X215458040Y-89545160D03*
X215447880Y-86995000D03*
X215452960Y-84470240D03*
X202438000Y-102362000D03*
X202438000Y-99822000D03*
X202438000Y-97282000D03*
X202438000Y-94742000D03*
X202438000Y-92202000D03*
X202438000Y-89662000D03*
X202438000Y-87122000D03*
X202438000Y-84582000D03*
%TD*%
%TO.C,U4*%
X162991800Y-102235000D03*
X163007040Y-99689920D03*
X163007040Y-97165160D03*
X163007040Y-94523560D03*
X163007040Y-91968320D03*
X163007040Y-89418160D03*
X162996880Y-86868000D03*
X163001960Y-84343240D03*
X149987000Y-102235000D03*
X149987000Y-99695000D03*
X149987000Y-97155000D03*
X149987000Y-94615000D03*
X149987000Y-92075000D03*
X149987000Y-89535000D03*
X149987000Y-86995000D03*
X149987000Y-84455000D03*
%TD*%
%TO.C,U5*%
X215379300Y-78359000D03*
X215394540Y-75813920D03*
X215394540Y-73289160D03*
X215394540Y-70647560D03*
X215394540Y-68092320D03*
X215394540Y-65542160D03*
X215384380Y-62992000D03*
X215389460Y-60467240D03*
X202374500Y-78359000D03*
X202374500Y-75819000D03*
X202374500Y-73279000D03*
X202374500Y-70739000D03*
X202374500Y-68199000D03*
X202374500Y-65659000D03*
X202374500Y-63119000D03*
X202374500Y-60579000D03*
%TD*%
%TO.C,U6*%
X162737800Y-78232000D03*
X162753040Y-75686920D03*
X162753040Y-73162160D03*
X162753040Y-70520560D03*
X162753040Y-67965320D03*
X162753040Y-65415160D03*
X162742880Y-62865000D03*
X162747960Y-60340240D03*
X149733000Y-78232000D03*
X149733000Y-75692000D03*
X149733000Y-73152000D03*
X149733000Y-70612000D03*
X149733000Y-68072000D03*
X149733000Y-65532000D03*
X149733000Y-62992000D03*
X149733000Y-60452000D03*
%TD*%
%TO.C,U7*%
X189026800Y-102489000D03*
X189042040Y-99943920D03*
X189042040Y-97419160D03*
X189042040Y-94777560D03*
X189042040Y-92222320D03*
X189042040Y-89672160D03*
X189031880Y-87122000D03*
X189036960Y-84597240D03*
X176022000Y-102489000D03*
X176022000Y-99949000D03*
X176022000Y-97409000D03*
X176022000Y-94869000D03*
X176022000Y-92329000D03*
X176022000Y-89789000D03*
X176022000Y-87249000D03*
X176022000Y-84709000D03*
%TD*%
%TO.C,U8*%
X188899800Y-78613000D03*
X188915040Y-76067920D03*
X188915040Y-73543160D03*
X188915040Y-70901560D03*
X188915040Y-68346320D03*
X188915040Y-65796160D03*
X188904880Y-63246000D03*
X188909960Y-60721240D03*
X175895000Y-78613000D03*
X175895000Y-76073000D03*
X175895000Y-73533000D03*
X175895000Y-70993000D03*
X175895000Y-68453000D03*
X175895000Y-65913000D03*
X175895000Y-63373000D03*
X175895000Y-60833000D03*
%TD*%
D19*
%TO.C,J2*%
X131826000Y-114617500D03*
D20*
X136626000Y-117117500D03*
D19*
X131826000Y-120617500D03*
%TD*%
D21*
%TO.C,H2*%
X139065000Y-60579000D03*
%TD*%
D22*
%TO.C,J12*%
X133096000Y-58801000D03*
D17*
X133096000Y-60801000D03*
X133096000Y-62801000D03*
X133096000Y-64801000D03*
%TD*%
D22*
%TO.C,J13*%
X120142000Y-58833000D03*
D17*
X120142000Y-60833000D03*
X120142000Y-62833000D03*
X120142000Y-64833000D03*
%TD*%
D23*
%TO.C,J14*%
X130429000Y-71882000D03*
D13*
X128429000Y-71882000D03*
X126429000Y-71882000D03*
X124429000Y-71882000D03*
%TD*%
D12*
%TO.C,J15*%
X112840000Y-70739000D03*
D13*
X114840000Y-70739000D03*
X116840000Y-70739000D03*
X118840000Y-70739000D03*
%TD*%
D22*
%TO.C,J16*%
X126619000Y-58801000D03*
D17*
X126619000Y-60801000D03*
X126619000Y-62801000D03*
X126619000Y-64801000D03*
%TD*%
D22*
%TO.C,J17*%
X113665000Y-58801000D03*
D17*
X113665000Y-60801000D03*
X113665000Y-62801000D03*
X113665000Y-64801000D03*
%TD*%
D24*
%TO.C,J11*%
X114427000Y-98779000D03*
X114427000Y-103629000D03*
D25*
X111777000Y-104804000D03*
X111777000Y-97604000D03*
%TD*%
D21*
%TO.C,H4*%
X113157000Y-124460000D03*
%TD*%
D18*
%TO.C,BZ1*%
X145034000Y-118755000D03*
X145034000Y-126355000D03*
%TD*%
D21*
%TO.C,H3*%
X215341200Y-123952000D03*
%TD*%
%TO.C,H1*%
X208432400Y-64262000D03*
%TD*%
M02*
