M48
; DRILL file {KiCad (5.1.9-0-10_14)} date Saturday, July 17, 2021 at 11:43:55 AM
; FORMAT={-:-/ absolute / inch / decimal}
; #@! TF.CreationDate,2021-07-17T11:43:55+08:00
; #@! TF.GenerationSoftware,Kicad,Pcbnew,(5.1.9-0-10_14)
; #@! TF.FileFunction,Plated,1,2,PTH
FMAT,2
INCH
T1C0.0157
T2C0.0295
T3C0.0315
T4C0.0394
%
G90
G05
T1
X4.65Y-3.655
X4.65Y-4.49
X4.8Y-2.455
X4.8355Y-2.5925
X4.8355Y-2.6425
X4.89Y-3.9275
X4.8975Y-3.75
X4.936Y-3.419
X4.9371Y-3.5894
X5.011Y-3.366
X5.025Y-3.93
X5.0275Y-2.515
X5.0425Y-2.9025
X5.0525Y-3.83
X5.0753Y-3.5475
X5.0815Y-3.6225
X5.11Y-3.675
X5.17Y-3.3
X5.275Y-3.6425
X5.4Y-4.005
X5.428Y-3.6945
X5.49Y-4.23
X5.505Y-3.55
X5.53Y-4.715
X5.665Y-4.43
X5.68Y-4.12
X5.975Y-3.6875
X6.045Y-3.4375
X6.3Y-3.4125
X6.46Y-4.785
X7.895Y-3.4725
X8.315Y-2.8375
X8.655Y-2.38
T2
X5.21Y-4.77
X5.2887Y-4.77
X5.64Y-2.5938
X5.64Y-2.6725
X5.64Y-2.7513
X5.64Y-2.83
X5.66Y-3.5613
X5.66Y-3.64
X5.66Y-3.7188
X5.66Y-3.7975
X6.3675Y-4.92
X6.4463Y-4.92
X6.525Y-4.92
X6.6725Y-2.6238
X6.6725Y-2.7025
X6.6725Y-2.7813
X6.6725Y-2.86
X6.685Y-3.5588
X6.685Y-3.6375
X6.685Y-3.7163
X6.685Y-3.795
X7.705Y-3.5463
X7.705Y-3.625
X7.705Y-3.7038
X7.705Y-3.7825
X7.7125Y-2.6138
X7.7125Y-2.6925
X7.7125Y-2.7713
X7.7125Y-2.85
T4
X5.175Y-2.82
X5.175Y-2.92
X5.175Y-3.02
X5.275Y-2.82
X5.275Y-2.92
X5.275Y-3.02
X5.895Y-2.38
X5.895Y-2.48
X5.895Y-2.58
X5.895Y-2.68
X5.895Y-2.78
X5.895Y-2.88
X5.895Y-2.98
X5.895Y-3.08
X5.905Y-3.325
X5.905Y-3.425
X5.905Y-3.525
X5.905Y-3.625
X5.905Y-3.725
X5.905Y-3.825
X5.905Y-3.925
X5.905Y-4.025
X6.407Y-3.08
X6.4072Y-2.475
X6.4074Y-2.3756
X6.4076Y-2.5754
X6.4076Y-2.6758
X6.4076Y-2.7764
X6.4076Y-2.8804
X6.4076Y-2.9798
X6.417Y-4.025
X6.4172Y-3.42
X6.4174Y-3.3206
X6.4176Y-3.5204
X6.4176Y-3.6208
X6.4176Y-3.7214
X6.4176Y-3.8254
X6.4176Y-3.9248
X6.925Y-2.395
X6.925Y-2.495
X6.925Y-2.595
X6.925Y-2.695
X6.925Y-2.795
X6.925Y-2.895
X6.925Y-2.995
X6.925Y-3.095
X6.93Y-3.335
X6.93Y-3.435
X6.93Y-3.535
X6.93Y-3.635
X6.93Y-3.735
X6.93Y-3.835
X6.93Y-3.935
X6.93Y-4.035
X7.437Y-3.095
X7.4372Y-2.49
X7.4374Y-2.3906
X7.4376Y-2.5904
X7.4376Y-2.6908
X7.4376Y-2.7914
X7.4376Y-2.8954
X7.4376Y-2.9948
X7.442Y-4.035
X7.4422Y-3.43
X7.4424Y-3.3306
X7.4426Y-3.5304
X7.4426Y-3.6308
X7.4426Y-3.7314
X7.4426Y-3.8354
X7.4426Y-3.9348
X7.9675Y-2.385
X7.9675Y-2.485
X7.9675Y-2.585
X7.9675Y-2.685
X7.9675Y-2.785
X7.9675Y-2.885
X7.9675Y-2.985
X7.9675Y-3.085
X7.97Y-3.33
X7.97Y-3.43
X7.97Y-3.53
X7.97Y-3.63
X7.97Y-3.73
X7.97Y-3.83
X7.97Y-3.93
X7.97Y-4.03
X8.4795Y-3.085
X8.4797Y-2.48
X8.4799Y-2.3806
X8.4801Y-2.5804
X8.4801Y-2.6808
X8.4801Y-2.7814
X8.4801Y-2.8854
X8.4801Y-2.9848
X8.482Y-4.03
X8.4822Y-3.425
X8.4824Y-3.3256
X8.4826Y-3.5254
X8.4826Y-3.6258
X8.4826Y-3.7264
X8.4826Y-3.8304
X8.4826Y-3.9298
T3
G00X5.6667Y-4.5075
M15
G01X5.7533Y-4.5075
M16
G05
G00X5.6667Y-4.7437
M15
G01X5.7533Y-4.7437
M16
G05
G00X5.899Y-4.6591
M15
G01X5.899Y-4.5528
M16
G05
T0
M30
