%TF.GenerationSoftware,KiCad,Pcbnew,(5.1.9-0-10_14)*%
%TF.CreationDate,2021-07-17T11:43:53+08:00*%
%TF.ProjectId,Motor_clock,4d6f746f-725f-4636-9c6f-636b2e6b6963,rev?*%
%TF.SameCoordinates,Original*%
%TF.FileFunction,Paste,Top*%
%TF.FilePolarity,Positive*%
%FSLAX46Y46*%
G04 Gerber Fmt 4.6, Leading zero omitted, Abs format (unit mm)*
G04 Created by KiCad (PCBNEW (5.1.9-0-10_14)) date 2021-07-17 11:43:53*
%MOMM*%
%LPD*%
G01*
G04 APERTURE LIST*
%ADD10R,1.200000X1.400000*%
%ADD11R,2.500000X1.800000*%
%ADD12R,0.590000X1.250000*%
%ADD13R,1.600000X0.550000*%
%ADD14R,0.550000X1.600000*%
%ADD15R,1.550000X1.300000*%
%ADD16R,3.000000X1.800000*%
%ADD17R,0.500000X1.500000*%
%ADD18R,3.150000X4.780000*%
G04 APERTURE END LIST*
%TO.C,R5*%
G36*
G01*
X124997800Y-89566800D02*
X125547800Y-89566800D01*
G75*
G02*
X125747800Y-89766800I0J-200000D01*
G01*
X125747800Y-90166800D01*
G75*
G02*
X125547800Y-90366800I-200000J0D01*
G01*
X124997800Y-90366800D01*
G75*
G02*
X124797800Y-90166800I0J200000D01*
G01*
X124797800Y-89766800D01*
G75*
G02*
X124997800Y-89566800I200000J0D01*
G01*
G37*
G36*
G01*
X124997800Y-87916800D02*
X125547800Y-87916800D01*
G75*
G02*
X125747800Y-88116800I0J-200000D01*
G01*
X125747800Y-88516800D01*
G75*
G02*
X125547800Y-88716800I-200000J0D01*
G01*
X124997800Y-88716800D01*
G75*
G02*
X124797800Y-88516800I0J200000D01*
G01*
X124797800Y-88116800D01*
G75*
G02*
X124997800Y-87916800I200000J0D01*
G01*
G37*
%TD*%
%TO.C,R2*%
G36*
G01*
X125674800Y-84118400D02*
X125124800Y-84118400D01*
G75*
G02*
X124924800Y-83918400I0J200000D01*
G01*
X124924800Y-83518400D01*
G75*
G02*
X125124800Y-83318400I200000J0D01*
G01*
X125674800Y-83318400D01*
G75*
G02*
X125874800Y-83518400I0J-200000D01*
G01*
X125874800Y-83918400D01*
G75*
G02*
X125674800Y-84118400I-200000J0D01*
G01*
G37*
G36*
G01*
X125674800Y-85768400D02*
X125124800Y-85768400D01*
G75*
G02*
X124924800Y-85568400I0J200000D01*
G01*
X124924800Y-85168400D01*
G75*
G02*
X125124800Y-84968400I200000J0D01*
G01*
X125674800Y-84968400D01*
G75*
G02*
X125874800Y-85168400I0J-200000D01*
G01*
X125874800Y-85568400D01*
G75*
G02*
X125674800Y-85768400I-200000J0D01*
G01*
G37*
%TD*%
%TO.C,C5*%
G36*
G01*
X125318500Y-113846500D02*
X126268500Y-113846500D01*
G75*
G02*
X126518500Y-114096500I0J-250000D01*
G01*
X126518500Y-114596500D01*
G75*
G02*
X126268500Y-114846500I-250000J0D01*
G01*
X125318500Y-114846500D01*
G75*
G02*
X125068500Y-114596500I0J250000D01*
G01*
X125068500Y-114096500D01*
G75*
G02*
X125318500Y-113846500I250000J0D01*
G01*
G37*
G36*
G01*
X125318500Y-111946500D02*
X126268500Y-111946500D01*
G75*
G02*
X126518500Y-112196500I0J-250000D01*
G01*
X126518500Y-112696500D01*
G75*
G02*
X126268500Y-112946500I-250000J0D01*
G01*
X125318500Y-112946500D01*
G75*
G02*
X125068500Y-112696500I0J250000D01*
G01*
X125068500Y-112196500D01*
G75*
G02*
X125318500Y-111946500I250000J0D01*
G01*
G37*
%TD*%
D10*
%TO.C,Y2*%
X119048000Y-73365000D03*
X119048000Y-75565000D03*
X117348000Y-75565000D03*
X117348000Y-73365000D03*
%TD*%
%TO.C,R10*%
G36*
G01*
X117876000Y-68114500D02*
X117876000Y-68664500D01*
G75*
G02*
X117676000Y-68864500I-200000J0D01*
G01*
X117276000Y-68864500D01*
G75*
G02*
X117076000Y-68664500I0J200000D01*
G01*
X117076000Y-68114500D01*
G75*
G02*
X117276000Y-67914500I200000J0D01*
G01*
X117676000Y-67914500D01*
G75*
G02*
X117876000Y-68114500I0J-200000D01*
G01*
G37*
G36*
G01*
X119526000Y-68114500D02*
X119526000Y-68664500D01*
G75*
G02*
X119326000Y-68864500I-200000J0D01*
G01*
X118926000Y-68864500D01*
G75*
G02*
X118726000Y-68664500I0J200000D01*
G01*
X118726000Y-68114500D01*
G75*
G02*
X118926000Y-67914500I200000J0D01*
G01*
X119326000Y-67914500D01*
G75*
G02*
X119526000Y-68114500I0J-200000D01*
G01*
G37*
%TD*%
%TO.C,R9*%
G36*
G01*
X117876000Y-66527000D02*
X117876000Y-67077000D01*
G75*
G02*
X117676000Y-67277000I-200000J0D01*
G01*
X117276000Y-67277000D01*
G75*
G02*
X117076000Y-67077000I0J200000D01*
G01*
X117076000Y-66527000D01*
G75*
G02*
X117276000Y-66327000I200000J0D01*
G01*
X117676000Y-66327000D01*
G75*
G02*
X117876000Y-66527000I0J-200000D01*
G01*
G37*
G36*
G01*
X119526000Y-66527000D02*
X119526000Y-67077000D01*
G75*
G02*
X119326000Y-67277000I-200000J0D01*
G01*
X118926000Y-67277000D01*
G75*
G02*
X118726000Y-67077000I0J200000D01*
G01*
X118726000Y-66527000D01*
G75*
G02*
X118926000Y-66327000I200000J0D01*
G01*
X119326000Y-66327000D01*
G75*
G02*
X119526000Y-66527000I0J-200000D01*
G01*
G37*
%TD*%
%TO.C,D4*%
G36*
G01*
X115437500Y-68963250D02*
X115437500Y-68450750D01*
G75*
G02*
X115656250Y-68232000I218750J0D01*
G01*
X116093750Y-68232000D01*
G75*
G02*
X116312500Y-68450750I0J-218750D01*
G01*
X116312500Y-68963250D01*
G75*
G02*
X116093750Y-69182000I-218750J0D01*
G01*
X115656250Y-69182000D01*
G75*
G02*
X115437500Y-68963250I0J218750D01*
G01*
G37*
G36*
G01*
X113862500Y-68963250D02*
X113862500Y-68450750D01*
G75*
G02*
X114081250Y-68232000I218750J0D01*
G01*
X114518750Y-68232000D01*
G75*
G02*
X114737500Y-68450750I0J-218750D01*
G01*
X114737500Y-68963250D01*
G75*
G02*
X114518750Y-69182000I-218750J0D01*
G01*
X114081250Y-69182000D01*
G75*
G02*
X113862500Y-68963250I0J218750D01*
G01*
G37*
%TD*%
%TO.C,D3*%
G36*
G01*
X115577000Y-67312250D02*
X115577000Y-66799750D01*
G75*
G02*
X115795750Y-66581000I218750J0D01*
G01*
X116233250Y-66581000D01*
G75*
G02*
X116452000Y-66799750I0J-218750D01*
G01*
X116452000Y-67312250D01*
G75*
G02*
X116233250Y-67531000I-218750J0D01*
G01*
X115795750Y-67531000D01*
G75*
G02*
X115577000Y-67312250I0J218750D01*
G01*
G37*
G36*
G01*
X114002000Y-67312250D02*
X114002000Y-66799750D01*
G75*
G02*
X114220750Y-66581000I218750J0D01*
G01*
X114658250Y-66581000D01*
G75*
G02*
X114877000Y-66799750I0J-218750D01*
G01*
X114877000Y-67312250D01*
G75*
G02*
X114658250Y-67531000I-218750J0D01*
G01*
X114220750Y-67531000D01*
G75*
G02*
X114002000Y-67312250I0J218750D01*
G01*
G37*
%TD*%
%TO.C,C13*%
G36*
G01*
X117835500Y-77347000D02*
X117835500Y-77847000D01*
G75*
G02*
X117610500Y-78072000I-225000J0D01*
G01*
X117160500Y-78072000D01*
G75*
G02*
X116935500Y-77847000I0J225000D01*
G01*
X116935500Y-77347000D01*
G75*
G02*
X117160500Y-77122000I225000J0D01*
G01*
X117610500Y-77122000D01*
G75*
G02*
X117835500Y-77347000I0J-225000D01*
G01*
G37*
G36*
G01*
X119385500Y-77347000D02*
X119385500Y-77847000D01*
G75*
G02*
X119160500Y-78072000I-225000J0D01*
G01*
X118710500Y-78072000D01*
G75*
G02*
X118485500Y-77847000I0J225000D01*
G01*
X118485500Y-77347000D01*
G75*
G02*
X118710500Y-77122000I225000J0D01*
G01*
X119160500Y-77122000D01*
G75*
G02*
X119385500Y-77347000I0J-225000D01*
G01*
G37*
%TD*%
%TO.C,C11*%
G36*
G01*
X117925000Y-71314500D02*
X117925000Y-71814500D01*
G75*
G02*
X117700000Y-72039500I-225000J0D01*
G01*
X117250000Y-72039500D01*
G75*
G02*
X117025000Y-71814500I0J225000D01*
G01*
X117025000Y-71314500D01*
G75*
G02*
X117250000Y-71089500I225000J0D01*
G01*
X117700000Y-71089500D01*
G75*
G02*
X117925000Y-71314500I0J-225000D01*
G01*
G37*
G36*
G01*
X119475000Y-71314500D02*
X119475000Y-71814500D01*
G75*
G02*
X119250000Y-72039500I-225000J0D01*
G01*
X118800000Y-72039500D01*
G75*
G02*
X118575000Y-71814500I0J225000D01*
G01*
X118575000Y-71314500D01*
G75*
G02*
X118800000Y-71089500I225000J0D01*
G01*
X119250000Y-71089500D01*
G75*
G02*
X119475000Y-71314500I0J-225000D01*
G01*
G37*
%TD*%
D11*
%TO.C,D2*%
X129223000Y-66357500D03*
X133223000Y-66357500D03*
%TD*%
D10*
%TO.C,Y1*%
X137209000Y-97050500D03*
X137209000Y-99250500D03*
X135509000Y-99250500D03*
X135509000Y-97050500D03*
%TD*%
D12*
%TO.C,VR1*%
X136784000Y-113919000D03*
X137734000Y-113919000D03*
X138684000Y-113919000D03*
X138684000Y-116429000D03*
X137734000Y-116429000D03*
X136784000Y-116429000D03*
%TD*%
%TO.C,U9*%
G36*
G01*
X125326500Y-65428000D02*
X125326500Y-65128000D01*
G75*
G02*
X125476500Y-64978000I150000J0D01*
G01*
X127126500Y-64978000D01*
G75*
G02*
X127276500Y-65128000I0J-150000D01*
G01*
X127276500Y-65428000D01*
G75*
G02*
X127126500Y-65578000I-150000J0D01*
G01*
X125476500Y-65578000D01*
G75*
G02*
X125326500Y-65428000I0J150000D01*
G01*
G37*
G36*
G01*
X125326500Y-66698000D02*
X125326500Y-66398000D01*
G75*
G02*
X125476500Y-66248000I150000J0D01*
G01*
X127126500Y-66248000D01*
G75*
G02*
X127276500Y-66398000I0J-150000D01*
G01*
X127276500Y-66698000D01*
G75*
G02*
X127126500Y-66848000I-150000J0D01*
G01*
X125476500Y-66848000D01*
G75*
G02*
X125326500Y-66698000I0J150000D01*
G01*
G37*
G36*
G01*
X125326500Y-67968000D02*
X125326500Y-67668000D01*
G75*
G02*
X125476500Y-67518000I150000J0D01*
G01*
X127126500Y-67518000D01*
G75*
G02*
X127276500Y-67668000I0J-150000D01*
G01*
X127276500Y-67968000D01*
G75*
G02*
X127126500Y-68118000I-150000J0D01*
G01*
X125476500Y-68118000D01*
G75*
G02*
X125326500Y-67968000I0J150000D01*
G01*
G37*
G36*
G01*
X125326500Y-69238000D02*
X125326500Y-68938000D01*
G75*
G02*
X125476500Y-68788000I150000J0D01*
G01*
X127126500Y-68788000D01*
G75*
G02*
X127276500Y-68938000I0J-150000D01*
G01*
X127276500Y-69238000D01*
G75*
G02*
X127126500Y-69388000I-150000J0D01*
G01*
X125476500Y-69388000D01*
G75*
G02*
X125326500Y-69238000I0J150000D01*
G01*
G37*
G36*
G01*
X125326500Y-70508000D02*
X125326500Y-70208000D01*
G75*
G02*
X125476500Y-70058000I150000J0D01*
G01*
X127126500Y-70058000D01*
G75*
G02*
X127276500Y-70208000I0J-150000D01*
G01*
X127276500Y-70508000D01*
G75*
G02*
X127126500Y-70658000I-150000J0D01*
G01*
X125476500Y-70658000D01*
G75*
G02*
X125326500Y-70508000I0J150000D01*
G01*
G37*
G36*
G01*
X125326500Y-71778000D02*
X125326500Y-71478000D01*
G75*
G02*
X125476500Y-71328000I150000J0D01*
G01*
X127126500Y-71328000D01*
G75*
G02*
X127276500Y-71478000I0J-150000D01*
G01*
X127276500Y-71778000D01*
G75*
G02*
X127126500Y-71928000I-150000J0D01*
G01*
X125476500Y-71928000D01*
G75*
G02*
X125326500Y-71778000I0J150000D01*
G01*
G37*
G36*
G01*
X125326500Y-73048000D02*
X125326500Y-72748000D01*
G75*
G02*
X125476500Y-72598000I150000J0D01*
G01*
X127126500Y-72598000D01*
G75*
G02*
X127276500Y-72748000I0J-150000D01*
G01*
X127276500Y-73048000D01*
G75*
G02*
X127126500Y-73198000I-150000J0D01*
G01*
X125476500Y-73198000D01*
G75*
G02*
X125326500Y-73048000I0J150000D01*
G01*
G37*
G36*
G01*
X125326500Y-74318000D02*
X125326500Y-74018000D01*
G75*
G02*
X125476500Y-73868000I150000J0D01*
G01*
X127126500Y-73868000D01*
G75*
G02*
X127276500Y-74018000I0J-150000D01*
G01*
X127276500Y-74318000D01*
G75*
G02*
X127126500Y-74468000I-150000J0D01*
G01*
X125476500Y-74468000D01*
G75*
G02*
X125326500Y-74318000I0J150000D01*
G01*
G37*
G36*
G01*
X120376500Y-74318000D02*
X120376500Y-74018000D01*
G75*
G02*
X120526500Y-73868000I150000J0D01*
G01*
X122176500Y-73868000D01*
G75*
G02*
X122326500Y-74018000I0J-150000D01*
G01*
X122326500Y-74318000D01*
G75*
G02*
X122176500Y-74468000I-150000J0D01*
G01*
X120526500Y-74468000D01*
G75*
G02*
X120376500Y-74318000I0J150000D01*
G01*
G37*
G36*
G01*
X120376500Y-73048000D02*
X120376500Y-72748000D01*
G75*
G02*
X120526500Y-72598000I150000J0D01*
G01*
X122176500Y-72598000D01*
G75*
G02*
X122326500Y-72748000I0J-150000D01*
G01*
X122326500Y-73048000D01*
G75*
G02*
X122176500Y-73198000I-150000J0D01*
G01*
X120526500Y-73198000D01*
G75*
G02*
X120376500Y-73048000I0J150000D01*
G01*
G37*
G36*
G01*
X120376500Y-71778000D02*
X120376500Y-71478000D01*
G75*
G02*
X120526500Y-71328000I150000J0D01*
G01*
X122176500Y-71328000D01*
G75*
G02*
X122326500Y-71478000I0J-150000D01*
G01*
X122326500Y-71778000D01*
G75*
G02*
X122176500Y-71928000I-150000J0D01*
G01*
X120526500Y-71928000D01*
G75*
G02*
X120376500Y-71778000I0J150000D01*
G01*
G37*
G36*
G01*
X120376500Y-70508000D02*
X120376500Y-70208000D01*
G75*
G02*
X120526500Y-70058000I150000J0D01*
G01*
X122176500Y-70058000D01*
G75*
G02*
X122326500Y-70208000I0J-150000D01*
G01*
X122326500Y-70508000D01*
G75*
G02*
X122176500Y-70658000I-150000J0D01*
G01*
X120526500Y-70658000D01*
G75*
G02*
X120376500Y-70508000I0J150000D01*
G01*
G37*
G36*
G01*
X120376500Y-69238000D02*
X120376500Y-68938000D01*
G75*
G02*
X120526500Y-68788000I150000J0D01*
G01*
X122176500Y-68788000D01*
G75*
G02*
X122326500Y-68938000I0J-150000D01*
G01*
X122326500Y-69238000D01*
G75*
G02*
X122176500Y-69388000I-150000J0D01*
G01*
X120526500Y-69388000D01*
G75*
G02*
X120376500Y-69238000I0J150000D01*
G01*
G37*
G36*
G01*
X120376500Y-67968000D02*
X120376500Y-67668000D01*
G75*
G02*
X120526500Y-67518000I150000J0D01*
G01*
X122176500Y-67518000D01*
G75*
G02*
X122326500Y-67668000I0J-150000D01*
G01*
X122326500Y-67968000D01*
G75*
G02*
X122176500Y-68118000I-150000J0D01*
G01*
X120526500Y-68118000D01*
G75*
G02*
X120376500Y-67968000I0J150000D01*
G01*
G37*
G36*
G01*
X120376500Y-66698000D02*
X120376500Y-66398000D01*
G75*
G02*
X120526500Y-66248000I150000J0D01*
G01*
X122176500Y-66248000D01*
G75*
G02*
X122326500Y-66398000I0J-150000D01*
G01*
X122326500Y-66698000D01*
G75*
G02*
X122176500Y-66848000I-150000J0D01*
G01*
X120526500Y-66848000D01*
G75*
G02*
X120376500Y-66698000I0J150000D01*
G01*
G37*
G36*
G01*
X120376500Y-65428000D02*
X120376500Y-65128000D01*
G75*
G02*
X120526500Y-64978000I150000J0D01*
G01*
X122176500Y-64978000D01*
G75*
G02*
X122326500Y-65128000I0J-150000D01*
G01*
X122326500Y-65428000D01*
G75*
G02*
X122176500Y-65578000I-150000J0D01*
G01*
X120526500Y-65578000D01*
G75*
G02*
X120376500Y-65428000I0J150000D01*
G01*
G37*
%TD*%
D13*
%TO.C,U2*%
X127512500Y-93414500D03*
X127512500Y-92614500D03*
X127512500Y-91814500D03*
X127512500Y-91014500D03*
X127512500Y-90214500D03*
X127512500Y-89414500D03*
X127512500Y-88614500D03*
X127512500Y-87814500D03*
D14*
X128962500Y-86364500D03*
X129762500Y-86364500D03*
X130562500Y-86364500D03*
X131362500Y-86364500D03*
X132162500Y-86364500D03*
X132962500Y-86364500D03*
X133762500Y-86364500D03*
X134562500Y-86364500D03*
D13*
X136012500Y-87814500D03*
X136012500Y-88614500D03*
X136012500Y-89414500D03*
X136012500Y-90214500D03*
X136012500Y-91014500D03*
X136012500Y-91814500D03*
X136012500Y-92614500D03*
X136012500Y-93414500D03*
D14*
X134562500Y-94864500D03*
X133762500Y-94864500D03*
X132962500Y-94864500D03*
X132162500Y-94864500D03*
X131362500Y-94864500D03*
X130562500Y-94864500D03*
X129762500Y-94864500D03*
X128962500Y-94864500D03*
%TD*%
%TO.C,U1*%
G36*
G01*
X121403000Y-87907000D02*
X121403000Y-87607000D01*
G75*
G02*
X121553000Y-87457000I150000J0D01*
G01*
X123303000Y-87457000D01*
G75*
G02*
X123453000Y-87607000I0J-150000D01*
G01*
X123453000Y-87907000D01*
G75*
G02*
X123303000Y-88057000I-150000J0D01*
G01*
X121553000Y-88057000D01*
G75*
G02*
X121403000Y-87907000I0J150000D01*
G01*
G37*
G36*
G01*
X121403000Y-89177000D02*
X121403000Y-88877000D01*
G75*
G02*
X121553000Y-88727000I150000J0D01*
G01*
X123303000Y-88727000D01*
G75*
G02*
X123453000Y-88877000I0J-150000D01*
G01*
X123453000Y-89177000D01*
G75*
G02*
X123303000Y-89327000I-150000J0D01*
G01*
X121553000Y-89327000D01*
G75*
G02*
X121403000Y-89177000I0J150000D01*
G01*
G37*
G36*
G01*
X121403000Y-90447000D02*
X121403000Y-90147000D01*
G75*
G02*
X121553000Y-89997000I150000J0D01*
G01*
X123303000Y-89997000D01*
G75*
G02*
X123453000Y-90147000I0J-150000D01*
G01*
X123453000Y-90447000D01*
G75*
G02*
X123303000Y-90597000I-150000J0D01*
G01*
X121553000Y-90597000D01*
G75*
G02*
X121403000Y-90447000I0J150000D01*
G01*
G37*
G36*
G01*
X121403000Y-91717000D02*
X121403000Y-91417000D01*
G75*
G02*
X121553000Y-91267000I150000J0D01*
G01*
X123303000Y-91267000D01*
G75*
G02*
X123453000Y-91417000I0J-150000D01*
G01*
X123453000Y-91717000D01*
G75*
G02*
X123303000Y-91867000I-150000J0D01*
G01*
X121553000Y-91867000D01*
G75*
G02*
X121403000Y-91717000I0J150000D01*
G01*
G37*
G36*
G01*
X121403000Y-92987000D02*
X121403000Y-92687000D01*
G75*
G02*
X121553000Y-92537000I150000J0D01*
G01*
X123303000Y-92537000D01*
G75*
G02*
X123453000Y-92687000I0J-150000D01*
G01*
X123453000Y-92987000D01*
G75*
G02*
X123303000Y-93137000I-150000J0D01*
G01*
X121553000Y-93137000D01*
G75*
G02*
X121403000Y-92987000I0J150000D01*
G01*
G37*
G36*
G01*
X121403000Y-94257000D02*
X121403000Y-93957000D01*
G75*
G02*
X121553000Y-93807000I150000J0D01*
G01*
X123303000Y-93807000D01*
G75*
G02*
X123453000Y-93957000I0J-150000D01*
G01*
X123453000Y-94257000D01*
G75*
G02*
X123303000Y-94407000I-150000J0D01*
G01*
X121553000Y-94407000D01*
G75*
G02*
X121403000Y-94257000I0J150000D01*
G01*
G37*
G36*
G01*
X121403000Y-95527000D02*
X121403000Y-95227000D01*
G75*
G02*
X121553000Y-95077000I150000J0D01*
G01*
X123303000Y-95077000D01*
G75*
G02*
X123453000Y-95227000I0J-150000D01*
G01*
X123453000Y-95527000D01*
G75*
G02*
X123303000Y-95677000I-150000J0D01*
G01*
X121553000Y-95677000D01*
G75*
G02*
X121403000Y-95527000I0J150000D01*
G01*
G37*
G36*
G01*
X121403000Y-96797000D02*
X121403000Y-96497000D01*
G75*
G02*
X121553000Y-96347000I150000J0D01*
G01*
X123303000Y-96347000D01*
G75*
G02*
X123453000Y-96497000I0J-150000D01*
G01*
X123453000Y-96797000D01*
G75*
G02*
X123303000Y-96947000I-150000J0D01*
G01*
X121553000Y-96947000D01*
G75*
G02*
X121403000Y-96797000I0J150000D01*
G01*
G37*
G36*
G01*
X112103000Y-96797000D02*
X112103000Y-96497000D01*
G75*
G02*
X112253000Y-96347000I150000J0D01*
G01*
X114003000Y-96347000D01*
G75*
G02*
X114153000Y-96497000I0J-150000D01*
G01*
X114153000Y-96797000D01*
G75*
G02*
X114003000Y-96947000I-150000J0D01*
G01*
X112253000Y-96947000D01*
G75*
G02*
X112103000Y-96797000I0J150000D01*
G01*
G37*
G36*
G01*
X112103000Y-95527000D02*
X112103000Y-95227000D01*
G75*
G02*
X112253000Y-95077000I150000J0D01*
G01*
X114003000Y-95077000D01*
G75*
G02*
X114153000Y-95227000I0J-150000D01*
G01*
X114153000Y-95527000D01*
G75*
G02*
X114003000Y-95677000I-150000J0D01*
G01*
X112253000Y-95677000D01*
G75*
G02*
X112103000Y-95527000I0J150000D01*
G01*
G37*
G36*
G01*
X112103000Y-94257000D02*
X112103000Y-93957000D01*
G75*
G02*
X112253000Y-93807000I150000J0D01*
G01*
X114003000Y-93807000D01*
G75*
G02*
X114153000Y-93957000I0J-150000D01*
G01*
X114153000Y-94257000D01*
G75*
G02*
X114003000Y-94407000I-150000J0D01*
G01*
X112253000Y-94407000D01*
G75*
G02*
X112103000Y-94257000I0J150000D01*
G01*
G37*
G36*
G01*
X112103000Y-92987000D02*
X112103000Y-92687000D01*
G75*
G02*
X112253000Y-92537000I150000J0D01*
G01*
X114003000Y-92537000D01*
G75*
G02*
X114153000Y-92687000I0J-150000D01*
G01*
X114153000Y-92987000D01*
G75*
G02*
X114003000Y-93137000I-150000J0D01*
G01*
X112253000Y-93137000D01*
G75*
G02*
X112103000Y-92987000I0J150000D01*
G01*
G37*
G36*
G01*
X112103000Y-91717000D02*
X112103000Y-91417000D01*
G75*
G02*
X112253000Y-91267000I150000J0D01*
G01*
X114003000Y-91267000D01*
G75*
G02*
X114153000Y-91417000I0J-150000D01*
G01*
X114153000Y-91717000D01*
G75*
G02*
X114003000Y-91867000I-150000J0D01*
G01*
X112253000Y-91867000D01*
G75*
G02*
X112103000Y-91717000I0J150000D01*
G01*
G37*
G36*
G01*
X112103000Y-90447000D02*
X112103000Y-90147000D01*
G75*
G02*
X112253000Y-89997000I150000J0D01*
G01*
X114003000Y-89997000D01*
G75*
G02*
X114153000Y-90147000I0J-150000D01*
G01*
X114153000Y-90447000D01*
G75*
G02*
X114003000Y-90597000I-150000J0D01*
G01*
X112253000Y-90597000D01*
G75*
G02*
X112103000Y-90447000I0J150000D01*
G01*
G37*
G36*
G01*
X112103000Y-89177000D02*
X112103000Y-88877000D01*
G75*
G02*
X112253000Y-88727000I150000J0D01*
G01*
X114003000Y-88727000D01*
G75*
G02*
X114153000Y-88877000I0J-150000D01*
G01*
X114153000Y-89177000D01*
G75*
G02*
X114003000Y-89327000I-150000J0D01*
G01*
X112253000Y-89327000D01*
G75*
G02*
X112103000Y-89177000I0J150000D01*
G01*
G37*
G36*
G01*
X112103000Y-87907000D02*
X112103000Y-87607000D01*
G75*
G02*
X112253000Y-87457000I150000J0D01*
G01*
X114003000Y-87457000D01*
G75*
G02*
X114153000Y-87607000I0J-150000D01*
G01*
X114153000Y-87907000D01*
G75*
G02*
X114003000Y-88057000I-150000J0D01*
G01*
X112253000Y-88057000D01*
G75*
G02*
X112103000Y-87907000I0J150000D01*
G01*
G37*
%TD*%
D15*
%TO.C,SW2*%
X122428000Y-110608500D03*
X122428000Y-106108500D03*
X114478000Y-106108500D03*
X114478000Y-110608500D03*
%TD*%
%TO.C,SW1*%
X114287500Y-98742500D03*
X114287500Y-103242500D03*
X122237500Y-103242500D03*
X122237500Y-98742500D03*
%TD*%
%TO.C,R8*%
G36*
G01*
X131043000Y-113011000D02*
X131593000Y-113011000D01*
G75*
G02*
X131793000Y-113211000I0J-200000D01*
G01*
X131793000Y-113611000D01*
G75*
G02*
X131593000Y-113811000I-200000J0D01*
G01*
X131043000Y-113811000D01*
G75*
G02*
X130843000Y-113611000I0J200000D01*
G01*
X130843000Y-113211000D01*
G75*
G02*
X131043000Y-113011000I200000J0D01*
G01*
G37*
G36*
G01*
X131043000Y-111361000D02*
X131593000Y-111361000D01*
G75*
G02*
X131793000Y-111561000I0J-200000D01*
G01*
X131793000Y-111961000D01*
G75*
G02*
X131593000Y-112161000I-200000J0D01*
G01*
X131043000Y-112161000D01*
G75*
G02*
X130843000Y-111961000I0J200000D01*
G01*
X130843000Y-111561000D01*
G75*
G02*
X131043000Y-111361000I200000J0D01*
G01*
G37*
%TD*%
%TO.C,R7*%
G36*
G01*
X140504500Y-111995000D02*
X141054500Y-111995000D01*
G75*
G02*
X141254500Y-112195000I0J-200000D01*
G01*
X141254500Y-112595000D01*
G75*
G02*
X141054500Y-112795000I-200000J0D01*
G01*
X140504500Y-112795000D01*
G75*
G02*
X140304500Y-112595000I0J200000D01*
G01*
X140304500Y-112195000D01*
G75*
G02*
X140504500Y-111995000I200000J0D01*
G01*
G37*
G36*
G01*
X140504500Y-110345000D02*
X141054500Y-110345000D01*
G75*
G02*
X141254500Y-110545000I0J-200000D01*
G01*
X141254500Y-110945000D01*
G75*
G02*
X141054500Y-111145000I-200000J0D01*
G01*
X140504500Y-111145000D01*
G75*
G02*
X140304500Y-110945000I0J200000D01*
G01*
X140304500Y-110545000D01*
G75*
G02*
X140504500Y-110345000I200000J0D01*
G01*
G37*
%TD*%
%TO.C,R6*%
G36*
G01*
X138122498Y-111642000D02*
X139372502Y-111642000D01*
G75*
G02*
X139622500Y-111891998I0J-249998D01*
G01*
X139622500Y-112517002D01*
G75*
G02*
X139372502Y-112767000I-249998J0D01*
G01*
X138122498Y-112767000D01*
G75*
G02*
X137872500Y-112517002I0J249998D01*
G01*
X137872500Y-111891998D01*
G75*
G02*
X138122498Y-111642000I249998J0D01*
G01*
G37*
G36*
G01*
X138122498Y-108717000D02*
X139372502Y-108717000D01*
G75*
G02*
X139622500Y-108966998I0J-249998D01*
G01*
X139622500Y-109592002D01*
G75*
G02*
X139372502Y-109842000I-249998J0D01*
G01*
X138122498Y-109842000D01*
G75*
G02*
X137872500Y-109592002I0J249998D01*
G01*
X137872500Y-108966998D01*
G75*
G02*
X138122498Y-108717000I249998J0D01*
G01*
G37*
%TD*%
%TO.C,R4*%
G36*
G01*
X125497000Y-96856500D02*
X124947000Y-96856500D01*
G75*
G02*
X124747000Y-96656500I0J200000D01*
G01*
X124747000Y-96256500D01*
G75*
G02*
X124947000Y-96056500I200000J0D01*
G01*
X125497000Y-96056500D01*
G75*
G02*
X125697000Y-96256500I0J-200000D01*
G01*
X125697000Y-96656500D01*
G75*
G02*
X125497000Y-96856500I-200000J0D01*
G01*
G37*
G36*
G01*
X125497000Y-98506500D02*
X124947000Y-98506500D01*
G75*
G02*
X124747000Y-98306500I0J200000D01*
G01*
X124747000Y-97906500D01*
G75*
G02*
X124947000Y-97706500I200000J0D01*
G01*
X125497000Y-97706500D01*
G75*
G02*
X125697000Y-97906500I0J-200000D01*
G01*
X125697000Y-98306500D01*
G75*
G02*
X125497000Y-98506500I-200000J0D01*
G01*
G37*
%TD*%
%TO.C,R3*%
G36*
G01*
X125433500Y-92792500D02*
X124883500Y-92792500D01*
G75*
G02*
X124683500Y-92592500I0J200000D01*
G01*
X124683500Y-92192500D01*
G75*
G02*
X124883500Y-91992500I200000J0D01*
G01*
X125433500Y-91992500D01*
G75*
G02*
X125633500Y-92192500I0J-200000D01*
G01*
X125633500Y-92592500D01*
G75*
G02*
X125433500Y-92792500I-200000J0D01*
G01*
G37*
G36*
G01*
X125433500Y-94442500D02*
X124883500Y-94442500D01*
G75*
G02*
X124683500Y-94242500I0J200000D01*
G01*
X124683500Y-93842500D01*
G75*
G02*
X124883500Y-93642500I200000J0D01*
G01*
X125433500Y-93642500D01*
G75*
G02*
X125633500Y-93842500I0J-200000D01*
G01*
X125633500Y-94242500D01*
G75*
G02*
X125433500Y-94442500I-200000J0D01*
G01*
G37*
%TD*%
%TO.C,R1*%
G36*
G01*
X130090500Y-97961000D02*
X130640500Y-97961000D01*
G75*
G02*
X130840500Y-98161000I0J-200000D01*
G01*
X130840500Y-98561000D01*
G75*
G02*
X130640500Y-98761000I-200000J0D01*
G01*
X130090500Y-98761000D01*
G75*
G02*
X129890500Y-98561000I0J200000D01*
G01*
X129890500Y-98161000D01*
G75*
G02*
X130090500Y-97961000I200000J0D01*
G01*
G37*
G36*
G01*
X130090500Y-96311000D02*
X130640500Y-96311000D01*
G75*
G02*
X130840500Y-96511000I0J-200000D01*
G01*
X130840500Y-96911000D01*
G75*
G02*
X130640500Y-97111000I-200000J0D01*
G01*
X130090500Y-97111000D01*
G75*
G02*
X129890500Y-96911000I0J200000D01*
G01*
X129890500Y-96511000D01*
G75*
G02*
X130090500Y-96311000I200000J0D01*
G01*
G37*
%TD*%
%TO.C,L1*%
G36*
G01*
X135511250Y-109606500D02*
X134998750Y-109606500D01*
G75*
G02*
X134780000Y-109387750I0J218750D01*
G01*
X134780000Y-108950250D01*
G75*
G02*
X134998750Y-108731500I218750J0D01*
G01*
X135511250Y-108731500D01*
G75*
G02*
X135730000Y-108950250I0J-218750D01*
G01*
X135730000Y-109387750D01*
G75*
G02*
X135511250Y-109606500I-218750J0D01*
G01*
G37*
G36*
G01*
X135511250Y-111181500D02*
X134998750Y-111181500D01*
G75*
G02*
X134780000Y-110962750I0J218750D01*
G01*
X134780000Y-110525250D01*
G75*
G02*
X134998750Y-110306500I218750J0D01*
G01*
X135511250Y-110306500D01*
G75*
G02*
X135730000Y-110525250I0J-218750D01*
G01*
X135730000Y-110962750D01*
G75*
G02*
X135511250Y-111181500I-218750J0D01*
G01*
G37*
%TD*%
D16*
%TO.C,J11*%
X119595500Y-61849000D03*
X129095500Y-61849000D03*
D17*
X122745500Y-62999000D03*
X123545500Y-62999000D03*
X124345500Y-62999000D03*
X125145500Y-62999000D03*
X125945500Y-62999000D03*
%TD*%
%TO.C,D1*%
G36*
G01*
X133736500Y-115059750D02*
X133736500Y-115572250D01*
G75*
G02*
X133517750Y-115791000I-218750J0D01*
G01*
X133080250Y-115791000D01*
G75*
G02*
X132861500Y-115572250I0J218750D01*
G01*
X132861500Y-115059750D01*
G75*
G02*
X133080250Y-114841000I218750J0D01*
G01*
X133517750Y-114841000D01*
G75*
G02*
X133736500Y-115059750I0J-218750D01*
G01*
G37*
G36*
G01*
X135311500Y-115059750D02*
X135311500Y-115572250D01*
G75*
G02*
X135092750Y-115791000I-218750J0D01*
G01*
X134655250Y-115791000D01*
G75*
G02*
X134436500Y-115572250I0J218750D01*
G01*
X134436500Y-115059750D01*
G75*
G02*
X134655250Y-114841000I218750J0D01*
G01*
X135092750Y-114841000D01*
G75*
G02*
X135311500Y-115059750I0J-218750D01*
G01*
G37*
%TD*%
%TO.C,C12*%
G36*
G01*
X117899000Y-69790500D02*
X117899000Y-70290500D01*
G75*
G02*
X117674000Y-70515500I-225000J0D01*
G01*
X117224000Y-70515500D01*
G75*
G02*
X116999000Y-70290500I0J225000D01*
G01*
X116999000Y-69790500D01*
G75*
G02*
X117224000Y-69565500I225000J0D01*
G01*
X117674000Y-69565500D01*
G75*
G02*
X117899000Y-69790500I0J-225000D01*
G01*
G37*
G36*
G01*
X119449000Y-69790500D02*
X119449000Y-70290500D01*
G75*
G02*
X119224000Y-70515500I-225000J0D01*
G01*
X118774000Y-70515500D01*
G75*
G02*
X118549000Y-70290500I0J225000D01*
G01*
X118549000Y-69790500D01*
G75*
G02*
X118774000Y-69565500I225000J0D01*
G01*
X119224000Y-69565500D01*
G75*
G02*
X119449000Y-69790500I0J-225000D01*
G01*
G37*
%TD*%
%TO.C,C10*%
G36*
G01*
X114877000Y-64901000D02*
X114877000Y-65401000D01*
G75*
G02*
X114652000Y-65626000I-225000J0D01*
G01*
X114202000Y-65626000D01*
G75*
G02*
X113977000Y-65401000I0J225000D01*
G01*
X113977000Y-64901000D01*
G75*
G02*
X114202000Y-64676000I225000J0D01*
G01*
X114652000Y-64676000D01*
G75*
G02*
X114877000Y-64901000I0J-225000D01*
G01*
G37*
G36*
G01*
X116427000Y-64901000D02*
X116427000Y-65401000D01*
G75*
G02*
X116202000Y-65626000I-225000J0D01*
G01*
X115752000Y-65626000D01*
G75*
G02*
X115527000Y-65401000I0J225000D01*
G01*
X115527000Y-64901000D01*
G75*
G02*
X115752000Y-64676000I225000J0D01*
G01*
X116202000Y-64676000D01*
G75*
G02*
X116427000Y-64901000I0J-225000D01*
G01*
G37*
%TD*%
%TO.C,C9*%
G36*
G01*
X132938500Y-113038000D02*
X133888500Y-113038000D01*
G75*
G02*
X134138500Y-113288000I0J-250000D01*
G01*
X134138500Y-113788000D01*
G75*
G02*
X133888500Y-114038000I-250000J0D01*
G01*
X132938500Y-114038000D01*
G75*
G02*
X132688500Y-113788000I0J250000D01*
G01*
X132688500Y-113288000D01*
G75*
G02*
X132938500Y-113038000I250000J0D01*
G01*
G37*
G36*
G01*
X132938500Y-111138000D02*
X133888500Y-111138000D01*
G75*
G02*
X134138500Y-111388000I0J-250000D01*
G01*
X134138500Y-111888000D01*
G75*
G02*
X133888500Y-112138000I-250000J0D01*
G01*
X132938500Y-112138000D01*
G75*
G02*
X132688500Y-111888000I0J250000D01*
G01*
X132688500Y-111388000D01*
G75*
G02*
X132938500Y-111138000I250000J0D01*
G01*
G37*
%TD*%
%TO.C,C8*%
G36*
G01*
X135705000Y-112018000D02*
X135705000Y-112518000D01*
G75*
G02*
X135480000Y-112743000I-225000J0D01*
G01*
X135030000Y-112743000D01*
G75*
G02*
X134805000Y-112518000I0J225000D01*
G01*
X134805000Y-112018000D01*
G75*
G02*
X135030000Y-111793000I225000J0D01*
G01*
X135480000Y-111793000D01*
G75*
G02*
X135705000Y-112018000I0J-225000D01*
G01*
G37*
G36*
G01*
X137255000Y-112018000D02*
X137255000Y-112518000D01*
G75*
G02*
X137030000Y-112743000I-225000J0D01*
G01*
X136580000Y-112743000D01*
G75*
G02*
X136355000Y-112518000I0J225000D01*
G01*
X136355000Y-112018000D01*
G75*
G02*
X136580000Y-111793000I225000J0D01*
G01*
X137030000Y-111793000D01*
G75*
G02*
X137255000Y-112018000I0J-225000D01*
G01*
G37*
%TD*%
%TO.C,C7*%
G36*
G01*
X139413000Y-118610000D02*
X138463000Y-118610000D01*
G75*
G02*
X138213000Y-118360000I0J250000D01*
G01*
X138213000Y-117860000D01*
G75*
G02*
X138463000Y-117610000I250000J0D01*
G01*
X139413000Y-117610000D01*
G75*
G02*
X139663000Y-117860000I0J-250000D01*
G01*
X139663000Y-118360000D01*
G75*
G02*
X139413000Y-118610000I-250000J0D01*
G01*
G37*
G36*
G01*
X139413000Y-120510000D02*
X138463000Y-120510000D01*
G75*
G02*
X138213000Y-120260000I0J250000D01*
G01*
X138213000Y-119760000D01*
G75*
G02*
X138463000Y-119510000I250000J0D01*
G01*
X139413000Y-119510000D01*
G75*
G02*
X139663000Y-119760000I0J-250000D01*
G01*
X139663000Y-120260000D01*
G75*
G02*
X139413000Y-120510000I-250000J0D01*
G01*
G37*
%TD*%
%TO.C,C6*%
G36*
G01*
X139124500Y-97833000D02*
X138624500Y-97833000D01*
G75*
G02*
X138399500Y-97608000I0J225000D01*
G01*
X138399500Y-97158000D01*
G75*
G02*
X138624500Y-96933000I225000J0D01*
G01*
X139124500Y-96933000D01*
G75*
G02*
X139349500Y-97158000I0J-225000D01*
G01*
X139349500Y-97608000D01*
G75*
G02*
X139124500Y-97833000I-225000J0D01*
G01*
G37*
G36*
G01*
X139124500Y-99383000D02*
X138624500Y-99383000D01*
G75*
G02*
X138399500Y-99158000I0J225000D01*
G01*
X138399500Y-98708000D01*
G75*
G02*
X138624500Y-98483000I225000J0D01*
G01*
X139124500Y-98483000D01*
G75*
G02*
X139349500Y-98708000I0J-225000D01*
G01*
X139349500Y-99158000D01*
G75*
G02*
X139124500Y-99383000I-225000J0D01*
G01*
G37*
%TD*%
%TO.C,C4*%
G36*
G01*
X127956500Y-112897500D02*
X128456500Y-112897500D01*
G75*
G02*
X128681500Y-113122500I0J-225000D01*
G01*
X128681500Y-113572500D01*
G75*
G02*
X128456500Y-113797500I-225000J0D01*
G01*
X127956500Y-113797500D01*
G75*
G02*
X127731500Y-113572500I0J225000D01*
G01*
X127731500Y-113122500D01*
G75*
G02*
X127956500Y-112897500I225000J0D01*
G01*
G37*
G36*
G01*
X127956500Y-111347500D02*
X128456500Y-111347500D01*
G75*
G02*
X128681500Y-111572500I0J-225000D01*
G01*
X128681500Y-112022500D01*
G75*
G02*
X128456500Y-112247500I-225000J0D01*
G01*
X127956500Y-112247500D01*
G75*
G02*
X127731500Y-112022500I0J225000D01*
G01*
X127731500Y-111572500D01*
G75*
G02*
X127956500Y-111347500I225000J0D01*
G01*
G37*
%TD*%
%TO.C,C3*%
G36*
G01*
X134108000Y-97922500D02*
X133608000Y-97922500D01*
G75*
G02*
X133383000Y-97697500I0J225000D01*
G01*
X133383000Y-97247500D01*
G75*
G02*
X133608000Y-97022500I225000J0D01*
G01*
X134108000Y-97022500D01*
G75*
G02*
X134333000Y-97247500I0J-225000D01*
G01*
X134333000Y-97697500D01*
G75*
G02*
X134108000Y-97922500I-225000J0D01*
G01*
G37*
G36*
G01*
X134108000Y-99472500D02*
X133608000Y-99472500D01*
G75*
G02*
X133383000Y-99247500I0J225000D01*
G01*
X133383000Y-98797500D01*
G75*
G02*
X133608000Y-98572500I225000J0D01*
G01*
X134108000Y-98572500D01*
G75*
G02*
X134333000Y-98797500I0J-225000D01*
G01*
X134333000Y-99247500D01*
G75*
G02*
X134108000Y-99472500I-225000J0D01*
G01*
G37*
%TD*%
%TO.C,C2*%
G36*
G01*
X129480500Y-112897500D02*
X129980500Y-112897500D01*
G75*
G02*
X130205500Y-113122500I0J-225000D01*
G01*
X130205500Y-113572500D01*
G75*
G02*
X129980500Y-113797500I-225000J0D01*
G01*
X129480500Y-113797500D01*
G75*
G02*
X129255500Y-113572500I0J225000D01*
G01*
X129255500Y-113122500D01*
G75*
G02*
X129480500Y-112897500I225000J0D01*
G01*
G37*
G36*
G01*
X129480500Y-111347500D02*
X129980500Y-111347500D01*
G75*
G02*
X130205500Y-111572500I0J-225000D01*
G01*
X130205500Y-112022500D01*
G75*
G02*
X129980500Y-112247500I-225000J0D01*
G01*
X129480500Y-112247500D01*
G75*
G02*
X129255500Y-112022500I0J225000D01*
G01*
X129255500Y-111572500D01*
G75*
G02*
X129480500Y-111347500I225000J0D01*
G01*
G37*
%TD*%
%TO.C,C1*%
G36*
G01*
X206052000Y-107311000D02*
X206052000Y-106811000D01*
G75*
G02*
X206277000Y-106586000I225000J0D01*
G01*
X206727000Y-106586000D01*
G75*
G02*
X206952000Y-106811000I0J-225000D01*
G01*
X206952000Y-107311000D01*
G75*
G02*
X206727000Y-107536000I-225000J0D01*
G01*
X206277000Y-107536000D01*
G75*
G02*
X206052000Y-107311000I0J225000D01*
G01*
G37*
G36*
G01*
X204502000Y-107311000D02*
X204502000Y-106811000D01*
G75*
G02*
X204727000Y-106586000I225000J0D01*
G01*
X205177000Y-106586000D01*
G75*
G02*
X205402000Y-106811000I0J-225000D01*
G01*
X205402000Y-107311000D01*
G75*
G02*
X205177000Y-107536000I-225000J0D01*
G01*
X204727000Y-107536000D01*
G75*
G02*
X204502000Y-107311000I0J225000D01*
G01*
G37*
%TD*%
D18*
%TO.C,BT1*%
X215265000Y-118237000D03*
X184225000Y-118237000D03*
%TD*%
M02*
