%TF.GenerationSoftware,KiCad,Pcbnew,(5.1.9-0-10_14)*%
%TF.CreationDate,2021-08-09T22:26:57+08:00*%
%TF.ProjectId,Motor_clock,4d6f746f-725f-4636-9c6f-636b2e6b6963,rev?*%
%TF.SameCoordinates,Original*%
%TF.FileFunction,Legend,Top*%
%TF.FilePolarity,Positive*%
%FSLAX46Y46*%
G04 Gerber Fmt 4.6, Leading zero omitted, Abs format (unit mm)*
G04 Created by KiCad (PCBNEW (5.1.9-0-10_14)) date 2021-08-09 22:26:57*
%MOMM*%
%LPD*%
G01*
G04 APERTURE LIST*
%ADD10C,0.150000*%
%ADD11C,0.120000*%
%ADD12C,0.127000*%
%ADD13C,0.200000*%
%ADD14C,0.400000*%
%ADD15C,0.015000*%
G04 APERTURE END LIST*
D10*
X170281695Y-115476400D02*
X170186457Y-115428780D01*
X170043600Y-115428780D01*
X169900742Y-115476400D01*
X169805504Y-115571638D01*
X169757885Y-115666876D01*
X169710266Y-115857352D01*
X169710266Y-116000209D01*
X169757885Y-116190685D01*
X169805504Y-116285923D01*
X169900742Y-116381161D01*
X170043600Y-116428780D01*
X170138838Y-116428780D01*
X170281695Y-116381161D01*
X170329314Y-116333542D01*
X170329314Y-116000209D01*
X170138838Y-116000209D01*
X170757885Y-116428780D02*
X170757885Y-115428780D01*
X171329314Y-116428780D01*
X171329314Y-115428780D01*
X171805504Y-116428780D02*
X171805504Y-115428780D01*
X172043600Y-115428780D01*
X172186457Y-115476400D01*
X172281695Y-115571638D01*
X172329314Y-115666876D01*
X172376933Y-115857352D01*
X172376933Y-116000209D01*
X172329314Y-116190685D01*
X172281695Y-116285923D01*
X172186457Y-116381161D01*
X172043600Y-116428780D01*
X171805504Y-116428780D01*
X166590790Y-116428780D02*
X166590790Y-115428780D01*
X166828885Y-115428780D01*
X166971742Y-115476400D01*
X167066980Y-115571638D01*
X167114600Y-115666876D01*
X167162219Y-115857352D01*
X167162219Y-116000209D01*
X167114600Y-116190685D01*
X167066980Y-116285923D01*
X166971742Y-116381161D01*
X166828885Y-116428780D01*
X166590790Y-116428780D01*
X167590790Y-116428780D02*
X167590790Y-115428780D01*
X168066980Y-116428780D02*
X168066980Y-115428780D01*
X168638409Y-116428780D01*
X168638409Y-115428780D01*
X164376123Y-115428780D02*
X163899933Y-115428780D01*
X163852314Y-115904971D01*
X163899933Y-115857352D01*
X163995171Y-115809733D01*
X164233266Y-115809733D01*
X164328504Y-115857352D01*
X164376123Y-115904971D01*
X164423742Y-116000209D01*
X164423742Y-116238304D01*
X164376123Y-116333542D01*
X164328504Y-116381161D01*
X164233266Y-116428780D01*
X163995171Y-116428780D01*
X163899933Y-116381161D01*
X163852314Y-116333542D01*
X164709457Y-115428780D02*
X165042790Y-116428780D01*
X165376123Y-115428780D01*
X120650095Y-119134000D02*
X120554857Y-119086380D01*
X120412000Y-119086380D01*
X120269142Y-119134000D01*
X120173904Y-119229238D01*
X120126285Y-119324476D01*
X120078666Y-119514952D01*
X120078666Y-119657809D01*
X120126285Y-119848285D01*
X120173904Y-119943523D01*
X120269142Y-120038761D01*
X120412000Y-120086380D01*
X120507238Y-120086380D01*
X120650095Y-120038761D01*
X120697714Y-119991142D01*
X120697714Y-119657809D01*
X120507238Y-119657809D01*
X121126285Y-120086380D02*
X121126285Y-119086380D01*
X121697714Y-120086380D01*
X121697714Y-119086380D01*
X122173904Y-120086380D02*
X122173904Y-119086380D01*
X122412000Y-119086380D01*
X122554857Y-119134000D01*
X122650095Y-119229238D01*
X122697714Y-119324476D01*
X122745333Y-119514952D01*
X122745333Y-119657809D01*
X122697714Y-119848285D01*
X122650095Y-119943523D01*
X122554857Y-120038761D01*
X122412000Y-120086380D01*
X122173904Y-120086380D01*
X116982952Y-120086380D02*
X116411523Y-120086380D01*
X116697238Y-120086380D02*
X116697238Y-119086380D01*
X116602000Y-119229238D01*
X116506761Y-119324476D01*
X116411523Y-119372095D01*
X117363904Y-119181619D02*
X117411523Y-119134000D01*
X117506761Y-119086380D01*
X117744857Y-119086380D01*
X117840095Y-119134000D01*
X117887714Y-119181619D01*
X117935333Y-119276857D01*
X117935333Y-119372095D01*
X117887714Y-119514952D01*
X117316285Y-120086380D01*
X117935333Y-120086380D01*
X118221047Y-119086380D02*
X118554380Y-120086380D01*
X118887714Y-119086380D01*
X138811095Y-76589000D02*
X138715857Y-76541380D01*
X138573000Y-76541380D01*
X138430142Y-76589000D01*
X138334904Y-76684238D01*
X138287285Y-76779476D01*
X138239666Y-76969952D01*
X138239666Y-77112809D01*
X138287285Y-77303285D01*
X138334904Y-77398523D01*
X138430142Y-77493761D01*
X138573000Y-77541380D01*
X138668238Y-77541380D01*
X138811095Y-77493761D01*
X138858714Y-77446142D01*
X138858714Y-77112809D01*
X138668238Y-77112809D01*
X139287285Y-77541380D02*
X139287285Y-76541380D01*
X139858714Y-77541380D01*
X139858714Y-76541380D01*
X140334904Y-77541380D02*
X140334904Y-76541380D01*
X140573000Y-76541380D01*
X140715857Y-76589000D01*
X140811095Y-76684238D01*
X140858714Y-76779476D01*
X140906333Y-76969952D01*
X140906333Y-77112809D01*
X140858714Y-77303285D01*
X140811095Y-77398523D01*
X140715857Y-77493761D01*
X140573000Y-77541380D01*
X140334904Y-77541380D01*
X115768619Y-94686380D02*
X115435285Y-94210190D01*
X115197190Y-94686380D02*
X115197190Y-93686380D01*
X115578142Y-93686380D01*
X115673380Y-93734000D01*
X115721000Y-93781619D01*
X115768619Y-93876857D01*
X115768619Y-94019714D01*
X115721000Y-94114952D01*
X115673380Y-94162571D01*
X115578142Y-94210190D01*
X115197190Y-94210190D01*
X116197190Y-94162571D02*
X116530523Y-94162571D01*
X116673380Y-94686380D02*
X116197190Y-94686380D01*
X116197190Y-93686380D01*
X116673380Y-93686380D01*
X117054333Y-94638761D02*
X117197190Y-94686380D01*
X117435285Y-94686380D01*
X117530523Y-94638761D01*
X117578142Y-94591142D01*
X117625761Y-94495904D01*
X117625761Y-94400666D01*
X117578142Y-94305428D01*
X117530523Y-94257809D01*
X117435285Y-94210190D01*
X117244809Y-94162571D01*
X117149571Y-94114952D01*
X117101952Y-94067333D01*
X117054333Y-93972095D01*
X117054333Y-93876857D01*
X117101952Y-93781619D01*
X117149571Y-93734000D01*
X117244809Y-93686380D01*
X117482904Y-93686380D01*
X117625761Y-93734000D01*
X118054333Y-94162571D02*
X118387666Y-94162571D01*
X118530523Y-94686380D02*
X118054333Y-94686380D01*
X118054333Y-93686380D01*
X118530523Y-93686380D01*
X118816238Y-93686380D02*
X119387666Y-93686380D01*
X119101952Y-94686380D02*
X119101952Y-93686380D01*
X138239523Y-67270380D02*
X137763333Y-67270380D01*
X137715714Y-67746571D01*
X137763333Y-67698952D01*
X137858571Y-67651333D01*
X138096666Y-67651333D01*
X138191904Y-67698952D01*
X138239523Y-67746571D01*
X138287142Y-67841809D01*
X138287142Y-68079904D01*
X138239523Y-68175142D01*
X138191904Y-68222761D01*
X138096666Y-68270380D01*
X137858571Y-68270380D01*
X137763333Y-68222761D01*
X137715714Y-68175142D01*
X138572857Y-67270380D02*
X138906190Y-68270380D01*
X139239523Y-67270380D01*
X132921571Y-68270380D02*
X132921571Y-67270380D01*
X133254904Y-67984666D01*
X133588238Y-67270380D01*
X133588238Y-68270380D01*
X134064428Y-68270380D02*
X134064428Y-67270380D01*
X134493000Y-68222761D02*
X134635857Y-68270380D01*
X134873952Y-68270380D01*
X134969190Y-68222761D01*
X135016809Y-68175142D01*
X135064428Y-68079904D01*
X135064428Y-67984666D01*
X135016809Y-67889428D01*
X134969190Y-67841809D01*
X134873952Y-67794190D01*
X134683476Y-67746571D01*
X134588238Y-67698952D01*
X134540619Y-67651333D01*
X134493000Y-67556095D01*
X134493000Y-67460857D01*
X134540619Y-67365619D01*
X134588238Y-67318000D01*
X134683476Y-67270380D01*
X134921571Y-67270380D01*
X135064428Y-67318000D01*
X135683476Y-67270380D02*
X135873952Y-67270380D01*
X135969190Y-67318000D01*
X136064428Y-67413238D01*
X136112047Y-67603714D01*
X136112047Y-67937047D01*
X136064428Y-68127523D01*
X135969190Y-68222761D01*
X135873952Y-68270380D01*
X135683476Y-68270380D01*
X135588238Y-68222761D01*
X135493000Y-68127523D01*
X135445380Y-67937047D01*
X135445380Y-67603714D01*
X135493000Y-67413238D01*
X135588238Y-67318000D01*
X135683476Y-67270380D01*
X151495238Y-78192380D02*
X151828571Y-79192380D01*
X152161904Y-78192380D01*
X152495238Y-79192380D02*
X152495238Y-78192380D01*
X152828571Y-78906666D01*
X153161904Y-78192380D01*
X153161904Y-79192380D01*
X149098095Y-57920000D02*
X149002857Y-57872380D01*
X148860000Y-57872380D01*
X148717142Y-57920000D01*
X148621904Y-58015238D01*
X148574285Y-58110476D01*
X148526666Y-58300952D01*
X148526666Y-58443809D01*
X148574285Y-58634285D01*
X148621904Y-58729523D01*
X148717142Y-58824761D01*
X148860000Y-58872380D01*
X148955238Y-58872380D01*
X149098095Y-58824761D01*
X149145714Y-58777142D01*
X149145714Y-58443809D01*
X148955238Y-58443809D01*
X149574285Y-58872380D02*
X149574285Y-57872380D01*
X150145714Y-58872380D01*
X150145714Y-57872380D01*
X150621904Y-58872380D02*
X150621904Y-57872380D01*
X150860000Y-57872380D01*
X151002857Y-57920000D01*
X151098095Y-58015238D01*
X151145714Y-58110476D01*
X151193333Y-58300952D01*
X151193333Y-58443809D01*
X151145714Y-58634285D01*
X151098095Y-58729523D01*
X151002857Y-58824761D01*
X150860000Y-58872380D01*
X150621904Y-58872380D01*
D11*
%TO.C,BZ1*%
X151034000Y-122555000D02*
G75*
G03*
X151034000Y-122555000I-6000000J0D01*
G01*
%TO.C,U1*%
X117778000Y-86540000D02*
X121638000Y-86540000D01*
X121638000Y-86540000D02*
X121638000Y-86285000D01*
X117778000Y-86540000D02*
X113918000Y-86540000D01*
X113918000Y-86540000D02*
X113918000Y-86285000D01*
X117778000Y-76020000D02*
X121638000Y-76020000D01*
X121638000Y-76020000D02*
X121638000Y-76275000D01*
X117778000Y-76020000D02*
X113918000Y-76020000D01*
X113918000Y-76020000D02*
X113918000Y-76275000D01*
X113918000Y-76275000D02*
X112103000Y-76275000D01*
%TO.C,R9*%
X159551900Y-122780058D02*
X159551900Y-122305542D01*
X158506900Y-122780058D02*
X158506900Y-122305542D01*
%TO.C,R6*%
X132135964Y-110189600D02*
X130681836Y-110189600D01*
X132135964Y-112009600D02*
X130681836Y-112009600D01*
%TO.C,Q1*%
X156382600Y-126651800D02*
X156382600Y-125191800D01*
X159542600Y-126651800D02*
X159542600Y-124491800D01*
X159542600Y-126651800D02*
X158612600Y-126651800D01*
X156382600Y-126651800D02*
X157312600Y-126651800D01*
%TO.C,D3*%
X155497800Y-121053400D02*
X155497800Y-126453400D01*
X152197800Y-121053400D02*
X152197800Y-126453400D01*
X155497800Y-121053400D02*
X152197800Y-121053400D01*
%TO.C,C15*%
X156563600Y-122376020D02*
X156563600Y-122657180D01*
X157583600Y-122376020D02*
X157583600Y-122657180D01*
%TO.C,L1*%
X124002800Y-108004800D02*
X124002800Y-113592800D01*
X118414800Y-113592800D02*
X118414800Y-108004800D01*
%TO.C,J1*%
X165327600Y-119362800D02*
X165027600Y-119962800D01*
X164727600Y-119362800D02*
X165327600Y-119362800D01*
X165027600Y-119962800D02*
X164727600Y-119362800D01*
X170277600Y-123062800D02*
X169777600Y-123062800D01*
X170277600Y-128562800D02*
X170277600Y-123062800D01*
X169777600Y-128562800D02*
X170277600Y-128562800D01*
X169777600Y-123062800D02*
X169777600Y-128562800D01*
X167777600Y-123062800D02*
X167277600Y-123062800D01*
X167777600Y-128562800D02*
X167777600Y-123062800D01*
X167277600Y-128562800D02*
X167777600Y-128562800D01*
X167277600Y-123062800D02*
X167277600Y-128562800D01*
X165277600Y-123062800D02*
X164777600Y-123062800D01*
X165277600Y-128562800D02*
X165277600Y-123062800D01*
X164777600Y-128562800D02*
X165277600Y-128562800D01*
X164777600Y-123062800D02*
X164777600Y-128562800D01*
X171167600Y-117452800D02*
X171167600Y-121952800D01*
X172587600Y-117452800D02*
X171167600Y-117452800D01*
X172587600Y-129172800D02*
X172587600Y-117452800D01*
X167527600Y-129172800D02*
X172587600Y-129172800D01*
X163887600Y-117452800D02*
X163887600Y-121952800D01*
X162467600Y-117452800D02*
X163887600Y-117452800D01*
X162467600Y-129172800D02*
X162467600Y-117452800D01*
X167527600Y-129172800D02*
X162467600Y-129172800D01*
D12*
%TO.C,VR1*%
X122326000Y-117020000D02*
X122326000Y-115420000D01*
X125456000Y-117020000D02*
X125456000Y-115420000D01*
D13*
X122791000Y-118620000D02*
G75*
G03*
X122791000Y-118620000I-100000J0D01*
G01*
D11*
%TO.C,U3*%
X217170000Y-83058000D02*
X217170000Y-103378000D01*
X199898000Y-83058000D02*
X217170000Y-83058000D01*
X199898000Y-103378000D02*
X199898000Y-83058000D01*
X217170000Y-103378000D02*
X199898000Y-103378000D01*
%TO.C,J11*%
X113597000Y-99924000D02*
X113147000Y-100324000D01*
X113147000Y-100324000D02*
X113147000Y-99524000D01*
X113147000Y-99524000D02*
X113597000Y-99924000D01*
%TO.C,J15*%
X110780000Y-68929000D02*
X110780000Y-73649000D01*
X110780000Y-73649000D02*
X120900000Y-73649000D01*
X120900000Y-73649000D02*
X120900000Y-68929000D01*
X120900000Y-68929000D02*
X110780000Y-68929000D01*
X112540000Y-68929000D02*
X112540000Y-68729000D01*
X112540000Y-68729000D02*
X112240000Y-68729000D01*
X112240000Y-68729000D02*
X112240000Y-68929000D01*
X112540000Y-68829000D02*
X112240000Y-68829000D01*
X113340000Y-68929000D02*
X113340000Y-69539000D01*
X113340000Y-69539000D02*
X111390000Y-69539000D01*
X111390000Y-69539000D02*
X111390000Y-73039000D01*
X111390000Y-73039000D02*
X120290000Y-73039000D01*
X120290000Y-73039000D02*
X120290000Y-69539000D01*
X120290000Y-69539000D02*
X118340000Y-69539000D01*
X118340000Y-69539000D02*
X118340000Y-68929000D01*
X110780000Y-70239000D02*
X111390000Y-70239000D01*
X110780000Y-71539000D02*
X111390000Y-71539000D01*
X120900000Y-70239000D02*
X120290000Y-70239000D01*
X120900000Y-71539000D02*
X120290000Y-71539000D01*
X113740000Y-73039000D02*
X113740000Y-72539000D01*
X113740000Y-72539000D02*
X113940000Y-72539000D01*
X113940000Y-72539000D02*
X113940000Y-73039000D01*
X113840000Y-73039000D02*
X113840000Y-72539000D01*
X115740000Y-73039000D02*
X115740000Y-72539000D01*
X115740000Y-72539000D02*
X115940000Y-72539000D01*
X115940000Y-72539000D02*
X115940000Y-73039000D01*
X115840000Y-73039000D02*
X115840000Y-72539000D01*
X117740000Y-73039000D02*
X117740000Y-72539000D01*
X117740000Y-72539000D02*
X117940000Y-72539000D01*
X117940000Y-72539000D02*
X117940000Y-73039000D01*
X117840000Y-73039000D02*
X117840000Y-72539000D01*
X111730000Y-68629000D02*
X110480000Y-68629000D01*
X110480000Y-68629000D02*
X110480000Y-69879000D01*
%TO.C,J4*%
X134179000Y-76387000D02*
X139379000Y-76387000D01*
X134179000Y-71247000D02*
X134179000Y-76387000D01*
X139379000Y-68647000D02*
X139379000Y-76387000D01*
X134179000Y-71247000D02*
X136779000Y-71247000D01*
X136779000Y-71247000D02*
X136779000Y-68647000D01*
X136779000Y-68647000D02*
X139379000Y-68647000D01*
X134179000Y-69977000D02*
X134179000Y-68647000D01*
X134179000Y-68647000D02*
X135509000Y-68647000D01*
%TO.C,U10*%
X130487500Y-76972000D02*
X128287500Y-76972000D01*
X130487500Y-76972000D02*
X132687500Y-76972000D01*
X130487500Y-85042000D02*
X128287500Y-85042000D01*
X130487500Y-85042000D02*
X134087500Y-85042000D01*
%TO.C,J17*%
X115475000Y-56741000D02*
X110755000Y-56741000D01*
X110755000Y-56741000D02*
X110755000Y-66861000D01*
X110755000Y-66861000D02*
X115475000Y-66861000D01*
X115475000Y-66861000D02*
X115475000Y-56741000D01*
X115475000Y-58501000D02*
X115675000Y-58501000D01*
X115675000Y-58501000D02*
X115675000Y-58201000D01*
X115675000Y-58201000D02*
X115475000Y-58201000D01*
X115575000Y-58501000D02*
X115575000Y-58201000D01*
X115475000Y-59301000D02*
X114865000Y-59301000D01*
X114865000Y-59301000D02*
X114865000Y-57351000D01*
X114865000Y-57351000D02*
X111365000Y-57351000D01*
X111365000Y-57351000D02*
X111365000Y-66251000D01*
X111365000Y-66251000D02*
X114865000Y-66251000D01*
X114865000Y-66251000D02*
X114865000Y-64301000D01*
X114865000Y-64301000D02*
X115475000Y-64301000D01*
X114165000Y-56741000D02*
X114165000Y-57351000D01*
X112865000Y-56741000D02*
X112865000Y-57351000D01*
X114165000Y-66861000D02*
X114165000Y-66251000D01*
X112865000Y-66861000D02*
X112865000Y-66251000D01*
X111365000Y-59701000D02*
X111865000Y-59701000D01*
X111865000Y-59701000D02*
X111865000Y-59901000D01*
X111865000Y-59901000D02*
X111365000Y-59901000D01*
X111365000Y-59801000D02*
X111865000Y-59801000D01*
X111365000Y-61701000D02*
X111865000Y-61701000D01*
X111865000Y-61701000D02*
X111865000Y-61901000D01*
X111865000Y-61901000D02*
X111365000Y-61901000D01*
X111365000Y-61801000D02*
X111865000Y-61801000D01*
X111365000Y-63701000D02*
X111865000Y-63701000D01*
X111865000Y-63701000D02*
X111865000Y-63901000D01*
X111865000Y-63901000D02*
X111365000Y-63901000D01*
X111365000Y-63801000D02*
X111865000Y-63801000D01*
X115775000Y-57691000D02*
X115775000Y-56441000D01*
X115775000Y-56441000D02*
X114525000Y-56441000D01*
%TO.C,J16*%
X128429000Y-56741000D02*
X123709000Y-56741000D01*
X123709000Y-56741000D02*
X123709000Y-66861000D01*
X123709000Y-66861000D02*
X128429000Y-66861000D01*
X128429000Y-66861000D02*
X128429000Y-56741000D01*
X128429000Y-58501000D02*
X128629000Y-58501000D01*
X128629000Y-58501000D02*
X128629000Y-58201000D01*
X128629000Y-58201000D02*
X128429000Y-58201000D01*
X128529000Y-58501000D02*
X128529000Y-58201000D01*
X128429000Y-59301000D02*
X127819000Y-59301000D01*
X127819000Y-59301000D02*
X127819000Y-57351000D01*
X127819000Y-57351000D02*
X124319000Y-57351000D01*
X124319000Y-57351000D02*
X124319000Y-66251000D01*
X124319000Y-66251000D02*
X127819000Y-66251000D01*
X127819000Y-66251000D02*
X127819000Y-64301000D01*
X127819000Y-64301000D02*
X128429000Y-64301000D01*
X127119000Y-56741000D02*
X127119000Y-57351000D01*
X125819000Y-56741000D02*
X125819000Y-57351000D01*
X127119000Y-66861000D02*
X127119000Y-66251000D01*
X125819000Y-66861000D02*
X125819000Y-66251000D01*
X124319000Y-59701000D02*
X124819000Y-59701000D01*
X124819000Y-59701000D02*
X124819000Y-59901000D01*
X124819000Y-59901000D02*
X124319000Y-59901000D01*
X124319000Y-59801000D02*
X124819000Y-59801000D01*
X124319000Y-61701000D02*
X124819000Y-61701000D01*
X124819000Y-61701000D02*
X124819000Y-61901000D01*
X124819000Y-61901000D02*
X124319000Y-61901000D01*
X124319000Y-61801000D02*
X124819000Y-61801000D01*
X124319000Y-63701000D02*
X124819000Y-63701000D01*
X124819000Y-63701000D02*
X124819000Y-63901000D01*
X124819000Y-63901000D02*
X124319000Y-63901000D01*
X124319000Y-63801000D02*
X124819000Y-63801000D01*
X128729000Y-57691000D02*
X128729000Y-56441000D01*
X128729000Y-56441000D02*
X127479000Y-56441000D01*
%TO.C,J14*%
X132489000Y-73692000D02*
X132489000Y-68972000D01*
X132489000Y-68972000D02*
X122369000Y-68972000D01*
X122369000Y-68972000D02*
X122369000Y-73692000D01*
X122369000Y-73692000D02*
X132489000Y-73692000D01*
X130729000Y-73692000D02*
X130729000Y-73892000D01*
X130729000Y-73892000D02*
X131029000Y-73892000D01*
X131029000Y-73892000D02*
X131029000Y-73692000D01*
X130729000Y-73792000D02*
X131029000Y-73792000D01*
X129929000Y-73692000D02*
X129929000Y-73082000D01*
X129929000Y-73082000D02*
X131879000Y-73082000D01*
X131879000Y-73082000D02*
X131879000Y-69582000D01*
X131879000Y-69582000D02*
X122979000Y-69582000D01*
X122979000Y-69582000D02*
X122979000Y-73082000D01*
X122979000Y-73082000D02*
X124929000Y-73082000D01*
X124929000Y-73082000D02*
X124929000Y-73692000D01*
X132489000Y-72382000D02*
X131879000Y-72382000D01*
X132489000Y-71082000D02*
X131879000Y-71082000D01*
X122369000Y-72382000D02*
X122979000Y-72382000D01*
X122369000Y-71082000D02*
X122979000Y-71082000D01*
X129529000Y-69582000D02*
X129529000Y-70082000D01*
X129529000Y-70082000D02*
X129329000Y-70082000D01*
X129329000Y-70082000D02*
X129329000Y-69582000D01*
X129429000Y-69582000D02*
X129429000Y-70082000D01*
X127529000Y-69582000D02*
X127529000Y-70082000D01*
X127529000Y-70082000D02*
X127329000Y-70082000D01*
X127329000Y-70082000D02*
X127329000Y-69582000D01*
X127429000Y-69582000D02*
X127429000Y-70082000D01*
X125529000Y-69582000D02*
X125529000Y-70082000D01*
X125529000Y-70082000D02*
X125329000Y-70082000D01*
X125329000Y-70082000D02*
X125329000Y-69582000D01*
X125429000Y-69582000D02*
X125429000Y-70082000D01*
X131539000Y-73992000D02*
X132789000Y-73992000D01*
X132789000Y-73992000D02*
X132789000Y-72742000D01*
%TO.C,J13*%
X121952000Y-56773000D02*
X117232000Y-56773000D01*
X117232000Y-56773000D02*
X117232000Y-66893000D01*
X117232000Y-66893000D02*
X121952000Y-66893000D01*
X121952000Y-66893000D02*
X121952000Y-56773000D01*
X121952000Y-58533000D02*
X122152000Y-58533000D01*
X122152000Y-58533000D02*
X122152000Y-58233000D01*
X122152000Y-58233000D02*
X121952000Y-58233000D01*
X122052000Y-58533000D02*
X122052000Y-58233000D01*
X121952000Y-59333000D02*
X121342000Y-59333000D01*
X121342000Y-59333000D02*
X121342000Y-57383000D01*
X121342000Y-57383000D02*
X117842000Y-57383000D01*
X117842000Y-57383000D02*
X117842000Y-66283000D01*
X117842000Y-66283000D02*
X121342000Y-66283000D01*
X121342000Y-66283000D02*
X121342000Y-64333000D01*
X121342000Y-64333000D02*
X121952000Y-64333000D01*
X120642000Y-56773000D02*
X120642000Y-57383000D01*
X119342000Y-56773000D02*
X119342000Y-57383000D01*
X120642000Y-66893000D02*
X120642000Y-66283000D01*
X119342000Y-66893000D02*
X119342000Y-66283000D01*
X117842000Y-59733000D02*
X118342000Y-59733000D01*
X118342000Y-59733000D02*
X118342000Y-59933000D01*
X118342000Y-59933000D02*
X117842000Y-59933000D01*
X117842000Y-59833000D02*
X118342000Y-59833000D01*
X117842000Y-61733000D02*
X118342000Y-61733000D01*
X118342000Y-61733000D02*
X118342000Y-61933000D01*
X118342000Y-61933000D02*
X117842000Y-61933000D01*
X117842000Y-61833000D02*
X118342000Y-61833000D01*
X117842000Y-63733000D02*
X118342000Y-63733000D01*
X118342000Y-63733000D02*
X118342000Y-63933000D01*
X118342000Y-63933000D02*
X117842000Y-63933000D01*
X117842000Y-63833000D02*
X118342000Y-63833000D01*
X122252000Y-57723000D02*
X122252000Y-56473000D01*
X122252000Y-56473000D02*
X121002000Y-56473000D01*
%TO.C,J12*%
X134906000Y-56741000D02*
X130186000Y-56741000D01*
X130186000Y-56741000D02*
X130186000Y-66861000D01*
X130186000Y-66861000D02*
X134906000Y-66861000D01*
X134906000Y-66861000D02*
X134906000Y-56741000D01*
X134906000Y-58501000D02*
X135106000Y-58501000D01*
X135106000Y-58501000D02*
X135106000Y-58201000D01*
X135106000Y-58201000D02*
X134906000Y-58201000D01*
X135006000Y-58501000D02*
X135006000Y-58201000D01*
X134906000Y-59301000D02*
X134296000Y-59301000D01*
X134296000Y-59301000D02*
X134296000Y-57351000D01*
X134296000Y-57351000D02*
X130796000Y-57351000D01*
X130796000Y-57351000D02*
X130796000Y-66251000D01*
X130796000Y-66251000D02*
X134296000Y-66251000D01*
X134296000Y-66251000D02*
X134296000Y-64301000D01*
X134296000Y-64301000D02*
X134906000Y-64301000D01*
X133596000Y-56741000D02*
X133596000Y-57351000D01*
X132296000Y-56741000D02*
X132296000Y-57351000D01*
X133596000Y-66861000D02*
X133596000Y-66251000D01*
X132296000Y-66861000D02*
X132296000Y-66251000D01*
X130796000Y-59701000D02*
X131296000Y-59701000D01*
X131296000Y-59701000D02*
X131296000Y-59901000D01*
X131296000Y-59901000D02*
X130796000Y-59901000D01*
X130796000Y-59801000D02*
X131296000Y-59801000D01*
X130796000Y-61701000D02*
X131296000Y-61701000D01*
X131296000Y-61701000D02*
X131296000Y-61901000D01*
X131296000Y-61901000D02*
X130796000Y-61901000D01*
X130796000Y-61801000D02*
X131296000Y-61801000D01*
X130796000Y-63701000D02*
X131296000Y-63701000D01*
X131296000Y-63701000D02*
X131296000Y-63901000D01*
X131296000Y-63901000D02*
X130796000Y-63901000D01*
X130796000Y-63801000D02*
X131296000Y-63801000D01*
X135206000Y-57691000D02*
X135206000Y-56441000D01*
X135206000Y-56441000D02*
X133956000Y-56441000D01*
%TO.C,C14*%
X128497420Y-98423000D02*
X128778580Y-98423000D01*
X128497420Y-99443000D02*
X128778580Y-99443000D01*
%TO.C,R5*%
X125744500Y-89455258D02*
X125744500Y-88980742D01*
X124699500Y-89455258D02*
X124699500Y-88980742D01*
%TO.C,R2*%
X125922300Y-84780658D02*
X125922300Y-84306142D01*
X124877300Y-84780658D02*
X124877300Y-84306142D01*
%TO.C,C5*%
X115591752Y-108700900D02*
X115069248Y-108700900D01*
X115591752Y-110170900D02*
X115069248Y-110170900D01*
%TO.C,Y2*%
X127116000Y-100165000D02*
X127116000Y-103465000D01*
X127116000Y-103465000D02*
X131116000Y-103465000D01*
%TO.C,C13*%
X132717000Y-101662920D02*
X132717000Y-101944080D01*
X131697000Y-101662920D02*
X131697000Y-101944080D01*
%TO.C,C11*%
X125348420Y-106043000D02*
X125629580Y-106043000D01*
X125348420Y-107063000D02*
X125629580Y-107063000D01*
%TO.C,D2*%
X134242000Y-107695000D02*
X128842000Y-107695000D01*
X134242000Y-104395000D02*
X128842000Y-104395000D01*
X134242000Y-107695000D02*
X134242000Y-104395000D01*
%TO.C,Y1*%
X138009000Y-96150500D02*
X134709000Y-96150500D01*
X134709000Y-96150500D02*
X134709000Y-100150500D01*
%TO.C,U9*%
X126472000Y-101979500D02*
X126472000Y-100029500D01*
X126472000Y-101979500D02*
X126472000Y-103929500D01*
X116352000Y-101979500D02*
X116352000Y-100029500D01*
X116352000Y-101979500D02*
X116352000Y-105429500D01*
D10*
%TO.C,U2*%
X128137500Y-94239500D02*
X128362500Y-94239500D01*
X128137500Y-86989500D02*
X128462500Y-86989500D01*
X135387500Y-86989500D02*
X135062500Y-86989500D01*
X135387500Y-94239500D02*
X135062500Y-94239500D01*
X128137500Y-94239500D02*
X128137500Y-93914500D01*
X135387500Y-94239500D02*
X135387500Y-93914500D01*
X135387500Y-86989500D02*
X135387500Y-87314500D01*
X128137500Y-86989500D02*
X128137500Y-87314500D01*
X128362500Y-94239500D02*
X128362500Y-95664500D01*
D11*
%TO.C,SW2*%
X120540000Y-86904000D02*
X120540000Y-86934000D01*
X120540000Y-93364000D02*
X120540000Y-93334000D01*
X114080000Y-93364000D02*
X114080000Y-93334000D01*
X114080000Y-86934000D02*
X114080000Y-86904000D01*
X120540000Y-88834000D02*
X120540000Y-91434000D01*
X114080000Y-86904000D02*
X120540000Y-86904000D01*
X114080000Y-88834000D02*
X114080000Y-91434000D01*
X114080000Y-93364000D02*
X120540000Y-93364000D01*
%TO.C,R8*%
X116251258Y-115482900D02*
X115776742Y-115482900D01*
X116251258Y-114437900D02*
X115776742Y-114437900D01*
%TO.C,R7*%
X128563900Y-111560342D02*
X128563900Y-112034858D01*
X127518900Y-111560342D02*
X127518900Y-112034858D01*
%TO.C,R4*%
X123905742Y-94600500D02*
X124380258Y-94600500D01*
X123905742Y-95645500D02*
X124380258Y-95645500D01*
%TO.C,R3*%
X124636000Y-93011258D02*
X124636000Y-92536742D01*
X125681000Y-93011258D02*
X125681000Y-92536742D01*
%TO.C,R1*%
X123966500Y-90758742D02*
X123966500Y-91233258D01*
X122921500Y-90758742D02*
X122921500Y-91233258D01*
%TO.C,J10*%
X167671500Y-74704000D02*
X172391500Y-74704000D01*
X172391500Y-74704000D02*
X172391500Y-64584000D01*
X172391500Y-64584000D02*
X167671500Y-64584000D01*
X167671500Y-64584000D02*
X167671500Y-74704000D01*
X167671500Y-72944000D02*
X167471500Y-72944000D01*
X167471500Y-72944000D02*
X167471500Y-73244000D01*
X167471500Y-73244000D02*
X167671500Y-73244000D01*
X167571500Y-72944000D02*
X167571500Y-73244000D01*
X167671500Y-72144000D02*
X168281500Y-72144000D01*
X168281500Y-72144000D02*
X168281500Y-74094000D01*
X168281500Y-74094000D02*
X171781500Y-74094000D01*
X171781500Y-74094000D02*
X171781500Y-65194000D01*
X171781500Y-65194000D02*
X168281500Y-65194000D01*
X168281500Y-65194000D02*
X168281500Y-67144000D01*
X168281500Y-67144000D02*
X167671500Y-67144000D01*
X168981500Y-74704000D02*
X168981500Y-74094000D01*
X170281500Y-74704000D02*
X170281500Y-74094000D01*
X168981500Y-64584000D02*
X168981500Y-65194000D01*
X170281500Y-64584000D02*
X170281500Y-65194000D01*
X171781500Y-71744000D02*
X171281500Y-71744000D01*
X171281500Y-71744000D02*
X171281500Y-71544000D01*
X171281500Y-71544000D02*
X171781500Y-71544000D01*
X171781500Y-71644000D02*
X171281500Y-71644000D01*
X171781500Y-69744000D02*
X171281500Y-69744000D01*
X171281500Y-69744000D02*
X171281500Y-69544000D01*
X171281500Y-69544000D02*
X171781500Y-69544000D01*
X171781500Y-69644000D02*
X171281500Y-69644000D01*
X171781500Y-67744000D02*
X171281500Y-67744000D01*
X171281500Y-67744000D02*
X171281500Y-67544000D01*
X171281500Y-67544000D02*
X171781500Y-67544000D01*
X171781500Y-67644000D02*
X171281500Y-67644000D01*
X167371500Y-73754000D02*
X167371500Y-75004000D01*
X167371500Y-75004000D02*
X168621500Y-75004000D01*
%TO.C,J9*%
X167989000Y-98453000D02*
X172709000Y-98453000D01*
X172709000Y-98453000D02*
X172709000Y-88333000D01*
X172709000Y-88333000D02*
X167989000Y-88333000D01*
X167989000Y-88333000D02*
X167989000Y-98453000D01*
X167989000Y-96693000D02*
X167789000Y-96693000D01*
X167789000Y-96693000D02*
X167789000Y-96993000D01*
X167789000Y-96993000D02*
X167989000Y-96993000D01*
X167889000Y-96693000D02*
X167889000Y-96993000D01*
X167989000Y-95893000D02*
X168599000Y-95893000D01*
X168599000Y-95893000D02*
X168599000Y-97843000D01*
X168599000Y-97843000D02*
X172099000Y-97843000D01*
X172099000Y-97843000D02*
X172099000Y-88943000D01*
X172099000Y-88943000D02*
X168599000Y-88943000D01*
X168599000Y-88943000D02*
X168599000Y-90893000D01*
X168599000Y-90893000D02*
X167989000Y-90893000D01*
X169299000Y-98453000D02*
X169299000Y-97843000D01*
X170599000Y-98453000D02*
X170599000Y-97843000D01*
X169299000Y-88333000D02*
X169299000Y-88943000D01*
X170599000Y-88333000D02*
X170599000Y-88943000D01*
X172099000Y-95493000D02*
X171599000Y-95493000D01*
X171599000Y-95493000D02*
X171599000Y-95293000D01*
X171599000Y-95293000D02*
X172099000Y-95293000D01*
X172099000Y-95393000D02*
X171599000Y-95393000D01*
X172099000Y-93493000D02*
X171599000Y-93493000D01*
X171599000Y-93493000D02*
X171599000Y-93293000D01*
X171599000Y-93293000D02*
X172099000Y-93293000D01*
X172099000Y-93393000D02*
X171599000Y-93393000D01*
X172099000Y-91493000D02*
X171599000Y-91493000D01*
X171599000Y-91493000D02*
X171599000Y-91293000D01*
X171599000Y-91293000D02*
X172099000Y-91293000D01*
X172099000Y-91393000D02*
X171599000Y-91393000D01*
X167689000Y-97503000D02*
X167689000Y-98753000D01*
X167689000Y-98753000D02*
X168939000Y-98753000D01*
%TO.C,J8*%
X141446000Y-73942000D02*
X146166000Y-73942000D01*
X146166000Y-73942000D02*
X146166000Y-63822000D01*
X146166000Y-63822000D02*
X141446000Y-63822000D01*
X141446000Y-63822000D02*
X141446000Y-73942000D01*
X141446000Y-72182000D02*
X141246000Y-72182000D01*
X141246000Y-72182000D02*
X141246000Y-72482000D01*
X141246000Y-72482000D02*
X141446000Y-72482000D01*
X141346000Y-72182000D02*
X141346000Y-72482000D01*
X141446000Y-71382000D02*
X142056000Y-71382000D01*
X142056000Y-71382000D02*
X142056000Y-73332000D01*
X142056000Y-73332000D02*
X145556000Y-73332000D01*
X145556000Y-73332000D02*
X145556000Y-64432000D01*
X145556000Y-64432000D02*
X142056000Y-64432000D01*
X142056000Y-64432000D02*
X142056000Y-66382000D01*
X142056000Y-66382000D02*
X141446000Y-66382000D01*
X142756000Y-73942000D02*
X142756000Y-73332000D01*
X144056000Y-73942000D02*
X144056000Y-73332000D01*
X142756000Y-63822000D02*
X142756000Y-64432000D01*
X144056000Y-63822000D02*
X144056000Y-64432000D01*
X145556000Y-70982000D02*
X145056000Y-70982000D01*
X145056000Y-70982000D02*
X145056000Y-70782000D01*
X145056000Y-70782000D02*
X145556000Y-70782000D01*
X145556000Y-70882000D02*
X145056000Y-70882000D01*
X145556000Y-68982000D02*
X145056000Y-68982000D01*
X145056000Y-68982000D02*
X145056000Y-68782000D01*
X145056000Y-68782000D02*
X145556000Y-68782000D01*
X145556000Y-68882000D02*
X145056000Y-68882000D01*
X145556000Y-66982000D02*
X145056000Y-66982000D01*
X145056000Y-66982000D02*
X145056000Y-66782000D01*
X145056000Y-66782000D02*
X145556000Y-66782000D01*
X145556000Y-66882000D02*
X145056000Y-66882000D01*
X141146000Y-72992000D02*
X141146000Y-74242000D01*
X141146000Y-74242000D02*
X142396000Y-74242000D01*
%TO.C,J7*%
X194087500Y-74450000D02*
X198807500Y-74450000D01*
X198807500Y-74450000D02*
X198807500Y-64330000D01*
X198807500Y-64330000D02*
X194087500Y-64330000D01*
X194087500Y-64330000D02*
X194087500Y-74450000D01*
X194087500Y-72690000D02*
X193887500Y-72690000D01*
X193887500Y-72690000D02*
X193887500Y-72990000D01*
X193887500Y-72990000D02*
X194087500Y-72990000D01*
X193987500Y-72690000D02*
X193987500Y-72990000D01*
X194087500Y-71890000D02*
X194697500Y-71890000D01*
X194697500Y-71890000D02*
X194697500Y-73840000D01*
X194697500Y-73840000D02*
X198197500Y-73840000D01*
X198197500Y-73840000D02*
X198197500Y-64940000D01*
X198197500Y-64940000D02*
X194697500Y-64940000D01*
X194697500Y-64940000D02*
X194697500Y-66890000D01*
X194697500Y-66890000D02*
X194087500Y-66890000D01*
X195397500Y-74450000D02*
X195397500Y-73840000D01*
X196697500Y-74450000D02*
X196697500Y-73840000D01*
X195397500Y-64330000D02*
X195397500Y-64940000D01*
X196697500Y-64330000D02*
X196697500Y-64940000D01*
X198197500Y-71490000D02*
X197697500Y-71490000D01*
X197697500Y-71490000D02*
X197697500Y-71290000D01*
X197697500Y-71290000D02*
X198197500Y-71290000D01*
X198197500Y-71390000D02*
X197697500Y-71390000D01*
X198197500Y-69490000D02*
X197697500Y-69490000D01*
X197697500Y-69490000D02*
X197697500Y-69290000D01*
X197697500Y-69290000D02*
X198197500Y-69290000D01*
X198197500Y-69390000D02*
X197697500Y-69390000D01*
X198197500Y-67490000D02*
X197697500Y-67490000D01*
X197697500Y-67490000D02*
X197697500Y-67290000D01*
X197697500Y-67290000D02*
X198197500Y-67290000D01*
X198197500Y-67390000D02*
X197697500Y-67390000D01*
X193787500Y-73500000D02*
X193787500Y-74750000D01*
X193787500Y-74750000D02*
X195037500Y-74750000D01*
%TO.C,J6*%
X141954000Y-98516500D02*
X146674000Y-98516500D01*
X146674000Y-98516500D02*
X146674000Y-88396500D01*
X146674000Y-88396500D02*
X141954000Y-88396500D01*
X141954000Y-88396500D02*
X141954000Y-98516500D01*
X141954000Y-96756500D02*
X141754000Y-96756500D01*
X141754000Y-96756500D02*
X141754000Y-97056500D01*
X141754000Y-97056500D02*
X141954000Y-97056500D01*
X141854000Y-96756500D02*
X141854000Y-97056500D01*
X141954000Y-95956500D02*
X142564000Y-95956500D01*
X142564000Y-95956500D02*
X142564000Y-97906500D01*
X142564000Y-97906500D02*
X146064000Y-97906500D01*
X146064000Y-97906500D02*
X146064000Y-89006500D01*
X146064000Y-89006500D02*
X142564000Y-89006500D01*
X142564000Y-89006500D02*
X142564000Y-90956500D01*
X142564000Y-90956500D02*
X141954000Y-90956500D01*
X143264000Y-98516500D02*
X143264000Y-97906500D01*
X144564000Y-98516500D02*
X144564000Y-97906500D01*
X143264000Y-88396500D02*
X143264000Y-89006500D01*
X144564000Y-88396500D02*
X144564000Y-89006500D01*
X146064000Y-95556500D02*
X145564000Y-95556500D01*
X145564000Y-95556500D02*
X145564000Y-95356500D01*
X145564000Y-95356500D02*
X146064000Y-95356500D01*
X146064000Y-95456500D02*
X145564000Y-95456500D01*
X146064000Y-93556500D02*
X145564000Y-93556500D01*
X145564000Y-93556500D02*
X145564000Y-93356500D01*
X145564000Y-93356500D02*
X146064000Y-93356500D01*
X146064000Y-93456500D02*
X145564000Y-93456500D01*
X146064000Y-91556500D02*
X145564000Y-91556500D01*
X145564000Y-91556500D02*
X145564000Y-91356500D01*
X145564000Y-91356500D02*
X146064000Y-91356500D01*
X146064000Y-91456500D02*
X145564000Y-91456500D01*
X141654000Y-97566500D02*
X141654000Y-98816500D01*
X141654000Y-98816500D02*
X142904000Y-98816500D01*
%TO.C,J5*%
X193897000Y-98135500D02*
X198617000Y-98135500D01*
X198617000Y-98135500D02*
X198617000Y-88015500D01*
X198617000Y-88015500D02*
X193897000Y-88015500D01*
X193897000Y-88015500D02*
X193897000Y-98135500D01*
X193897000Y-96375500D02*
X193697000Y-96375500D01*
X193697000Y-96375500D02*
X193697000Y-96675500D01*
X193697000Y-96675500D02*
X193897000Y-96675500D01*
X193797000Y-96375500D02*
X193797000Y-96675500D01*
X193897000Y-95575500D02*
X194507000Y-95575500D01*
X194507000Y-95575500D02*
X194507000Y-97525500D01*
X194507000Y-97525500D02*
X198007000Y-97525500D01*
X198007000Y-97525500D02*
X198007000Y-88625500D01*
X198007000Y-88625500D02*
X194507000Y-88625500D01*
X194507000Y-88625500D02*
X194507000Y-90575500D01*
X194507000Y-90575500D02*
X193897000Y-90575500D01*
X195207000Y-98135500D02*
X195207000Y-97525500D01*
X196507000Y-98135500D02*
X196507000Y-97525500D01*
X195207000Y-88015500D02*
X195207000Y-88625500D01*
X196507000Y-88015500D02*
X196507000Y-88625500D01*
X198007000Y-95175500D02*
X197507000Y-95175500D01*
X197507000Y-95175500D02*
X197507000Y-94975500D01*
X197507000Y-94975500D02*
X198007000Y-94975500D01*
X198007000Y-95075500D02*
X197507000Y-95075500D01*
X198007000Y-93175500D02*
X197507000Y-93175500D01*
X197507000Y-93175500D02*
X197507000Y-92975500D01*
X197507000Y-92975500D02*
X198007000Y-92975500D01*
X198007000Y-93075500D02*
X197507000Y-93075500D01*
X198007000Y-91175500D02*
X197507000Y-91175500D01*
X197507000Y-91175500D02*
X197507000Y-90975500D01*
X197507000Y-90975500D02*
X198007000Y-90975500D01*
X198007000Y-91075500D02*
X197507000Y-91075500D01*
X193597000Y-97185500D02*
X193597000Y-98435500D01*
X193597000Y-98435500D02*
X194847000Y-98435500D01*
%TO.C,J3*%
X118266000Y-121552000D02*
X117986000Y-121552000D01*
X117986000Y-121552000D02*
X117986000Y-119952000D01*
X117986000Y-119952000D02*
X117066000Y-119952000D01*
X117066000Y-119952000D02*
X117066000Y-127772000D01*
X117066000Y-127772000D02*
X123186000Y-127772000D01*
X123186000Y-127772000D02*
X123186000Y-119952000D01*
X123186000Y-119952000D02*
X122266000Y-119952000D01*
X122266000Y-119952000D02*
X122266000Y-121552000D01*
X122266000Y-121552000D02*
X121986000Y-121552000D01*
X119626000Y-127772000D02*
X119626000Y-123412000D01*
X119626000Y-123412000D02*
X120626000Y-123412000D01*
X120626000Y-123412000D02*
X120626000Y-127772000D01*
X117066000Y-121552000D02*
X117986000Y-121552000D01*
X123186000Y-121552000D02*
X122266000Y-121552000D01*
X117826000Y-123912000D02*
X117826000Y-125512000D01*
X117826000Y-125512000D02*
X118826000Y-125512000D01*
X118826000Y-125512000D02*
X118826000Y-123912000D01*
X118826000Y-123912000D02*
X117826000Y-123912000D01*
X122426000Y-123912000D02*
X122426000Y-125512000D01*
X122426000Y-125512000D02*
X121426000Y-125512000D01*
X121426000Y-125512000D02*
X121426000Y-123912000D01*
X121426000Y-123912000D02*
X122426000Y-123912000D01*
X118826000Y-125512000D02*
X118826000Y-127772000D01*
X118326000Y-125512000D02*
X118326000Y-127772000D01*
X118266000Y-121552000D02*
X118266000Y-120337000D01*
%TO.C,D1*%
X112549000Y-113880900D02*
X112549000Y-116165900D01*
X112549000Y-116165900D02*
X114019000Y-116165900D01*
X114019000Y-116165900D02*
X114019000Y-113880900D01*
%TO.C,C12*%
X122199980Y-107063000D02*
X121918820Y-107063000D01*
X122199980Y-106043000D02*
X121918820Y-106043000D01*
%TO.C,C10*%
X117423020Y-106195400D02*
X117704180Y-106195400D01*
X117423020Y-107215400D02*
X117704180Y-107215400D01*
%TO.C,C9*%
X116273252Y-117790900D02*
X115750748Y-117790900D01*
X116273252Y-116320900D02*
X115750748Y-116320900D01*
%TO.C,C8*%
X119483600Y-115924420D02*
X119483600Y-116205580D01*
X118463600Y-115924420D02*
X118463600Y-116205580D01*
%TO.C,C7*%
X124360000Y-121104252D02*
X124360000Y-120581748D01*
X125830000Y-121104252D02*
X125830000Y-120581748D01*
%TO.C,C6*%
X138364500Y-98298580D02*
X138364500Y-98017420D01*
X139384500Y-98298580D02*
X139384500Y-98017420D01*
%TO.C,C4*%
X116168080Y-112358900D02*
X115886920Y-112358900D01*
X116168080Y-111338900D02*
X115886920Y-111338900D01*
%TO.C,C3*%
X133348000Y-98388080D02*
X133348000Y-98106920D01*
X134368000Y-98388080D02*
X134368000Y-98106920D01*
%TO.C,C2*%
X116168080Y-113882900D02*
X115886920Y-113882900D01*
X116168080Y-112862900D02*
X115886920Y-112862900D01*
%TO.C,C1*%
X205586420Y-106551000D02*
X205867580Y-106551000D01*
X205586420Y-107571000D02*
X205867580Y-107571000D01*
D12*
%TO.C,BT1*%
X177434800Y-116812400D02*
X177434800Y-110007400D01*
X177434800Y-110007400D02*
X204734800Y-110007400D01*
X204734800Y-110007400D02*
X204734800Y-116812400D01*
X204734800Y-122252400D02*
X204734800Y-129057400D01*
X204734800Y-129057400D02*
X177434800Y-129057400D01*
X177434800Y-129057400D02*
X177434800Y-122252400D01*
D14*
X172909800Y-119532400D02*
G75*
G03*
X172909800Y-119532400I-200000J0D01*
G01*
D11*
%TO.C,U4*%
X164719000Y-82931000D02*
X164719000Y-103251000D01*
X147447000Y-82931000D02*
X164719000Y-82931000D01*
X147447000Y-103251000D02*
X147447000Y-82931000D01*
X164719000Y-103251000D02*
X147447000Y-103251000D01*
%TO.C,U5*%
X217106500Y-79375000D02*
X199834500Y-79375000D01*
X199834500Y-79375000D02*
X199834500Y-59055000D01*
X199834500Y-59055000D02*
X217106500Y-59055000D01*
X217106500Y-59055000D02*
X217106500Y-79375000D01*
%TO.C,U6*%
X164465000Y-79248000D02*
X147193000Y-79248000D01*
X147193000Y-79248000D02*
X147193000Y-58928000D01*
X147193000Y-58928000D02*
X164465000Y-58928000D01*
X164465000Y-58928000D02*
X164465000Y-79248000D01*
%TO.C,U7*%
X190754000Y-83185000D02*
X190754000Y-103505000D01*
X173482000Y-83185000D02*
X190754000Y-83185000D01*
X173482000Y-103505000D02*
X173482000Y-83185000D01*
X190754000Y-103505000D02*
X173482000Y-103505000D01*
%TO.C,U8*%
X190627000Y-79629000D02*
X173355000Y-79629000D01*
X173355000Y-79629000D02*
X173355000Y-59309000D01*
X173355000Y-59309000D02*
X190627000Y-59309000D01*
X190627000Y-59309000D02*
X190627000Y-79629000D01*
D12*
%TO.C,J2*%
X127326000Y-128117500D02*
X127326000Y-113817500D01*
X127326000Y-113817500D02*
X129526000Y-113817500D01*
X134126000Y-113817500D02*
X136326000Y-113817500D01*
X136326000Y-113817500D02*
X136326000Y-114717500D01*
X136326000Y-119517500D02*
X136326000Y-128117500D01*
X136326000Y-128117500D02*
X127326000Y-128117500D01*
%TO.C,BZ1*%
D10*
X144462571Y-123435952D02*
X144510190Y-123293095D01*
X144557809Y-123245476D01*
X144653047Y-123197857D01*
X144795904Y-123197857D01*
X144891142Y-123245476D01*
X144938761Y-123293095D01*
X144986380Y-123388333D01*
X144986380Y-123769285D01*
X143986380Y-123769285D01*
X143986380Y-123435952D01*
X144034000Y-123340714D01*
X144081619Y-123293095D01*
X144176857Y-123245476D01*
X144272095Y-123245476D01*
X144367333Y-123293095D01*
X144414952Y-123340714D01*
X144462571Y-123435952D01*
X144462571Y-123769285D01*
X143986380Y-122864523D02*
X143986380Y-122197857D01*
X144986380Y-122864523D01*
X144986380Y-122197857D01*
X144986380Y-121293095D02*
X144986380Y-121864523D01*
X144986380Y-121578809D02*
X143986380Y-121578809D01*
X144129238Y-121674047D01*
X144224476Y-121769285D01*
X144272095Y-121864523D01*
%TO.C,R6*%
X131242233Y-113371980D02*
X130908900Y-112895790D01*
X130670804Y-113371980D02*
X130670804Y-112371980D01*
X131051757Y-112371980D01*
X131146995Y-112419600D01*
X131194614Y-112467219D01*
X131242233Y-112562457D01*
X131242233Y-112705314D01*
X131194614Y-112800552D01*
X131146995Y-112848171D01*
X131051757Y-112895790D01*
X130670804Y-112895790D01*
X132099376Y-112371980D02*
X131908900Y-112371980D01*
X131813661Y-112419600D01*
X131766042Y-112467219D01*
X131670804Y-112610076D01*
X131623185Y-112800552D01*
X131623185Y-113181504D01*
X131670804Y-113276742D01*
X131718423Y-113324361D01*
X131813661Y-113371980D01*
X132004138Y-113371980D01*
X132099376Y-113324361D01*
X132146995Y-113276742D01*
X132194614Y-113181504D01*
X132194614Y-112943409D01*
X132146995Y-112848171D01*
X132099376Y-112800552D01*
X132004138Y-112752933D01*
X131813661Y-112752933D01*
X131718423Y-112800552D01*
X131670804Y-112848171D01*
X131623185Y-112943409D01*
%TO.C,L1*%
X117851180Y-110965466D02*
X117851180Y-111441657D01*
X116851180Y-111441657D01*
X117851180Y-110108323D02*
X117851180Y-110679752D01*
X117851180Y-110394038D02*
X116851180Y-110394038D01*
X116994038Y-110489276D01*
X117089276Y-110584514D01*
X117136895Y-110679752D01*
%TO.C,VR1*%
D15*
X121334123Y-117126095D02*
X121974123Y-116912761D01*
X121334123Y-116699428D01*
X121974123Y-116120380D02*
X121669361Y-116333714D01*
X121974123Y-116486095D02*
X121334123Y-116486095D01*
X121334123Y-116242285D01*
X121364600Y-116181333D01*
X121395076Y-116150857D01*
X121456028Y-116120380D01*
X121547457Y-116120380D01*
X121608409Y-116150857D01*
X121638885Y-116181333D01*
X121669361Y-116242285D01*
X121669361Y-116486095D01*
X121974123Y-115510857D02*
X121974123Y-115876571D01*
X121974123Y-115693714D02*
X121334123Y-115693714D01*
X121425552Y-115754666D01*
X121486504Y-115815619D01*
X121516980Y-115876571D01*
%TO.C,H4*%
D10*
X112395095Y-120712380D02*
X112395095Y-119712380D01*
X112395095Y-120188571D02*
X112966523Y-120188571D01*
X112966523Y-120712380D02*
X112966523Y-119712380D01*
X113871285Y-120045714D02*
X113871285Y-120712380D01*
X113633190Y-119664761D02*
X113395095Y-120379047D01*
X114014142Y-120379047D01*
%TO.C,H3*%
X214579295Y-120204380D02*
X214579295Y-119204380D01*
X214579295Y-119680571D02*
X215150723Y-119680571D01*
X215150723Y-120204380D02*
X215150723Y-119204380D01*
X215531676Y-119204380D02*
X216150723Y-119204380D01*
X215817390Y-119585333D01*
X215960247Y-119585333D01*
X216055485Y-119632952D01*
X216103104Y-119680571D01*
X216150723Y-119775809D01*
X216150723Y-120013904D01*
X216103104Y-120109142D01*
X216055485Y-120156761D01*
X215960247Y-120204380D01*
X215674533Y-120204380D01*
X215579295Y-120156761D01*
X215531676Y-120109142D01*
%TO.C,H1*%
X207670495Y-60514380D02*
X207670495Y-59514380D01*
X207670495Y-59990571D02*
X208241923Y-59990571D01*
X208241923Y-60514380D02*
X208241923Y-59514380D01*
X209241923Y-60514380D02*
X208670495Y-60514380D01*
X208956209Y-60514380D02*
X208956209Y-59514380D01*
X208860971Y-59657238D01*
X208765733Y-59752476D01*
X208670495Y-59800095D01*
%TO.C,J2*%
D15*
X125561170Y-125710833D02*
X126275456Y-125710833D01*
X126418313Y-125758452D01*
X126513551Y-125853690D01*
X126561170Y-125996547D01*
X126561170Y-126091785D01*
X125656409Y-125282261D02*
X125608790Y-125234642D01*
X125561170Y-125139404D01*
X125561170Y-124901309D01*
X125608790Y-124806071D01*
X125656409Y-124758452D01*
X125751647Y-124710833D01*
X125846885Y-124710833D01*
X125989742Y-124758452D01*
X126561170Y-125329880D01*
X126561170Y-124710833D01*
%TD*%
M02*
