%TF.GenerationSoftware,KiCad,Pcbnew,(5.1.9-0-10_14)*%
%TF.CreationDate,2021-07-17T11:43:53+08:00*%
%TF.ProjectId,Motor_clock,4d6f746f-725f-4636-9c6f-636b2e6b6963,rev?*%
%TF.SameCoordinates,Original*%
%TF.FileFunction,Legend,Top*%
%TF.FilePolarity,Positive*%
%FSLAX46Y46*%
G04 Gerber Fmt 4.6, Leading zero omitted, Abs format (unit mm)*
G04 Created by KiCad (PCBNEW (5.1.9-0-10_14)) date 2021-07-17 11:43:53*
%MOMM*%
%LPD*%
G01*
G04 APERTURE LIST*
%ADD10C,0.150000*%
%ADD11C,0.120000*%
%ADD12C,0.200000*%
%ADD13C,0.127000*%
%ADD14C,0.100000*%
%ADD15C,0.400000*%
%ADD16C,0.015000*%
G04 APERTURE END LIST*
D10*
X166700295Y-122385200D02*
X166605057Y-122337580D01*
X166462200Y-122337580D01*
X166319342Y-122385200D01*
X166224104Y-122480438D01*
X166176485Y-122575676D01*
X166128866Y-122766152D01*
X166128866Y-122909009D01*
X166176485Y-123099485D01*
X166224104Y-123194723D01*
X166319342Y-123289961D01*
X166462200Y-123337580D01*
X166557438Y-123337580D01*
X166700295Y-123289961D01*
X166747914Y-123242342D01*
X166747914Y-122909009D01*
X166557438Y-122909009D01*
X167176485Y-123337580D02*
X167176485Y-122337580D01*
X167747914Y-123337580D01*
X167747914Y-122337580D01*
X168224104Y-123337580D02*
X168224104Y-122337580D01*
X168462200Y-122337580D01*
X168605057Y-122385200D01*
X168700295Y-122480438D01*
X168747914Y-122575676D01*
X168795533Y-122766152D01*
X168795533Y-122909009D01*
X168747914Y-123099485D01*
X168700295Y-123194723D01*
X168605057Y-123289961D01*
X168462200Y-123337580D01*
X168224104Y-123337580D01*
X162729990Y-127579380D02*
X162729990Y-126579380D01*
X162968085Y-126579380D01*
X163110942Y-126627000D01*
X163206180Y-126722238D01*
X163253800Y-126817476D01*
X163301419Y-127007952D01*
X163301419Y-127150809D01*
X163253800Y-127341285D01*
X163206180Y-127436523D01*
X163110942Y-127531761D01*
X162968085Y-127579380D01*
X162729990Y-127579380D01*
X163729990Y-127579380D02*
X163729990Y-126579380D01*
X164206180Y-127579380D02*
X164206180Y-126579380D01*
X164777609Y-127579380D01*
X164777609Y-126579380D01*
X161099523Y-121372380D02*
X160623333Y-121372380D01*
X160575714Y-121848571D01*
X160623333Y-121800952D01*
X160718571Y-121753333D01*
X160956666Y-121753333D01*
X161051904Y-121800952D01*
X161099523Y-121848571D01*
X161147142Y-121943809D01*
X161147142Y-122181904D01*
X161099523Y-122277142D01*
X161051904Y-122324761D01*
X160956666Y-122372380D01*
X160718571Y-122372380D01*
X160623333Y-122324761D01*
X160575714Y-122277142D01*
X161432857Y-121372380D02*
X161766190Y-122372380D01*
X162099523Y-121372380D01*
X133858095Y-118880000D02*
X133762857Y-118832380D01*
X133620000Y-118832380D01*
X133477142Y-118880000D01*
X133381904Y-118975238D01*
X133334285Y-119070476D01*
X133286666Y-119260952D01*
X133286666Y-119403809D01*
X133334285Y-119594285D01*
X133381904Y-119689523D01*
X133477142Y-119784761D01*
X133620000Y-119832380D01*
X133715238Y-119832380D01*
X133858095Y-119784761D01*
X133905714Y-119737142D01*
X133905714Y-119403809D01*
X133715238Y-119403809D01*
X134334285Y-119832380D02*
X134334285Y-118832380D01*
X134905714Y-119832380D01*
X134905714Y-118832380D01*
X135381904Y-119832380D02*
X135381904Y-118832380D01*
X135620000Y-118832380D01*
X135762857Y-118880000D01*
X135858095Y-118975238D01*
X135905714Y-119070476D01*
X135953333Y-119260952D01*
X135953333Y-119403809D01*
X135905714Y-119594285D01*
X135858095Y-119689523D01*
X135762857Y-119784761D01*
X135620000Y-119832380D01*
X135381904Y-119832380D01*
X130190952Y-119832380D02*
X129619523Y-119832380D01*
X129905238Y-119832380D02*
X129905238Y-118832380D01*
X129810000Y-118975238D01*
X129714761Y-119070476D01*
X129619523Y-119118095D01*
X130571904Y-118927619D02*
X130619523Y-118880000D01*
X130714761Y-118832380D01*
X130952857Y-118832380D01*
X131048095Y-118880000D01*
X131095714Y-118927619D01*
X131143333Y-119022857D01*
X131143333Y-119118095D01*
X131095714Y-119260952D01*
X130524285Y-119832380D01*
X131143333Y-119832380D01*
X131429047Y-118832380D02*
X131762380Y-119832380D01*
X132095714Y-118832380D01*
X136398095Y-76970000D02*
X136302857Y-76922380D01*
X136160000Y-76922380D01*
X136017142Y-76970000D01*
X135921904Y-77065238D01*
X135874285Y-77160476D01*
X135826666Y-77350952D01*
X135826666Y-77493809D01*
X135874285Y-77684285D01*
X135921904Y-77779523D01*
X136017142Y-77874761D01*
X136160000Y-77922380D01*
X136255238Y-77922380D01*
X136398095Y-77874761D01*
X136445714Y-77827142D01*
X136445714Y-77493809D01*
X136255238Y-77493809D01*
X136874285Y-77922380D02*
X136874285Y-76922380D01*
X137445714Y-77922380D01*
X137445714Y-76922380D01*
X137921904Y-77922380D02*
X137921904Y-76922380D01*
X138160000Y-76922380D01*
X138302857Y-76970000D01*
X138398095Y-77065238D01*
X138445714Y-77160476D01*
X138493333Y-77350952D01*
X138493333Y-77493809D01*
X138445714Y-77684285D01*
X138398095Y-77779523D01*
X138302857Y-77874761D01*
X138160000Y-77922380D01*
X137921904Y-77922380D01*
X126817619Y-77922380D02*
X126484285Y-77446190D01*
X126246190Y-77922380D02*
X126246190Y-76922380D01*
X126627142Y-76922380D01*
X126722380Y-76970000D01*
X126770000Y-77017619D01*
X126817619Y-77112857D01*
X126817619Y-77255714D01*
X126770000Y-77350952D01*
X126722380Y-77398571D01*
X126627142Y-77446190D01*
X126246190Y-77446190D01*
X127246190Y-77398571D02*
X127579523Y-77398571D01*
X127722380Y-77922380D02*
X127246190Y-77922380D01*
X127246190Y-76922380D01*
X127722380Y-76922380D01*
X128103333Y-77874761D02*
X128246190Y-77922380D01*
X128484285Y-77922380D01*
X128579523Y-77874761D01*
X128627142Y-77827142D01*
X128674761Y-77731904D01*
X128674761Y-77636666D01*
X128627142Y-77541428D01*
X128579523Y-77493809D01*
X128484285Y-77446190D01*
X128293809Y-77398571D01*
X128198571Y-77350952D01*
X128150952Y-77303333D01*
X128103333Y-77208095D01*
X128103333Y-77112857D01*
X128150952Y-77017619D01*
X128198571Y-76970000D01*
X128293809Y-76922380D01*
X128531904Y-76922380D01*
X128674761Y-76970000D01*
X129103333Y-77398571D02*
X129436666Y-77398571D01*
X129579523Y-77922380D02*
X129103333Y-77922380D01*
X129103333Y-76922380D01*
X129579523Y-76922380D01*
X129865238Y-76922380D02*
X130436666Y-76922380D01*
X130150952Y-77922380D02*
X130150952Y-76922380D01*
X126984285Y-75334761D02*
X127127142Y-75382380D01*
X127365238Y-75382380D01*
X127460476Y-75334761D01*
X127508095Y-75287142D01*
X127555714Y-75191904D01*
X127555714Y-75096666D01*
X127508095Y-75001428D01*
X127460476Y-74953809D01*
X127365238Y-74906190D01*
X127174761Y-74858571D01*
X127079523Y-74810952D01*
X127031904Y-74763333D01*
X126984285Y-74668095D01*
X126984285Y-74572857D01*
X127031904Y-74477619D01*
X127079523Y-74430000D01*
X127174761Y-74382380D01*
X127412857Y-74382380D01*
X127555714Y-74430000D01*
X128555714Y-75287142D02*
X128508095Y-75334761D01*
X128365238Y-75382380D01*
X128270000Y-75382380D01*
X128127142Y-75334761D01*
X128031904Y-75239523D01*
X127984285Y-75144285D01*
X127936666Y-74953809D01*
X127936666Y-74810952D01*
X127984285Y-74620476D01*
X128031904Y-74525238D01*
X128127142Y-74430000D01*
X128270000Y-74382380D01*
X128365238Y-74382380D01*
X128508095Y-74430000D01*
X128555714Y-74477619D01*
X128984285Y-75382380D02*
X128984285Y-74382380D01*
X129555714Y-75382380D02*
X129127142Y-74810952D01*
X129555714Y-74382380D02*
X128984285Y-74953809D01*
X135588571Y-75382380D02*
X135588571Y-74382380D01*
X135921904Y-75096666D01*
X136255238Y-74382380D01*
X136255238Y-75382380D01*
X136921904Y-74382380D02*
X137112380Y-74382380D01*
X137207619Y-74430000D01*
X137302857Y-74525238D01*
X137350476Y-74715714D01*
X137350476Y-75049047D01*
X137302857Y-75239523D01*
X137207619Y-75334761D01*
X137112380Y-75382380D01*
X136921904Y-75382380D01*
X136826666Y-75334761D01*
X136731428Y-75239523D01*
X136683809Y-75049047D01*
X136683809Y-74715714D01*
X136731428Y-74525238D01*
X136826666Y-74430000D01*
X136921904Y-74382380D01*
X137731428Y-75334761D02*
X137874285Y-75382380D01*
X138112380Y-75382380D01*
X138207619Y-75334761D01*
X138255238Y-75287142D01*
X138302857Y-75191904D01*
X138302857Y-75096666D01*
X138255238Y-75001428D01*
X138207619Y-74953809D01*
X138112380Y-74906190D01*
X137921904Y-74858571D01*
X137826666Y-74810952D01*
X137779047Y-74763333D01*
X137731428Y-74668095D01*
X137731428Y-74572857D01*
X137779047Y-74477619D01*
X137826666Y-74430000D01*
X137921904Y-74382380D01*
X138160000Y-74382380D01*
X138302857Y-74430000D01*
X138731428Y-75382380D02*
X138731428Y-74382380D01*
X134429523Y-69302380D02*
X133953333Y-69302380D01*
X133905714Y-69778571D01*
X133953333Y-69730952D01*
X134048571Y-69683333D01*
X134286666Y-69683333D01*
X134381904Y-69730952D01*
X134429523Y-69778571D01*
X134477142Y-69873809D01*
X134477142Y-70111904D01*
X134429523Y-70207142D01*
X134381904Y-70254761D01*
X134286666Y-70302380D01*
X134048571Y-70302380D01*
X133953333Y-70254761D01*
X133905714Y-70207142D01*
X134762857Y-69302380D02*
X135096190Y-70302380D01*
X135429523Y-69302380D01*
X129238571Y-70302380D02*
X129238571Y-69302380D01*
X129571904Y-70016666D01*
X129905238Y-69302380D01*
X129905238Y-70302380D01*
X130381428Y-70302380D02*
X130381428Y-69302380D01*
X130810000Y-70254761D02*
X130952857Y-70302380D01*
X131190952Y-70302380D01*
X131286190Y-70254761D01*
X131333809Y-70207142D01*
X131381428Y-70111904D01*
X131381428Y-70016666D01*
X131333809Y-69921428D01*
X131286190Y-69873809D01*
X131190952Y-69826190D01*
X131000476Y-69778571D01*
X130905238Y-69730952D01*
X130857619Y-69683333D01*
X130810000Y-69588095D01*
X130810000Y-69492857D01*
X130857619Y-69397619D01*
X130905238Y-69350000D01*
X131000476Y-69302380D01*
X131238571Y-69302380D01*
X131381428Y-69350000D01*
X132000476Y-69302380D02*
X132190952Y-69302380D01*
X132286190Y-69350000D01*
X132381428Y-69445238D01*
X132429047Y-69635714D01*
X132429047Y-69969047D01*
X132381428Y-70159523D01*
X132286190Y-70254761D01*
X132190952Y-70302380D01*
X132000476Y-70302380D01*
X131905238Y-70254761D01*
X131810000Y-70159523D01*
X131762380Y-69969047D01*
X131762380Y-69635714D01*
X131810000Y-69445238D01*
X131905238Y-69350000D01*
X132000476Y-69302380D01*
X151495238Y-78192380D02*
X151828571Y-79192380D01*
X152161904Y-78192380D01*
X152495238Y-79192380D02*
X152495238Y-78192380D01*
X152828571Y-78906666D01*
X153161904Y-78192380D01*
X153161904Y-79192380D01*
X149098095Y-57920000D02*
X149002857Y-57872380D01*
X148860000Y-57872380D01*
X148717142Y-57920000D01*
X148621904Y-58015238D01*
X148574285Y-58110476D01*
X148526666Y-58300952D01*
X148526666Y-58443809D01*
X148574285Y-58634285D01*
X148621904Y-58729523D01*
X148717142Y-58824761D01*
X148860000Y-58872380D01*
X148955238Y-58872380D01*
X149098095Y-58824761D01*
X149145714Y-58777142D01*
X149145714Y-58443809D01*
X148955238Y-58443809D01*
X149574285Y-58872380D02*
X149574285Y-57872380D01*
X150145714Y-58872380D01*
X150145714Y-57872380D01*
X150621904Y-58872380D02*
X150621904Y-57872380D01*
X150860000Y-57872380D01*
X151002857Y-57920000D01*
X151098095Y-58015238D01*
X151145714Y-58110476D01*
X151193333Y-58300952D01*
X151193333Y-58443809D01*
X151145714Y-58634285D01*
X151098095Y-58729523D01*
X151002857Y-58824761D01*
X150860000Y-58872380D01*
X150621904Y-58872380D01*
D11*
%TO.C,R5*%
X125795300Y-88904542D02*
X125795300Y-89379058D01*
X124750300Y-88904542D02*
X124750300Y-89379058D01*
%TO.C,R2*%
X124877300Y-84780658D02*
X124877300Y-84306142D01*
X125922300Y-84780658D02*
X125922300Y-84306142D01*
%TO.C,C5*%
X126528500Y-113135248D02*
X126528500Y-113657752D01*
X125058500Y-113135248D02*
X125058500Y-113657752D01*
%TO.C,Y2*%
X116548000Y-72465000D02*
X116548000Y-76465000D01*
X119848000Y-72465000D02*
X116548000Y-72465000D01*
%TO.C,R10*%
X118538258Y-67867000D02*
X118063742Y-67867000D01*
X118538258Y-68912000D02*
X118063742Y-68912000D01*
%TO.C,R9*%
X118538258Y-66279500D02*
X118063742Y-66279500D01*
X118538258Y-67324500D02*
X118063742Y-67324500D01*
%TO.C,D4*%
X113602500Y-69442000D02*
X115887500Y-69442000D01*
X113602500Y-67972000D02*
X113602500Y-69442000D01*
X115887500Y-67972000D02*
X113602500Y-67972000D01*
%TO.C,D3*%
X113742000Y-67791000D02*
X116027000Y-67791000D01*
X113742000Y-66321000D02*
X113742000Y-67791000D01*
X116027000Y-66321000D02*
X113742000Y-66321000D01*
%TO.C,C13*%
X118301080Y-77087000D02*
X118019920Y-77087000D01*
X118301080Y-78107000D02*
X118019920Y-78107000D01*
%TO.C,C11*%
X118390580Y-71054500D02*
X118109420Y-71054500D01*
X118390580Y-72074500D02*
X118109420Y-72074500D01*
%TO.C,D2*%
X134623000Y-68007500D02*
X134623000Y-64707500D01*
X134623000Y-64707500D02*
X129223000Y-64707500D01*
X134623000Y-68007500D02*
X129223000Y-68007500D01*
%TO.C,Y1*%
X134709000Y-96150500D02*
X134709000Y-100150500D01*
X138009000Y-96150500D02*
X134709000Y-96150500D01*
D12*
%TO.C,VR1*%
X136634000Y-117574000D02*
G75*
G03*
X136634000Y-117574000I-100000J0D01*
G01*
D13*
X139299000Y-115974000D02*
X139299000Y-114374000D01*
X136169000Y-115974000D02*
X136169000Y-114374000D01*
D11*
%TO.C,U9*%
X123826500Y-64663000D02*
X120376500Y-64663000D01*
X123826500Y-64663000D02*
X125776500Y-64663000D01*
X123826500Y-74783000D02*
X121876500Y-74783000D01*
X123826500Y-74783000D02*
X125776500Y-74783000D01*
D10*
%TO.C,U2*%
X128362500Y-94239500D02*
X128362500Y-95664500D01*
X128137500Y-86989500D02*
X128137500Y-87314500D01*
X135387500Y-86989500D02*
X135387500Y-87314500D01*
X135387500Y-94239500D02*
X135387500Y-93914500D01*
X128137500Y-94239500D02*
X128137500Y-93914500D01*
X135387500Y-94239500D02*
X135062500Y-94239500D01*
X135387500Y-86989500D02*
X135062500Y-86989500D01*
X128137500Y-86989500D02*
X128462500Y-86989500D01*
X128137500Y-94239500D02*
X128362500Y-94239500D01*
D11*
%TO.C,U1*%
X113918000Y-87197000D02*
X112103000Y-87197000D01*
X113918000Y-86942000D02*
X113918000Y-87197000D01*
X117778000Y-86942000D02*
X113918000Y-86942000D01*
X121638000Y-86942000D02*
X121638000Y-87197000D01*
X117778000Y-86942000D02*
X121638000Y-86942000D01*
X113918000Y-97462000D02*
X113918000Y-97207000D01*
X117778000Y-97462000D02*
X113918000Y-97462000D01*
X121638000Y-97462000D02*
X121638000Y-97207000D01*
X117778000Y-97462000D02*
X121638000Y-97462000D01*
%TO.C,SW2*%
X115223000Y-111588500D02*
X121683000Y-111588500D01*
X115223000Y-107058500D02*
X115223000Y-109658500D01*
X115223000Y-105128500D02*
X121683000Y-105128500D01*
X121683000Y-107058500D02*
X121683000Y-109658500D01*
X115223000Y-105158500D02*
X115223000Y-105128500D01*
X115223000Y-111588500D02*
X115223000Y-111558500D01*
X121683000Y-111588500D02*
X121683000Y-111558500D01*
X121683000Y-105128500D02*
X121683000Y-105158500D01*
%TO.C,SW1*%
X121492500Y-97762500D02*
X115032500Y-97762500D01*
X121492500Y-102292500D02*
X121492500Y-99692500D01*
X121492500Y-104222500D02*
X115032500Y-104222500D01*
X115032500Y-102292500D02*
X115032500Y-99692500D01*
X121492500Y-104192500D02*
X121492500Y-104222500D01*
X121492500Y-97762500D02*
X121492500Y-97792500D01*
X115032500Y-97762500D02*
X115032500Y-97792500D01*
X115032500Y-104222500D02*
X115032500Y-104192500D01*
%TO.C,R8*%
X130795500Y-112348742D02*
X130795500Y-112823258D01*
X131840500Y-112348742D02*
X131840500Y-112823258D01*
%TO.C,R7*%
X140257000Y-111332742D02*
X140257000Y-111807258D01*
X141302000Y-111332742D02*
X141302000Y-111807258D01*
%TO.C,R6*%
X137837500Y-110014936D02*
X137837500Y-111469064D01*
X139657500Y-110014936D02*
X139657500Y-111469064D01*
%TO.C,R4*%
X125744500Y-97518758D02*
X125744500Y-97044242D01*
X124699500Y-97518758D02*
X124699500Y-97044242D01*
%TO.C,R3*%
X125681000Y-93454758D02*
X125681000Y-92980242D01*
X124636000Y-93454758D02*
X124636000Y-92980242D01*
%TO.C,R1*%
X129843000Y-97298742D02*
X129843000Y-97773258D01*
X130888000Y-97298742D02*
X130888000Y-97773258D01*
%TO.C,L1*%
X135765000Y-110119279D02*
X135765000Y-109793721D01*
X134745000Y-110119279D02*
X134745000Y-109793721D01*
D14*
%TO.C,J11*%
X120395500Y-58449000D02*
X120395500Y-60749000D01*
X128295500Y-58449000D02*
X120395500Y-58449000D01*
X128295500Y-60749000D02*
X128295500Y-58449000D01*
X126409976Y-62537539D02*
X127409976Y-62537539D01*
X122295500Y-63599000D02*
X122295500Y-62549000D01*
X122295500Y-62549000D02*
X121295500Y-62549000D01*
D11*
%TO.C,J10*%
X167371500Y-75004000D02*
X168621500Y-75004000D01*
X167371500Y-73754000D02*
X167371500Y-75004000D01*
X171781500Y-67644000D02*
X171281500Y-67644000D01*
X171281500Y-67544000D02*
X171781500Y-67544000D01*
X171281500Y-67744000D02*
X171281500Y-67544000D01*
X171781500Y-67744000D02*
X171281500Y-67744000D01*
X171781500Y-69644000D02*
X171281500Y-69644000D01*
X171281500Y-69544000D02*
X171781500Y-69544000D01*
X171281500Y-69744000D02*
X171281500Y-69544000D01*
X171781500Y-69744000D02*
X171281500Y-69744000D01*
X171781500Y-71644000D02*
X171281500Y-71644000D01*
X171281500Y-71544000D02*
X171781500Y-71544000D01*
X171281500Y-71744000D02*
X171281500Y-71544000D01*
X171781500Y-71744000D02*
X171281500Y-71744000D01*
X170281500Y-64584000D02*
X170281500Y-65194000D01*
X168981500Y-64584000D02*
X168981500Y-65194000D01*
X170281500Y-74704000D02*
X170281500Y-74094000D01*
X168981500Y-74704000D02*
X168981500Y-74094000D01*
X168281500Y-67144000D02*
X167671500Y-67144000D01*
X168281500Y-65194000D02*
X168281500Y-67144000D01*
X171781500Y-65194000D02*
X168281500Y-65194000D01*
X171781500Y-74094000D02*
X171781500Y-65194000D01*
X168281500Y-74094000D02*
X171781500Y-74094000D01*
X168281500Y-72144000D02*
X168281500Y-74094000D01*
X167671500Y-72144000D02*
X168281500Y-72144000D01*
X167571500Y-72944000D02*
X167571500Y-73244000D01*
X167471500Y-73244000D02*
X167671500Y-73244000D01*
X167471500Y-72944000D02*
X167471500Y-73244000D01*
X167671500Y-72944000D02*
X167471500Y-72944000D01*
X167671500Y-64584000D02*
X167671500Y-74704000D01*
X172391500Y-64584000D02*
X167671500Y-64584000D01*
X172391500Y-74704000D02*
X172391500Y-64584000D01*
X167671500Y-74704000D02*
X172391500Y-74704000D01*
%TO.C,J9*%
X167689000Y-98753000D02*
X168939000Y-98753000D01*
X167689000Y-97503000D02*
X167689000Y-98753000D01*
X172099000Y-91393000D02*
X171599000Y-91393000D01*
X171599000Y-91293000D02*
X172099000Y-91293000D01*
X171599000Y-91493000D02*
X171599000Y-91293000D01*
X172099000Y-91493000D02*
X171599000Y-91493000D01*
X172099000Y-93393000D02*
X171599000Y-93393000D01*
X171599000Y-93293000D02*
X172099000Y-93293000D01*
X171599000Y-93493000D02*
X171599000Y-93293000D01*
X172099000Y-93493000D02*
X171599000Y-93493000D01*
X172099000Y-95393000D02*
X171599000Y-95393000D01*
X171599000Y-95293000D02*
X172099000Y-95293000D01*
X171599000Y-95493000D02*
X171599000Y-95293000D01*
X172099000Y-95493000D02*
X171599000Y-95493000D01*
X170599000Y-88333000D02*
X170599000Y-88943000D01*
X169299000Y-88333000D02*
X169299000Y-88943000D01*
X170599000Y-98453000D02*
X170599000Y-97843000D01*
X169299000Y-98453000D02*
X169299000Y-97843000D01*
X168599000Y-90893000D02*
X167989000Y-90893000D01*
X168599000Y-88943000D02*
X168599000Y-90893000D01*
X172099000Y-88943000D02*
X168599000Y-88943000D01*
X172099000Y-97843000D02*
X172099000Y-88943000D01*
X168599000Y-97843000D02*
X172099000Y-97843000D01*
X168599000Y-95893000D02*
X168599000Y-97843000D01*
X167989000Y-95893000D02*
X168599000Y-95893000D01*
X167889000Y-96693000D02*
X167889000Y-96993000D01*
X167789000Y-96993000D02*
X167989000Y-96993000D01*
X167789000Y-96693000D02*
X167789000Y-96993000D01*
X167989000Y-96693000D02*
X167789000Y-96693000D01*
X167989000Y-88333000D02*
X167989000Y-98453000D01*
X172709000Y-88333000D02*
X167989000Y-88333000D01*
X172709000Y-98453000D02*
X172709000Y-88333000D01*
X167989000Y-98453000D02*
X172709000Y-98453000D01*
%TO.C,J8*%
X141146000Y-74242000D02*
X142396000Y-74242000D01*
X141146000Y-72992000D02*
X141146000Y-74242000D01*
X145556000Y-66882000D02*
X145056000Y-66882000D01*
X145056000Y-66782000D02*
X145556000Y-66782000D01*
X145056000Y-66982000D02*
X145056000Y-66782000D01*
X145556000Y-66982000D02*
X145056000Y-66982000D01*
X145556000Y-68882000D02*
X145056000Y-68882000D01*
X145056000Y-68782000D02*
X145556000Y-68782000D01*
X145056000Y-68982000D02*
X145056000Y-68782000D01*
X145556000Y-68982000D02*
X145056000Y-68982000D01*
X145556000Y-70882000D02*
X145056000Y-70882000D01*
X145056000Y-70782000D02*
X145556000Y-70782000D01*
X145056000Y-70982000D02*
X145056000Y-70782000D01*
X145556000Y-70982000D02*
X145056000Y-70982000D01*
X144056000Y-63822000D02*
X144056000Y-64432000D01*
X142756000Y-63822000D02*
X142756000Y-64432000D01*
X144056000Y-73942000D02*
X144056000Y-73332000D01*
X142756000Y-73942000D02*
X142756000Y-73332000D01*
X142056000Y-66382000D02*
X141446000Y-66382000D01*
X142056000Y-64432000D02*
X142056000Y-66382000D01*
X145556000Y-64432000D02*
X142056000Y-64432000D01*
X145556000Y-73332000D02*
X145556000Y-64432000D01*
X142056000Y-73332000D02*
X145556000Y-73332000D01*
X142056000Y-71382000D02*
X142056000Y-73332000D01*
X141446000Y-71382000D02*
X142056000Y-71382000D01*
X141346000Y-72182000D02*
X141346000Y-72482000D01*
X141246000Y-72482000D02*
X141446000Y-72482000D01*
X141246000Y-72182000D02*
X141246000Y-72482000D01*
X141446000Y-72182000D02*
X141246000Y-72182000D01*
X141446000Y-63822000D02*
X141446000Y-73942000D01*
X146166000Y-63822000D02*
X141446000Y-63822000D01*
X146166000Y-73942000D02*
X146166000Y-63822000D01*
X141446000Y-73942000D02*
X146166000Y-73942000D01*
%TO.C,J7*%
X193787500Y-74750000D02*
X195037500Y-74750000D01*
X193787500Y-73500000D02*
X193787500Y-74750000D01*
X198197500Y-67390000D02*
X197697500Y-67390000D01*
X197697500Y-67290000D02*
X198197500Y-67290000D01*
X197697500Y-67490000D02*
X197697500Y-67290000D01*
X198197500Y-67490000D02*
X197697500Y-67490000D01*
X198197500Y-69390000D02*
X197697500Y-69390000D01*
X197697500Y-69290000D02*
X198197500Y-69290000D01*
X197697500Y-69490000D02*
X197697500Y-69290000D01*
X198197500Y-69490000D02*
X197697500Y-69490000D01*
X198197500Y-71390000D02*
X197697500Y-71390000D01*
X197697500Y-71290000D02*
X198197500Y-71290000D01*
X197697500Y-71490000D02*
X197697500Y-71290000D01*
X198197500Y-71490000D02*
X197697500Y-71490000D01*
X196697500Y-64330000D02*
X196697500Y-64940000D01*
X195397500Y-64330000D02*
X195397500Y-64940000D01*
X196697500Y-74450000D02*
X196697500Y-73840000D01*
X195397500Y-74450000D02*
X195397500Y-73840000D01*
X194697500Y-66890000D02*
X194087500Y-66890000D01*
X194697500Y-64940000D02*
X194697500Y-66890000D01*
X198197500Y-64940000D02*
X194697500Y-64940000D01*
X198197500Y-73840000D02*
X198197500Y-64940000D01*
X194697500Y-73840000D02*
X198197500Y-73840000D01*
X194697500Y-71890000D02*
X194697500Y-73840000D01*
X194087500Y-71890000D02*
X194697500Y-71890000D01*
X193987500Y-72690000D02*
X193987500Y-72990000D01*
X193887500Y-72990000D02*
X194087500Y-72990000D01*
X193887500Y-72690000D02*
X193887500Y-72990000D01*
X194087500Y-72690000D02*
X193887500Y-72690000D01*
X194087500Y-64330000D02*
X194087500Y-74450000D01*
X198807500Y-64330000D02*
X194087500Y-64330000D01*
X198807500Y-74450000D02*
X198807500Y-64330000D01*
X194087500Y-74450000D02*
X198807500Y-74450000D01*
%TO.C,J6*%
X141654000Y-98816500D02*
X142904000Y-98816500D01*
X141654000Y-97566500D02*
X141654000Y-98816500D01*
X146064000Y-91456500D02*
X145564000Y-91456500D01*
X145564000Y-91356500D02*
X146064000Y-91356500D01*
X145564000Y-91556500D02*
X145564000Y-91356500D01*
X146064000Y-91556500D02*
X145564000Y-91556500D01*
X146064000Y-93456500D02*
X145564000Y-93456500D01*
X145564000Y-93356500D02*
X146064000Y-93356500D01*
X145564000Y-93556500D02*
X145564000Y-93356500D01*
X146064000Y-93556500D02*
X145564000Y-93556500D01*
X146064000Y-95456500D02*
X145564000Y-95456500D01*
X145564000Y-95356500D02*
X146064000Y-95356500D01*
X145564000Y-95556500D02*
X145564000Y-95356500D01*
X146064000Y-95556500D02*
X145564000Y-95556500D01*
X144564000Y-88396500D02*
X144564000Y-89006500D01*
X143264000Y-88396500D02*
X143264000Y-89006500D01*
X144564000Y-98516500D02*
X144564000Y-97906500D01*
X143264000Y-98516500D02*
X143264000Y-97906500D01*
X142564000Y-90956500D02*
X141954000Y-90956500D01*
X142564000Y-89006500D02*
X142564000Y-90956500D01*
X146064000Y-89006500D02*
X142564000Y-89006500D01*
X146064000Y-97906500D02*
X146064000Y-89006500D01*
X142564000Y-97906500D02*
X146064000Y-97906500D01*
X142564000Y-95956500D02*
X142564000Y-97906500D01*
X141954000Y-95956500D02*
X142564000Y-95956500D01*
X141854000Y-96756500D02*
X141854000Y-97056500D01*
X141754000Y-97056500D02*
X141954000Y-97056500D01*
X141754000Y-96756500D02*
X141754000Y-97056500D01*
X141954000Y-96756500D02*
X141754000Y-96756500D01*
X141954000Y-88396500D02*
X141954000Y-98516500D01*
X146674000Y-88396500D02*
X141954000Y-88396500D01*
X146674000Y-98516500D02*
X146674000Y-88396500D01*
X141954000Y-98516500D02*
X146674000Y-98516500D01*
%TO.C,J5*%
X193597000Y-98435500D02*
X194847000Y-98435500D01*
X193597000Y-97185500D02*
X193597000Y-98435500D01*
X198007000Y-91075500D02*
X197507000Y-91075500D01*
X197507000Y-90975500D02*
X198007000Y-90975500D01*
X197507000Y-91175500D02*
X197507000Y-90975500D01*
X198007000Y-91175500D02*
X197507000Y-91175500D01*
X198007000Y-93075500D02*
X197507000Y-93075500D01*
X197507000Y-92975500D02*
X198007000Y-92975500D01*
X197507000Y-93175500D02*
X197507000Y-92975500D01*
X198007000Y-93175500D02*
X197507000Y-93175500D01*
X198007000Y-95075500D02*
X197507000Y-95075500D01*
X197507000Y-94975500D02*
X198007000Y-94975500D01*
X197507000Y-95175500D02*
X197507000Y-94975500D01*
X198007000Y-95175500D02*
X197507000Y-95175500D01*
X196507000Y-88015500D02*
X196507000Y-88625500D01*
X195207000Y-88015500D02*
X195207000Y-88625500D01*
X196507000Y-98135500D02*
X196507000Y-97525500D01*
X195207000Y-98135500D02*
X195207000Y-97525500D01*
X194507000Y-90575500D02*
X193897000Y-90575500D01*
X194507000Y-88625500D02*
X194507000Y-90575500D01*
X198007000Y-88625500D02*
X194507000Y-88625500D01*
X198007000Y-97525500D02*
X198007000Y-88625500D01*
X194507000Y-97525500D02*
X198007000Y-97525500D01*
X194507000Y-95575500D02*
X194507000Y-97525500D01*
X193897000Y-95575500D02*
X194507000Y-95575500D01*
X193797000Y-96375500D02*
X193797000Y-96675500D01*
X193697000Y-96675500D02*
X193897000Y-96675500D01*
X193697000Y-96375500D02*
X193697000Y-96675500D01*
X193897000Y-96375500D02*
X193697000Y-96375500D01*
X193897000Y-88015500D02*
X193897000Y-98135500D01*
X198617000Y-88015500D02*
X193897000Y-88015500D01*
X198617000Y-98135500D02*
X198617000Y-88015500D01*
X193897000Y-98135500D02*
X198617000Y-98135500D01*
%TO.C,J4*%
X130115000Y-70298000D02*
X131445000Y-70298000D01*
X130115000Y-71628000D02*
X130115000Y-70298000D01*
X132715000Y-70298000D02*
X135315000Y-70298000D01*
X132715000Y-72898000D02*
X132715000Y-70298000D01*
X130115000Y-72898000D02*
X132715000Y-72898000D01*
X135315000Y-70298000D02*
X135315000Y-78038000D01*
X130115000Y-72898000D02*
X130115000Y-78038000D01*
X130115000Y-78038000D02*
X135315000Y-78038000D01*
%TO.C,J3*%
X131474000Y-121298000D02*
X131474000Y-120083000D01*
X131534000Y-125258000D02*
X131534000Y-127518000D01*
X132034000Y-125258000D02*
X132034000Y-127518000D01*
X134634000Y-123658000D02*
X135634000Y-123658000D01*
X134634000Y-125258000D02*
X134634000Y-123658000D01*
X135634000Y-125258000D02*
X134634000Y-125258000D01*
X135634000Y-123658000D02*
X135634000Y-125258000D01*
X132034000Y-123658000D02*
X131034000Y-123658000D01*
X132034000Y-125258000D02*
X132034000Y-123658000D01*
X131034000Y-125258000D02*
X132034000Y-125258000D01*
X131034000Y-123658000D02*
X131034000Y-125258000D01*
X136394000Y-121298000D02*
X135474000Y-121298000D01*
X130274000Y-121298000D02*
X131194000Y-121298000D01*
X133834000Y-123158000D02*
X133834000Y-127518000D01*
X132834000Y-123158000D02*
X133834000Y-123158000D01*
X132834000Y-127518000D02*
X132834000Y-123158000D01*
X135474000Y-121298000D02*
X135194000Y-121298000D01*
X135474000Y-119698000D02*
X135474000Y-121298000D01*
X136394000Y-119698000D02*
X135474000Y-119698000D01*
X136394000Y-127518000D02*
X136394000Y-119698000D01*
X130274000Y-127518000D02*
X136394000Y-127518000D01*
X130274000Y-119698000D02*
X130274000Y-127518000D01*
X131194000Y-119698000D02*
X130274000Y-119698000D01*
X131194000Y-121298000D02*
X131194000Y-119698000D01*
X131474000Y-121298000D02*
X131194000Y-121298000D01*
%TO.C,J1*%
X159375000Y-122858000D02*
X159375000Y-124108000D01*
X160625000Y-122858000D02*
X159375000Y-122858000D01*
X164735000Y-127268000D02*
X164735000Y-126768000D01*
X164835000Y-126768000D02*
X164835000Y-127268000D01*
X164635000Y-126768000D02*
X164835000Y-126768000D01*
X164635000Y-127268000D02*
X164635000Y-126768000D01*
X162735000Y-127268000D02*
X162735000Y-126768000D01*
X162835000Y-126768000D02*
X162835000Y-127268000D01*
X162635000Y-126768000D02*
X162835000Y-126768000D01*
X162635000Y-127268000D02*
X162635000Y-126768000D01*
X167795000Y-125768000D02*
X167185000Y-125768000D01*
X167795000Y-124468000D02*
X167185000Y-124468000D01*
X159675000Y-125768000D02*
X160285000Y-125768000D01*
X159675000Y-124468000D02*
X160285000Y-124468000D01*
X165235000Y-123768000D02*
X165235000Y-123158000D01*
X167185000Y-123768000D02*
X165235000Y-123768000D01*
X167185000Y-127268000D02*
X167185000Y-123768000D01*
X160285000Y-127268000D02*
X167185000Y-127268000D01*
X160285000Y-123768000D02*
X160285000Y-127268000D01*
X162235000Y-123768000D02*
X160285000Y-123768000D01*
X162235000Y-123158000D02*
X162235000Y-123768000D01*
X161435000Y-123058000D02*
X161135000Y-123058000D01*
X161135000Y-122958000D02*
X161135000Y-123158000D01*
X161435000Y-122958000D02*
X161135000Y-122958000D01*
X161435000Y-123158000D02*
X161435000Y-122958000D01*
X167795000Y-123158000D02*
X159675000Y-123158000D01*
X167795000Y-127878000D02*
X167795000Y-123158000D01*
X159675000Y-127878000D02*
X167795000Y-127878000D01*
X159675000Y-123158000D02*
X159675000Y-127878000D01*
%TO.C,D1*%
X135571500Y-114581000D02*
X133286500Y-114581000D01*
X135571500Y-116051000D02*
X135571500Y-114581000D01*
X133286500Y-116051000D02*
X135571500Y-116051000D01*
%TO.C,C12*%
X118364580Y-69530500D02*
X118083420Y-69530500D01*
X118364580Y-70550500D02*
X118083420Y-70550500D01*
%TO.C,C10*%
X115342580Y-64641000D02*
X115061420Y-64641000D01*
X115342580Y-65661000D02*
X115061420Y-65661000D01*
%TO.C,C9*%
X132678500Y-112326748D02*
X132678500Y-112849252D01*
X134148500Y-112326748D02*
X134148500Y-112849252D01*
%TO.C,C8*%
X136170580Y-111758000D02*
X135889420Y-111758000D01*
X136170580Y-112778000D02*
X135889420Y-112778000D01*
%TO.C,C7*%
X139673000Y-119321252D02*
X139673000Y-118798748D01*
X138203000Y-119321252D02*
X138203000Y-118798748D01*
%TO.C,C6*%
X139384500Y-98298580D02*
X139384500Y-98017420D01*
X138364500Y-98298580D02*
X138364500Y-98017420D01*
%TO.C,C4*%
X127696500Y-112431920D02*
X127696500Y-112713080D01*
X128716500Y-112431920D02*
X128716500Y-112713080D01*
%TO.C,C3*%
X134368000Y-98388080D02*
X134368000Y-98106920D01*
X133348000Y-98388080D02*
X133348000Y-98106920D01*
%TO.C,C2*%
X129220500Y-112431920D02*
X129220500Y-112713080D01*
X130240500Y-112431920D02*
X130240500Y-112713080D01*
%TO.C,C1*%
X205586420Y-107571000D02*
X205867580Y-107571000D01*
X205586420Y-106551000D02*
X205867580Y-106551000D01*
D15*
%TO.C,BT1*%
X181570000Y-118237000D02*
G75*
G03*
X181570000Y-118237000I-200000J0D01*
G01*
D13*
X186095000Y-127762000D02*
X186095000Y-120957000D01*
X213395000Y-127762000D02*
X186095000Y-127762000D01*
X213395000Y-120957000D02*
X213395000Y-127762000D01*
X213395000Y-108712000D02*
X213395000Y-115517000D01*
X186095000Y-108712000D02*
X213395000Y-108712000D01*
X186095000Y-115517000D02*
X186095000Y-108712000D01*
D11*
%TO.C,U3*%
X217170000Y-103378000D02*
X199898000Y-103378000D01*
X199898000Y-103378000D02*
X199898000Y-83058000D01*
X199898000Y-83058000D02*
X217170000Y-83058000D01*
X217170000Y-83058000D02*
X217170000Y-103378000D01*
%TO.C,U4*%
X164719000Y-103251000D02*
X147447000Y-103251000D01*
X147447000Y-103251000D02*
X147447000Y-82931000D01*
X147447000Y-82931000D02*
X164719000Y-82931000D01*
X164719000Y-82931000D02*
X164719000Y-103251000D01*
%TO.C,U5*%
X217106500Y-59055000D02*
X217106500Y-79375000D01*
X199834500Y-59055000D02*
X217106500Y-59055000D01*
X199834500Y-79375000D02*
X199834500Y-59055000D01*
X217106500Y-79375000D02*
X199834500Y-79375000D01*
%TO.C,U6*%
X164465000Y-58928000D02*
X164465000Y-79248000D01*
X147193000Y-58928000D02*
X164465000Y-58928000D01*
X147193000Y-79248000D02*
X147193000Y-58928000D01*
X164465000Y-79248000D02*
X147193000Y-79248000D01*
%TO.C,U7*%
X190754000Y-103505000D02*
X173482000Y-103505000D01*
X173482000Y-103505000D02*
X173482000Y-83185000D01*
X173482000Y-83185000D02*
X190754000Y-83185000D01*
X190754000Y-83185000D02*
X190754000Y-103505000D01*
%TO.C,U8*%
X190627000Y-59309000D02*
X190627000Y-79629000D01*
X173355000Y-59309000D02*
X190627000Y-59309000D01*
X173355000Y-79629000D02*
X173355000Y-59309000D01*
X190627000Y-79629000D02*
X173355000Y-79629000D01*
D13*
%TO.C,J2*%
X149534000Y-127990500D02*
X140534000Y-127990500D01*
X149534000Y-119390500D02*
X149534000Y-127990500D01*
X149534000Y-113690500D02*
X149534000Y-114590500D01*
X147334000Y-113690500D02*
X149534000Y-113690500D01*
X140534000Y-113690500D02*
X142734000Y-113690500D01*
X140534000Y-127990500D02*
X140534000Y-113690500D01*
%TO.C,R5*%
D10*
X127155180Y-89308466D02*
X126678990Y-89641800D01*
X127155180Y-89879895D02*
X126155180Y-89879895D01*
X126155180Y-89498942D01*
X126202800Y-89403704D01*
X126250419Y-89356085D01*
X126345657Y-89308466D01*
X126488514Y-89308466D01*
X126583752Y-89356085D01*
X126631371Y-89403704D01*
X126678990Y-89498942D01*
X126678990Y-89879895D01*
X126155180Y-88403704D02*
X126155180Y-88879895D01*
X126631371Y-88927514D01*
X126583752Y-88879895D01*
X126536133Y-88784657D01*
X126536133Y-88546561D01*
X126583752Y-88451323D01*
X126631371Y-88403704D01*
X126726609Y-88356085D01*
X126964704Y-88356085D01*
X127059942Y-88403704D01*
X127107561Y-88451323D01*
X127155180Y-88546561D01*
X127155180Y-88784657D01*
X127107561Y-88879895D01*
X127059942Y-88927514D01*
%TO.C,R2*%
X124422180Y-84710066D02*
X123945990Y-85043400D01*
X124422180Y-85281495D02*
X123422180Y-85281495D01*
X123422180Y-84900542D01*
X123469800Y-84805304D01*
X123517419Y-84757685D01*
X123612657Y-84710066D01*
X123755514Y-84710066D01*
X123850752Y-84757685D01*
X123898371Y-84805304D01*
X123945990Y-84900542D01*
X123945990Y-85281495D01*
X123517419Y-84329114D02*
X123469800Y-84281495D01*
X123422180Y-84186257D01*
X123422180Y-83948161D01*
X123469800Y-83852923D01*
X123517419Y-83805304D01*
X123612657Y-83757685D01*
X123707895Y-83757685D01*
X123850752Y-83805304D01*
X124422180Y-84376733D01*
X124422180Y-83757685D01*
%TO.C,C5*%
X127830642Y-113563166D02*
X127878261Y-113610785D01*
X127925880Y-113753642D01*
X127925880Y-113848880D01*
X127878261Y-113991738D01*
X127783023Y-114086976D01*
X127687785Y-114134595D01*
X127497309Y-114182214D01*
X127354452Y-114182214D01*
X127163976Y-114134595D01*
X127068738Y-114086976D01*
X126973500Y-113991738D01*
X126925880Y-113848880D01*
X126925880Y-113753642D01*
X126973500Y-113610785D01*
X127021119Y-113563166D01*
X126925880Y-112658404D02*
X126925880Y-113134595D01*
X127402071Y-113182214D01*
X127354452Y-113134595D01*
X127306833Y-113039357D01*
X127306833Y-112801261D01*
X127354452Y-112706023D01*
X127402071Y-112658404D01*
X127497309Y-112610785D01*
X127735404Y-112610785D01*
X127830642Y-112658404D01*
X127878261Y-112706023D01*
X127925880Y-112801261D01*
X127925880Y-113039357D01*
X127878261Y-113134595D01*
X127830642Y-113182214D01*
%TO.C,Y2*%
X120624190Y-74941190D02*
X121100380Y-74941190D01*
X120100380Y-75274523D02*
X120624190Y-74941190D01*
X120100380Y-74607857D01*
X120195619Y-74322142D02*
X120148000Y-74274523D01*
X120100380Y-74179285D01*
X120100380Y-73941190D01*
X120148000Y-73845952D01*
X120195619Y-73798333D01*
X120290857Y-73750714D01*
X120386095Y-73750714D01*
X120528952Y-73798333D01*
X121100380Y-74369761D01*
X121100380Y-73750714D01*
%TO.C,R10*%
X117658142Y-70271880D02*
X117324809Y-69795690D01*
X117086714Y-70271880D02*
X117086714Y-69271880D01*
X117467666Y-69271880D01*
X117562904Y-69319500D01*
X117610523Y-69367119D01*
X117658142Y-69462357D01*
X117658142Y-69605214D01*
X117610523Y-69700452D01*
X117562904Y-69748071D01*
X117467666Y-69795690D01*
X117086714Y-69795690D01*
X118610523Y-70271880D02*
X118039095Y-70271880D01*
X118324809Y-70271880D02*
X118324809Y-69271880D01*
X118229571Y-69414738D01*
X118134333Y-69509976D01*
X118039095Y-69557595D01*
X119229571Y-69271880D02*
X119324809Y-69271880D01*
X119420047Y-69319500D01*
X119467666Y-69367119D01*
X119515285Y-69462357D01*
X119562904Y-69652833D01*
X119562904Y-69890928D01*
X119515285Y-70081404D01*
X119467666Y-70176642D01*
X119420047Y-70224261D01*
X119324809Y-70271880D01*
X119229571Y-70271880D01*
X119134333Y-70224261D01*
X119086714Y-70176642D01*
X119039095Y-70081404D01*
X118991476Y-69890928D01*
X118991476Y-69652833D01*
X119039095Y-69462357D01*
X119086714Y-69367119D01*
X119134333Y-69319500D01*
X119229571Y-69271880D01*
%TO.C,R9*%
X118134333Y-68684380D02*
X117801000Y-68208190D01*
X117562904Y-68684380D02*
X117562904Y-67684380D01*
X117943857Y-67684380D01*
X118039095Y-67732000D01*
X118086714Y-67779619D01*
X118134333Y-67874857D01*
X118134333Y-68017714D01*
X118086714Y-68112952D01*
X118039095Y-68160571D01*
X117943857Y-68208190D01*
X117562904Y-68208190D01*
X118610523Y-68684380D02*
X118801000Y-68684380D01*
X118896238Y-68636761D01*
X118943857Y-68589142D01*
X119039095Y-68446285D01*
X119086714Y-68255809D01*
X119086714Y-67874857D01*
X119039095Y-67779619D01*
X118991476Y-67732000D01*
X118896238Y-67684380D01*
X118705761Y-67684380D01*
X118610523Y-67732000D01*
X118562904Y-67779619D01*
X118515285Y-67874857D01*
X118515285Y-68112952D01*
X118562904Y-68208190D01*
X118610523Y-68255809D01*
X118705761Y-68303428D01*
X118896238Y-68303428D01*
X118991476Y-68255809D01*
X119039095Y-68208190D01*
X119086714Y-68112952D01*
%TO.C,D4*%
X114349404Y-67729380D02*
X114349404Y-66729380D01*
X114587500Y-66729380D01*
X114730357Y-66777000D01*
X114825595Y-66872238D01*
X114873214Y-66967476D01*
X114920833Y-67157952D01*
X114920833Y-67300809D01*
X114873214Y-67491285D01*
X114825595Y-67586523D01*
X114730357Y-67681761D01*
X114587500Y-67729380D01*
X114349404Y-67729380D01*
X115777976Y-67062714D02*
X115777976Y-67729380D01*
X115539880Y-66681761D02*
X115301785Y-67396047D01*
X115920833Y-67396047D01*
%TO.C,D3*%
X114488904Y-66078380D02*
X114488904Y-65078380D01*
X114727000Y-65078380D01*
X114869857Y-65126000D01*
X114965095Y-65221238D01*
X115012714Y-65316476D01*
X115060333Y-65506952D01*
X115060333Y-65649809D01*
X115012714Y-65840285D01*
X114965095Y-65935523D01*
X114869857Y-66030761D01*
X114727000Y-66078380D01*
X114488904Y-66078380D01*
X115393666Y-65078380D02*
X116012714Y-65078380D01*
X115679380Y-65459333D01*
X115822238Y-65459333D01*
X115917476Y-65506952D01*
X115965095Y-65554571D01*
X116012714Y-65649809D01*
X116012714Y-65887904D01*
X115965095Y-65983142D01*
X115917476Y-66030761D01*
X115822238Y-66078380D01*
X115536523Y-66078380D01*
X115441285Y-66030761D01*
X115393666Y-65983142D01*
%TO.C,C13*%
X117517642Y-79384142D02*
X117470023Y-79431761D01*
X117327166Y-79479380D01*
X117231928Y-79479380D01*
X117089071Y-79431761D01*
X116993833Y-79336523D01*
X116946214Y-79241285D01*
X116898595Y-79050809D01*
X116898595Y-78907952D01*
X116946214Y-78717476D01*
X116993833Y-78622238D01*
X117089071Y-78527000D01*
X117231928Y-78479380D01*
X117327166Y-78479380D01*
X117470023Y-78527000D01*
X117517642Y-78574619D01*
X118470023Y-79479380D02*
X117898595Y-79479380D01*
X118184309Y-79479380D02*
X118184309Y-78479380D01*
X118089071Y-78622238D01*
X117993833Y-78717476D01*
X117898595Y-78765095D01*
X118803357Y-78479380D02*
X119422404Y-78479380D01*
X119089071Y-78860333D01*
X119231928Y-78860333D01*
X119327166Y-78907952D01*
X119374785Y-78955571D01*
X119422404Y-79050809D01*
X119422404Y-79288904D01*
X119374785Y-79384142D01*
X119327166Y-79431761D01*
X119231928Y-79479380D01*
X118946214Y-79479380D01*
X118850976Y-79431761D01*
X118803357Y-79384142D01*
%TO.C,C11*%
X117607142Y-73351642D02*
X117559523Y-73399261D01*
X117416666Y-73446880D01*
X117321428Y-73446880D01*
X117178571Y-73399261D01*
X117083333Y-73304023D01*
X117035714Y-73208785D01*
X116988095Y-73018309D01*
X116988095Y-72875452D01*
X117035714Y-72684976D01*
X117083333Y-72589738D01*
X117178571Y-72494500D01*
X117321428Y-72446880D01*
X117416666Y-72446880D01*
X117559523Y-72494500D01*
X117607142Y-72542119D01*
X118559523Y-73446880D02*
X117988095Y-73446880D01*
X118273809Y-73446880D02*
X118273809Y-72446880D01*
X118178571Y-72589738D01*
X118083333Y-72684976D01*
X117988095Y-72732595D01*
X119511904Y-73446880D02*
X118940476Y-73446880D01*
X119226190Y-73446880D02*
X119226190Y-72446880D01*
X119130952Y-72589738D01*
X119035714Y-72684976D01*
X118940476Y-72732595D01*
%TO.C,D2*%
X133881904Y-63952380D02*
X133881904Y-62952380D01*
X134120000Y-62952380D01*
X134262857Y-63000000D01*
X134358095Y-63095238D01*
X134405714Y-63190476D01*
X134453333Y-63380952D01*
X134453333Y-63523809D01*
X134405714Y-63714285D01*
X134358095Y-63809523D01*
X134262857Y-63904761D01*
X134120000Y-63952380D01*
X133881904Y-63952380D01*
X134834285Y-63047619D02*
X134881904Y-63000000D01*
X134977142Y-62952380D01*
X135215238Y-62952380D01*
X135310476Y-63000000D01*
X135358095Y-63047619D01*
X135405714Y-63142857D01*
X135405714Y-63238095D01*
X135358095Y-63380952D01*
X134786666Y-63952380D01*
X135405714Y-63952380D01*
%TO.C,Y1*%
X138785190Y-98626690D02*
X139261380Y-98626690D01*
X138261380Y-98960023D02*
X138785190Y-98626690D01*
X138261380Y-98293357D01*
X139261380Y-97436214D02*
X139261380Y-98007642D01*
X139261380Y-97721928D02*
X138261380Y-97721928D01*
X138404238Y-97817166D01*
X138499476Y-97912404D01*
X138547095Y-98007642D01*
%TO.C,VR1*%
D16*
X135177123Y-116080095D02*
X135817123Y-115866761D01*
X135177123Y-115653428D01*
X135817123Y-115074380D02*
X135512361Y-115287714D01*
X135817123Y-115440095D02*
X135177123Y-115440095D01*
X135177123Y-115196285D01*
X135207600Y-115135333D01*
X135238076Y-115104857D01*
X135299028Y-115074380D01*
X135390457Y-115074380D01*
X135451409Y-115104857D01*
X135481885Y-115135333D01*
X135512361Y-115196285D01*
X135512361Y-115440095D01*
X135817123Y-114464857D02*
X135817123Y-114830571D01*
X135817123Y-114647714D02*
X135177123Y-114647714D01*
X135268552Y-114708666D01*
X135329504Y-114769619D01*
X135359980Y-114830571D01*
%TO.C,U9*%
D10*
X123064595Y-63275380D02*
X123064595Y-64084904D01*
X123112214Y-64180142D01*
X123159833Y-64227761D01*
X123255071Y-64275380D01*
X123445547Y-64275380D01*
X123540785Y-64227761D01*
X123588404Y-64180142D01*
X123636023Y-64084904D01*
X123636023Y-63275380D01*
X124159833Y-64275380D02*
X124350309Y-64275380D01*
X124445547Y-64227761D01*
X124493166Y-64180142D01*
X124588404Y-64037285D01*
X124636023Y-63846809D01*
X124636023Y-63465857D01*
X124588404Y-63370619D01*
X124540785Y-63323000D01*
X124445547Y-63275380D01*
X124255071Y-63275380D01*
X124159833Y-63323000D01*
X124112214Y-63370619D01*
X124064595Y-63465857D01*
X124064595Y-63703952D01*
X124112214Y-63799190D01*
X124159833Y-63846809D01*
X124255071Y-63894428D01*
X124445547Y-63894428D01*
X124540785Y-63846809D01*
X124588404Y-63799190D01*
X124636023Y-63703952D01*
%TO.C,U2*%
X125164880Y-91376404D02*
X125974404Y-91376404D01*
X126069642Y-91328785D01*
X126117261Y-91281166D01*
X126164880Y-91185928D01*
X126164880Y-90995452D01*
X126117261Y-90900214D01*
X126069642Y-90852595D01*
X125974404Y-90804976D01*
X125164880Y-90804976D01*
X125260119Y-90376404D02*
X125212500Y-90328785D01*
X125164880Y-90233547D01*
X125164880Y-89995452D01*
X125212500Y-89900214D01*
X125260119Y-89852595D01*
X125355357Y-89804976D01*
X125450595Y-89804976D01*
X125593452Y-89852595D01*
X126164880Y-90424023D01*
X126164880Y-89804976D01*
%TO.C,U1*%
X117016095Y-85554380D02*
X117016095Y-86363904D01*
X117063714Y-86459142D01*
X117111333Y-86506761D01*
X117206571Y-86554380D01*
X117397047Y-86554380D01*
X117492285Y-86506761D01*
X117539904Y-86459142D01*
X117587523Y-86363904D01*
X117587523Y-85554380D01*
X118587523Y-86554380D02*
X118016095Y-86554380D01*
X118301809Y-86554380D02*
X118301809Y-85554380D01*
X118206571Y-85697238D01*
X118111333Y-85792476D01*
X118016095Y-85840095D01*
%TO.C,SW2*%
X117119666Y-104713261D02*
X117262523Y-104760880D01*
X117500619Y-104760880D01*
X117595857Y-104713261D01*
X117643476Y-104665642D01*
X117691095Y-104570404D01*
X117691095Y-104475166D01*
X117643476Y-104379928D01*
X117595857Y-104332309D01*
X117500619Y-104284690D01*
X117310142Y-104237071D01*
X117214904Y-104189452D01*
X117167285Y-104141833D01*
X117119666Y-104046595D01*
X117119666Y-103951357D01*
X117167285Y-103856119D01*
X117214904Y-103808500D01*
X117310142Y-103760880D01*
X117548238Y-103760880D01*
X117691095Y-103808500D01*
X118024428Y-103760880D02*
X118262523Y-104760880D01*
X118453000Y-104046595D01*
X118643476Y-104760880D01*
X118881571Y-103760880D01*
X119214904Y-103856119D02*
X119262523Y-103808500D01*
X119357761Y-103760880D01*
X119595857Y-103760880D01*
X119691095Y-103808500D01*
X119738714Y-103856119D01*
X119786333Y-103951357D01*
X119786333Y-104046595D01*
X119738714Y-104189452D01*
X119167285Y-104760880D01*
X119786333Y-104760880D01*
%TO.C,SW1*%
X116929166Y-105447261D02*
X117072023Y-105494880D01*
X117310119Y-105494880D01*
X117405357Y-105447261D01*
X117452976Y-105399642D01*
X117500595Y-105304404D01*
X117500595Y-105209166D01*
X117452976Y-105113928D01*
X117405357Y-105066309D01*
X117310119Y-105018690D01*
X117119642Y-104971071D01*
X117024404Y-104923452D01*
X116976785Y-104875833D01*
X116929166Y-104780595D01*
X116929166Y-104685357D01*
X116976785Y-104590119D01*
X117024404Y-104542500D01*
X117119642Y-104494880D01*
X117357738Y-104494880D01*
X117500595Y-104542500D01*
X117833928Y-104494880D02*
X118072023Y-105494880D01*
X118262500Y-104780595D01*
X118452976Y-105494880D01*
X118691071Y-104494880D01*
X119595833Y-105494880D02*
X119024404Y-105494880D01*
X119310119Y-105494880D02*
X119310119Y-104494880D01*
X119214880Y-104637738D01*
X119119642Y-104732976D01*
X119024404Y-104780595D01*
%TO.C,R8*%
X133200380Y-112752666D02*
X132724190Y-113086000D01*
X133200380Y-113324095D02*
X132200380Y-113324095D01*
X132200380Y-112943142D01*
X132248000Y-112847904D01*
X132295619Y-112800285D01*
X132390857Y-112752666D01*
X132533714Y-112752666D01*
X132628952Y-112800285D01*
X132676571Y-112847904D01*
X132724190Y-112943142D01*
X132724190Y-113324095D01*
X132628952Y-112181238D02*
X132581333Y-112276476D01*
X132533714Y-112324095D01*
X132438476Y-112371714D01*
X132390857Y-112371714D01*
X132295619Y-112324095D01*
X132248000Y-112276476D01*
X132200380Y-112181238D01*
X132200380Y-111990761D01*
X132248000Y-111895523D01*
X132295619Y-111847904D01*
X132390857Y-111800285D01*
X132438476Y-111800285D01*
X132533714Y-111847904D01*
X132581333Y-111895523D01*
X132628952Y-111990761D01*
X132628952Y-112181238D01*
X132676571Y-112276476D01*
X132724190Y-112324095D01*
X132819428Y-112371714D01*
X133009904Y-112371714D01*
X133105142Y-112324095D01*
X133152761Y-112276476D01*
X133200380Y-112181238D01*
X133200380Y-111990761D01*
X133152761Y-111895523D01*
X133105142Y-111847904D01*
X133009904Y-111800285D01*
X132819428Y-111800285D01*
X132724190Y-111847904D01*
X132676571Y-111895523D01*
X132628952Y-111990761D01*
%TO.C,R7*%
X142661880Y-111736666D02*
X142185690Y-112070000D01*
X142661880Y-112308095D02*
X141661880Y-112308095D01*
X141661880Y-111927142D01*
X141709500Y-111831904D01*
X141757119Y-111784285D01*
X141852357Y-111736666D01*
X141995214Y-111736666D01*
X142090452Y-111784285D01*
X142138071Y-111831904D01*
X142185690Y-111927142D01*
X142185690Y-112308095D01*
X141661880Y-111403333D02*
X141661880Y-110736666D01*
X142661880Y-111165238D01*
%TO.C,R6*%
X141019880Y-110908666D02*
X140543690Y-111242000D01*
X141019880Y-111480095D02*
X140019880Y-111480095D01*
X140019880Y-111099142D01*
X140067500Y-111003904D01*
X140115119Y-110956285D01*
X140210357Y-110908666D01*
X140353214Y-110908666D01*
X140448452Y-110956285D01*
X140496071Y-111003904D01*
X140543690Y-111099142D01*
X140543690Y-111480095D01*
X140019880Y-110051523D02*
X140019880Y-110242000D01*
X140067500Y-110337238D01*
X140115119Y-110384857D01*
X140257976Y-110480095D01*
X140448452Y-110527714D01*
X140829404Y-110527714D01*
X140924642Y-110480095D01*
X140972261Y-110432476D01*
X141019880Y-110337238D01*
X141019880Y-110146761D01*
X140972261Y-110051523D01*
X140924642Y-110003904D01*
X140829404Y-109956285D01*
X140591309Y-109956285D01*
X140496071Y-110003904D01*
X140448452Y-110051523D01*
X140400833Y-110146761D01*
X140400833Y-110337238D01*
X140448452Y-110432476D01*
X140496071Y-110480095D01*
X140591309Y-110527714D01*
%TO.C,R4*%
X124244380Y-97448166D02*
X123768190Y-97781500D01*
X124244380Y-98019595D02*
X123244380Y-98019595D01*
X123244380Y-97638642D01*
X123292000Y-97543404D01*
X123339619Y-97495785D01*
X123434857Y-97448166D01*
X123577714Y-97448166D01*
X123672952Y-97495785D01*
X123720571Y-97543404D01*
X123768190Y-97638642D01*
X123768190Y-98019595D01*
X123577714Y-96591023D02*
X124244380Y-96591023D01*
X123196761Y-96829119D02*
X123911047Y-97067214D01*
X123911047Y-96448166D01*
%TO.C,R3*%
X124180880Y-93384166D02*
X123704690Y-93717500D01*
X124180880Y-93955595D02*
X123180880Y-93955595D01*
X123180880Y-93574642D01*
X123228500Y-93479404D01*
X123276119Y-93431785D01*
X123371357Y-93384166D01*
X123514214Y-93384166D01*
X123609452Y-93431785D01*
X123657071Y-93479404D01*
X123704690Y-93574642D01*
X123704690Y-93955595D01*
X123180880Y-93050833D02*
X123180880Y-92431785D01*
X123561833Y-92765119D01*
X123561833Y-92622261D01*
X123609452Y-92527023D01*
X123657071Y-92479404D01*
X123752309Y-92431785D01*
X123990404Y-92431785D01*
X124085642Y-92479404D01*
X124133261Y-92527023D01*
X124180880Y-92622261D01*
X124180880Y-92907976D01*
X124133261Y-93003214D01*
X124085642Y-93050833D01*
%TO.C,R1*%
X132247880Y-97702666D02*
X131771690Y-98036000D01*
X132247880Y-98274095D02*
X131247880Y-98274095D01*
X131247880Y-97893142D01*
X131295500Y-97797904D01*
X131343119Y-97750285D01*
X131438357Y-97702666D01*
X131581214Y-97702666D01*
X131676452Y-97750285D01*
X131724071Y-97797904D01*
X131771690Y-97893142D01*
X131771690Y-98274095D01*
X132247880Y-96750285D02*
X132247880Y-97321714D01*
X132247880Y-97036000D02*
X131247880Y-97036000D01*
X131390738Y-97131238D01*
X131485976Y-97226476D01*
X131533595Y-97321714D01*
%TO.C,L1*%
X134277380Y-110123166D02*
X134277380Y-110599357D01*
X133277380Y-110599357D01*
X134277380Y-109266023D02*
X134277380Y-109837452D01*
X134277380Y-109551738D02*
X133277380Y-109551738D01*
X133420238Y-109646976D01*
X133515476Y-109742214D01*
X133563095Y-109837452D01*
%TO.C,J11*%
X127925976Y-63031380D02*
X127925976Y-63745666D01*
X127878357Y-63888523D01*
X127783119Y-63983761D01*
X127640261Y-64031380D01*
X127545023Y-64031380D01*
X128925976Y-64031380D02*
X128354547Y-64031380D01*
X128640261Y-64031380D02*
X128640261Y-63031380D01*
X128545023Y-63174238D01*
X128449785Y-63269476D01*
X128354547Y-63317095D01*
X129878357Y-64031380D02*
X129306928Y-64031380D01*
X129592642Y-64031380D02*
X129592642Y-63031380D01*
X129497404Y-63174238D01*
X129402166Y-63269476D01*
X129306928Y-63317095D01*
%TO.C,J10*%
X166033880Y-70453523D02*
X166748166Y-70453523D01*
X166891023Y-70501142D01*
X166986261Y-70596380D01*
X167033880Y-70739238D01*
X167033880Y-70834476D01*
X167033880Y-69453523D02*
X167033880Y-70024952D01*
X167033880Y-69739238D02*
X166033880Y-69739238D01*
X166176738Y-69834476D01*
X166271976Y-69929714D01*
X166319595Y-70024952D01*
X166033880Y-68834476D02*
X166033880Y-68739238D01*
X166081500Y-68644000D01*
X166129119Y-68596380D01*
X166224357Y-68548761D01*
X166414833Y-68501142D01*
X166652928Y-68501142D01*
X166843404Y-68548761D01*
X166938642Y-68596380D01*
X166986261Y-68644000D01*
X167033880Y-68739238D01*
X167033880Y-68834476D01*
X166986261Y-68929714D01*
X166938642Y-68977333D01*
X166843404Y-69024952D01*
X166652928Y-69072571D01*
X166414833Y-69072571D01*
X166224357Y-69024952D01*
X166129119Y-68977333D01*
X166081500Y-68929714D01*
X166033880Y-68834476D01*
%TO.C,J9*%
X166351380Y-93726333D02*
X167065666Y-93726333D01*
X167208523Y-93773952D01*
X167303761Y-93869190D01*
X167351380Y-94012047D01*
X167351380Y-94107285D01*
X167351380Y-93202523D02*
X167351380Y-93012047D01*
X167303761Y-92916809D01*
X167256142Y-92869190D01*
X167113285Y-92773952D01*
X166922809Y-92726333D01*
X166541857Y-92726333D01*
X166446619Y-92773952D01*
X166399000Y-92821571D01*
X166351380Y-92916809D01*
X166351380Y-93107285D01*
X166399000Y-93202523D01*
X166446619Y-93250142D01*
X166541857Y-93297761D01*
X166779952Y-93297761D01*
X166875190Y-93250142D01*
X166922809Y-93202523D01*
X166970428Y-93107285D01*
X166970428Y-92916809D01*
X166922809Y-92821571D01*
X166875190Y-92773952D01*
X166779952Y-92726333D01*
%TO.C,J8*%
X139808380Y-69215333D02*
X140522666Y-69215333D01*
X140665523Y-69262952D01*
X140760761Y-69358190D01*
X140808380Y-69501047D01*
X140808380Y-69596285D01*
X140236952Y-68596285D02*
X140189333Y-68691523D01*
X140141714Y-68739142D01*
X140046476Y-68786761D01*
X139998857Y-68786761D01*
X139903619Y-68739142D01*
X139856000Y-68691523D01*
X139808380Y-68596285D01*
X139808380Y-68405809D01*
X139856000Y-68310571D01*
X139903619Y-68262952D01*
X139998857Y-68215333D01*
X140046476Y-68215333D01*
X140141714Y-68262952D01*
X140189333Y-68310571D01*
X140236952Y-68405809D01*
X140236952Y-68596285D01*
X140284571Y-68691523D01*
X140332190Y-68739142D01*
X140427428Y-68786761D01*
X140617904Y-68786761D01*
X140713142Y-68739142D01*
X140760761Y-68691523D01*
X140808380Y-68596285D01*
X140808380Y-68405809D01*
X140760761Y-68310571D01*
X140713142Y-68262952D01*
X140617904Y-68215333D01*
X140427428Y-68215333D01*
X140332190Y-68262952D01*
X140284571Y-68310571D01*
X140236952Y-68405809D01*
%TO.C,J7*%
X192449880Y-69723333D02*
X193164166Y-69723333D01*
X193307023Y-69770952D01*
X193402261Y-69866190D01*
X193449880Y-70009047D01*
X193449880Y-70104285D01*
X192449880Y-69342380D02*
X192449880Y-68675714D01*
X193449880Y-69104285D01*
%TO.C,J6*%
X140316380Y-93789833D02*
X141030666Y-93789833D01*
X141173523Y-93837452D01*
X141268761Y-93932690D01*
X141316380Y-94075547D01*
X141316380Y-94170785D01*
X140316380Y-92885071D02*
X140316380Y-93075547D01*
X140364000Y-93170785D01*
X140411619Y-93218404D01*
X140554476Y-93313642D01*
X140744952Y-93361261D01*
X141125904Y-93361261D01*
X141221142Y-93313642D01*
X141268761Y-93266023D01*
X141316380Y-93170785D01*
X141316380Y-92980309D01*
X141268761Y-92885071D01*
X141221142Y-92837452D01*
X141125904Y-92789833D01*
X140887809Y-92789833D01*
X140792571Y-92837452D01*
X140744952Y-92885071D01*
X140697333Y-92980309D01*
X140697333Y-93170785D01*
X140744952Y-93266023D01*
X140792571Y-93313642D01*
X140887809Y-93361261D01*
%TO.C,J5*%
X192259380Y-93408833D02*
X192973666Y-93408833D01*
X193116523Y-93456452D01*
X193211761Y-93551690D01*
X193259380Y-93694547D01*
X193259380Y-93789785D01*
X192259380Y-92456452D02*
X192259380Y-92932642D01*
X192735571Y-92980261D01*
X192687952Y-92932642D01*
X192640333Y-92837404D01*
X192640333Y-92599309D01*
X192687952Y-92504071D01*
X192735571Y-92456452D01*
X192830809Y-92408833D01*
X193068904Y-92408833D01*
X193164142Y-92456452D01*
X193211761Y-92504071D01*
X193259380Y-92599309D01*
X193259380Y-92837404D01*
X193211761Y-92932642D01*
X193164142Y-92980261D01*
%TO.C,J4*%
X135556666Y-66762380D02*
X135556666Y-67476666D01*
X135509047Y-67619523D01*
X135413809Y-67714761D01*
X135270952Y-67762380D01*
X135175714Y-67762380D01*
X136461428Y-67095714D02*
X136461428Y-67762380D01*
X136223333Y-66714761D02*
X135985238Y-67429047D01*
X136604285Y-67429047D01*
%TO.C,J3*%
X133000666Y-118060380D02*
X133000666Y-118774666D01*
X132953047Y-118917523D01*
X132857809Y-119012761D01*
X132714952Y-119060380D01*
X132619714Y-119060380D01*
X133381619Y-118060380D02*
X134000666Y-118060380D01*
X133667333Y-118441333D01*
X133810190Y-118441333D01*
X133905428Y-118488952D01*
X133953047Y-118536571D01*
X134000666Y-118631809D01*
X134000666Y-118869904D01*
X133953047Y-118965142D01*
X133905428Y-119012761D01*
X133810190Y-119060380D01*
X133524476Y-119060380D01*
X133429238Y-119012761D01*
X133381619Y-118965142D01*
%TO.C,J1*%
X163401666Y-121520380D02*
X163401666Y-122234666D01*
X163354047Y-122377523D01*
X163258809Y-122472761D01*
X163115952Y-122520380D01*
X163020714Y-122520380D01*
X164401666Y-122520380D02*
X163830238Y-122520380D01*
X164115952Y-122520380D02*
X164115952Y-121520380D01*
X164020714Y-121663238D01*
X163925476Y-121758476D01*
X163830238Y-121806095D01*
%TO.C,D1*%
X133348404Y-117198380D02*
X133348404Y-116198380D01*
X133586500Y-116198380D01*
X133729357Y-116246000D01*
X133824595Y-116341238D01*
X133872214Y-116436476D01*
X133919833Y-116626952D01*
X133919833Y-116769809D01*
X133872214Y-116960285D01*
X133824595Y-117055523D01*
X133729357Y-117150761D01*
X133586500Y-117198380D01*
X133348404Y-117198380D01*
X134872214Y-117198380D02*
X134300785Y-117198380D01*
X134586500Y-117198380D02*
X134586500Y-116198380D01*
X134491261Y-116341238D01*
X134396023Y-116436476D01*
X134300785Y-116484095D01*
%TO.C,C12*%
X117581142Y-71827642D02*
X117533523Y-71875261D01*
X117390666Y-71922880D01*
X117295428Y-71922880D01*
X117152571Y-71875261D01*
X117057333Y-71780023D01*
X117009714Y-71684785D01*
X116962095Y-71494309D01*
X116962095Y-71351452D01*
X117009714Y-71160976D01*
X117057333Y-71065738D01*
X117152571Y-70970500D01*
X117295428Y-70922880D01*
X117390666Y-70922880D01*
X117533523Y-70970500D01*
X117581142Y-71018119D01*
X118533523Y-71922880D02*
X117962095Y-71922880D01*
X118247809Y-71922880D02*
X118247809Y-70922880D01*
X118152571Y-71065738D01*
X118057333Y-71160976D01*
X117962095Y-71208595D01*
X118914476Y-71018119D02*
X118962095Y-70970500D01*
X119057333Y-70922880D01*
X119295428Y-70922880D01*
X119390666Y-70970500D01*
X119438285Y-71018119D01*
X119485904Y-71113357D01*
X119485904Y-71208595D01*
X119438285Y-71351452D01*
X118866857Y-71922880D01*
X119485904Y-71922880D01*
%TO.C,C10*%
X114559142Y-66938142D02*
X114511523Y-66985761D01*
X114368666Y-67033380D01*
X114273428Y-67033380D01*
X114130571Y-66985761D01*
X114035333Y-66890523D01*
X113987714Y-66795285D01*
X113940095Y-66604809D01*
X113940095Y-66461952D01*
X113987714Y-66271476D01*
X114035333Y-66176238D01*
X114130571Y-66081000D01*
X114273428Y-66033380D01*
X114368666Y-66033380D01*
X114511523Y-66081000D01*
X114559142Y-66128619D01*
X115511523Y-67033380D02*
X114940095Y-67033380D01*
X115225809Y-67033380D02*
X115225809Y-66033380D01*
X115130571Y-66176238D01*
X115035333Y-66271476D01*
X114940095Y-66319095D01*
X116130571Y-66033380D02*
X116225809Y-66033380D01*
X116321047Y-66081000D01*
X116368666Y-66128619D01*
X116416285Y-66223857D01*
X116463904Y-66414333D01*
X116463904Y-66652428D01*
X116416285Y-66842904D01*
X116368666Y-66938142D01*
X116321047Y-66985761D01*
X116225809Y-67033380D01*
X116130571Y-67033380D01*
X116035333Y-66985761D01*
X115987714Y-66938142D01*
X115940095Y-66842904D01*
X115892476Y-66652428D01*
X115892476Y-66414333D01*
X115940095Y-66223857D01*
X115987714Y-66128619D01*
X116035333Y-66081000D01*
X116130571Y-66033380D01*
%TO.C,C9*%
X135450642Y-112754666D02*
X135498261Y-112802285D01*
X135545880Y-112945142D01*
X135545880Y-113040380D01*
X135498261Y-113183238D01*
X135403023Y-113278476D01*
X135307785Y-113326095D01*
X135117309Y-113373714D01*
X134974452Y-113373714D01*
X134783976Y-113326095D01*
X134688738Y-113278476D01*
X134593500Y-113183238D01*
X134545880Y-113040380D01*
X134545880Y-112945142D01*
X134593500Y-112802285D01*
X134641119Y-112754666D01*
X135545880Y-112278476D02*
X135545880Y-112088000D01*
X135498261Y-111992761D01*
X135450642Y-111945142D01*
X135307785Y-111849904D01*
X135117309Y-111802285D01*
X134736357Y-111802285D01*
X134641119Y-111849904D01*
X134593500Y-111897523D01*
X134545880Y-111992761D01*
X134545880Y-112183238D01*
X134593500Y-112278476D01*
X134641119Y-112326095D01*
X134736357Y-112373714D01*
X134974452Y-112373714D01*
X135069690Y-112326095D01*
X135117309Y-112278476D01*
X135164928Y-112183238D01*
X135164928Y-111992761D01*
X135117309Y-111897523D01*
X135069690Y-111849904D01*
X134974452Y-111802285D01*
%TO.C,C8*%
X135863333Y-114055142D02*
X135815714Y-114102761D01*
X135672857Y-114150380D01*
X135577619Y-114150380D01*
X135434761Y-114102761D01*
X135339523Y-114007523D01*
X135291904Y-113912285D01*
X135244285Y-113721809D01*
X135244285Y-113578952D01*
X135291904Y-113388476D01*
X135339523Y-113293238D01*
X135434761Y-113198000D01*
X135577619Y-113150380D01*
X135672857Y-113150380D01*
X135815714Y-113198000D01*
X135863333Y-113245619D01*
X136434761Y-113578952D02*
X136339523Y-113531333D01*
X136291904Y-113483714D01*
X136244285Y-113388476D01*
X136244285Y-113340857D01*
X136291904Y-113245619D01*
X136339523Y-113198000D01*
X136434761Y-113150380D01*
X136625238Y-113150380D01*
X136720476Y-113198000D01*
X136768095Y-113245619D01*
X136815714Y-113340857D01*
X136815714Y-113388476D01*
X136768095Y-113483714D01*
X136720476Y-113531333D01*
X136625238Y-113578952D01*
X136434761Y-113578952D01*
X136339523Y-113626571D01*
X136291904Y-113674190D01*
X136244285Y-113769428D01*
X136244285Y-113959904D01*
X136291904Y-114055142D01*
X136339523Y-114102761D01*
X136434761Y-114150380D01*
X136625238Y-114150380D01*
X136720476Y-114102761D01*
X136768095Y-114055142D01*
X136815714Y-113959904D01*
X136815714Y-113769428D01*
X136768095Y-113674190D01*
X136720476Y-113626571D01*
X136625238Y-113578952D01*
%TO.C,C7*%
X137615142Y-119226666D02*
X137662761Y-119274285D01*
X137710380Y-119417142D01*
X137710380Y-119512380D01*
X137662761Y-119655238D01*
X137567523Y-119750476D01*
X137472285Y-119798095D01*
X137281809Y-119845714D01*
X137138952Y-119845714D01*
X136948476Y-119798095D01*
X136853238Y-119750476D01*
X136758000Y-119655238D01*
X136710380Y-119512380D01*
X136710380Y-119417142D01*
X136758000Y-119274285D01*
X136805619Y-119226666D01*
X136710380Y-118893333D02*
X136710380Y-118226666D01*
X137710380Y-118655238D01*
%TO.C,C6*%
X137801642Y-98324666D02*
X137849261Y-98372285D01*
X137896880Y-98515142D01*
X137896880Y-98610380D01*
X137849261Y-98753238D01*
X137754023Y-98848476D01*
X137658785Y-98896095D01*
X137468309Y-98943714D01*
X137325452Y-98943714D01*
X137134976Y-98896095D01*
X137039738Y-98848476D01*
X136944500Y-98753238D01*
X136896880Y-98610380D01*
X136896880Y-98515142D01*
X136944500Y-98372285D01*
X136992119Y-98324666D01*
X136896880Y-97467523D02*
X136896880Y-97658000D01*
X136944500Y-97753238D01*
X136992119Y-97800857D01*
X137134976Y-97896095D01*
X137325452Y-97943714D01*
X137706404Y-97943714D01*
X137801642Y-97896095D01*
X137849261Y-97848476D01*
X137896880Y-97753238D01*
X137896880Y-97562761D01*
X137849261Y-97467523D01*
X137801642Y-97419904D01*
X137706404Y-97372285D01*
X137468309Y-97372285D01*
X137373071Y-97419904D01*
X137325452Y-97467523D01*
X137277833Y-97562761D01*
X137277833Y-97753238D01*
X137325452Y-97848476D01*
X137373071Y-97896095D01*
X137468309Y-97943714D01*
%TO.C,C4*%
X129993642Y-112739166D02*
X130041261Y-112786785D01*
X130088880Y-112929642D01*
X130088880Y-113024880D01*
X130041261Y-113167738D01*
X129946023Y-113262976D01*
X129850785Y-113310595D01*
X129660309Y-113358214D01*
X129517452Y-113358214D01*
X129326976Y-113310595D01*
X129231738Y-113262976D01*
X129136500Y-113167738D01*
X129088880Y-113024880D01*
X129088880Y-112929642D01*
X129136500Y-112786785D01*
X129184119Y-112739166D01*
X129422214Y-111882023D02*
X130088880Y-111882023D01*
X129041261Y-112120119D02*
X129755547Y-112358214D01*
X129755547Y-111739166D01*
%TO.C,C3*%
X132785142Y-98414166D02*
X132832761Y-98461785D01*
X132880380Y-98604642D01*
X132880380Y-98699880D01*
X132832761Y-98842738D01*
X132737523Y-98937976D01*
X132642285Y-98985595D01*
X132451809Y-99033214D01*
X132308952Y-99033214D01*
X132118476Y-98985595D01*
X132023238Y-98937976D01*
X131928000Y-98842738D01*
X131880380Y-98699880D01*
X131880380Y-98604642D01*
X131928000Y-98461785D01*
X131975619Y-98414166D01*
X131880380Y-98080833D02*
X131880380Y-97461785D01*
X132261333Y-97795119D01*
X132261333Y-97652261D01*
X132308952Y-97557023D01*
X132356571Y-97509404D01*
X132451809Y-97461785D01*
X132689904Y-97461785D01*
X132785142Y-97509404D01*
X132832761Y-97557023D01*
X132880380Y-97652261D01*
X132880380Y-97937976D01*
X132832761Y-98033214D01*
X132785142Y-98080833D01*
%TO.C,C2*%
X131517642Y-112739166D02*
X131565261Y-112786785D01*
X131612880Y-112929642D01*
X131612880Y-113024880D01*
X131565261Y-113167738D01*
X131470023Y-113262976D01*
X131374785Y-113310595D01*
X131184309Y-113358214D01*
X131041452Y-113358214D01*
X130850976Y-113310595D01*
X130755738Y-113262976D01*
X130660500Y-113167738D01*
X130612880Y-113024880D01*
X130612880Y-112929642D01*
X130660500Y-112786785D01*
X130708119Y-112739166D01*
X130708119Y-112358214D02*
X130660500Y-112310595D01*
X130612880Y-112215357D01*
X130612880Y-111977261D01*
X130660500Y-111882023D01*
X130708119Y-111834404D01*
X130803357Y-111786785D01*
X130898595Y-111786785D01*
X131041452Y-111834404D01*
X131612880Y-112405833D01*
X131612880Y-111786785D01*
%TO.C,C1*%
X205560333Y-105988142D02*
X205512714Y-106035761D01*
X205369857Y-106083380D01*
X205274619Y-106083380D01*
X205131761Y-106035761D01*
X205036523Y-105940523D01*
X204988904Y-105845285D01*
X204941285Y-105654809D01*
X204941285Y-105511952D01*
X204988904Y-105321476D01*
X205036523Y-105226238D01*
X205131761Y-105131000D01*
X205274619Y-105083380D01*
X205369857Y-105083380D01*
X205512714Y-105131000D01*
X205560333Y-105178619D01*
X206512714Y-106083380D02*
X205941285Y-106083380D01*
X206227000Y-106083380D02*
X206227000Y-105083380D01*
X206131761Y-105226238D01*
X206036523Y-105321476D01*
X205941285Y-105369095D01*
%TO.C,BT1*%
D16*
X185046000Y-107545800D02*
X185206000Y-107599133D01*
X185259333Y-107652466D01*
X185312666Y-107759133D01*
X185312666Y-107919133D01*
X185259333Y-108025800D01*
X185206000Y-108079133D01*
X185099333Y-108132466D01*
X184672666Y-108132466D01*
X184672666Y-107012466D01*
X185046000Y-107012466D01*
X185152666Y-107065800D01*
X185206000Y-107119133D01*
X185259333Y-107225800D01*
X185259333Y-107332466D01*
X185206000Y-107439133D01*
X185152666Y-107492466D01*
X185046000Y-107545800D01*
X184672666Y-107545800D01*
X185632666Y-107012466D02*
X186272666Y-107012466D01*
X185952666Y-108132466D02*
X185952666Y-107012466D01*
X187232666Y-108132466D02*
X186592666Y-108132466D01*
X186912666Y-108132466D02*
X186912666Y-107012466D01*
X186806000Y-107172466D01*
X186699333Y-107279133D01*
X186592666Y-107332466D01*
%TO.C,U3*%
D10*
X206756095Y-103854380D02*
X206756095Y-104663904D01*
X206803714Y-104759142D01*
X206851333Y-104806761D01*
X206946571Y-104854380D01*
X207137047Y-104854380D01*
X207232285Y-104806761D01*
X207279904Y-104759142D01*
X207327523Y-104663904D01*
X207327523Y-103854380D01*
X207708476Y-103854380D02*
X208327523Y-103854380D01*
X207994190Y-104235333D01*
X208137047Y-104235333D01*
X208232285Y-104282952D01*
X208279904Y-104330571D01*
X208327523Y-104425809D01*
X208327523Y-104663904D01*
X208279904Y-104759142D01*
X208232285Y-104806761D01*
X208137047Y-104854380D01*
X207851333Y-104854380D01*
X207756095Y-104806761D01*
X207708476Y-104759142D01*
%TO.C,U4*%
X154305095Y-103727380D02*
X154305095Y-104536904D01*
X154352714Y-104632142D01*
X154400333Y-104679761D01*
X154495571Y-104727380D01*
X154686047Y-104727380D01*
X154781285Y-104679761D01*
X154828904Y-104632142D01*
X154876523Y-104536904D01*
X154876523Y-103727380D01*
X155781285Y-104060714D02*
X155781285Y-104727380D01*
X155543190Y-103679761D02*
X155305095Y-104394047D01*
X155924142Y-104394047D01*
%TO.C,U5*%
X206692595Y-79851380D02*
X206692595Y-80660904D01*
X206740214Y-80756142D01*
X206787833Y-80803761D01*
X206883071Y-80851380D01*
X207073547Y-80851380D01*
X207168785Y-80803761D01*
X207216404Y-80756142D01*
X207264023Y-80660904D01*
X207264023Y-79851380D01*
X208216404Y-79851380D02*
X207740214Y-79851380D01*
X207692595Y-80327571D01*
X207740214Y-80279952D01*
X207835452Y-80232333D01*
X208073547Y-80232333D01*
X208168785Y-80279952D01*
X208216404Y-80327571D01*
X208264023Y-80422809D01*
X208264023Y-80660904D01*
X208216404Y-80756142D01*
X208168785Y-80803761D01*
X208073547Y-80851380D01*
X207835452Y-80851380D01*
X207740214Y-80803761D01*
X207692595Y-80756142D01*
%TO.C,U6*%
X154051095Y-79724380D02*
X154051095Y-80533904D01*
X154098714Y-80629142D01*
X154146333Y-80676761D01*
X154241571Y-80724380D01*
X154432047Y-80724380D01*
X154527285Y-80676761D01*
X154574904Y-80629142D01*
X154622523Y-80533904D01*
X154622523Y-79724380D01*
X155527285Y-79724380D02*
X155336809Y-79724380D01*
X155241571Y-79772000D01*
X155193952Y-79819619D01*
X155098714Y-79962476D01*
X155051095Y-80152952D01*
X155051095Y-80533904D01*
X155098714Y-80629142D01*
X155146333Y-80676761D01*
X155241571Y-80724380D01*
X155432047Y-80724380D01*
X155527285Y-80676761D01*
X155574904Y-80629142D01*
X155622523Y-80533904D01*
X155622523Y-80295809D01*
X155574904Y-80200571D01*
X155527285Y-80152952D01*
X155432047Y-80105333D01*
X155241571Y-80105333D01*
X155146333Y-80152952D01*
X155098714Y-80200571D01*
X155051095Y-80295809D01*
%TO.C,U7*%
X180340095Y-103981380D02*
X180340095Y-104790904D01*
X180387714Y-104886142D01*
X180435333Y-104933761D01*
X180530571Y-104981380D01*
X180721047Y-104981380D01*
X180816285Y-104933761D01*
X180863904Y-104886142D01*
X180911523Y-104790904D01*
X180911523Y-103981380D01*
X181292476Y-103981380D02*
X181959142Y-103981380D01*
X181530571Y-104981380D01*
%TO.C,U8*%
X180213095Y-80105380D02*
X180213095Y-80914904D01*
X180260714Y-81010142D01*
X180308333Y-81057761D01*
X180403571Y-81105380D01*
X180594047Y-81105380D01*
X180689285Y-81057761D01*
X180736904Y-81010142D01*
X180784523Y-80914904D01*
X180784523Y-80105380D01*
X181403571Y-80533952D02*
X181308333Y-80486333D01*
X181260714Y-80438714D01*
X181213095Y-80343476D01*
X181213095Y-80295857D01*
X181260714Y-80200619D01*
X181308333Y-80153000D01*
X181403571Y-80105380D01*
X181594047Y-80105380D01*
X181689285Y-80153000D01*
X181736904Y-80200619D01*
X181784523Y-80295857D01*
X181784523Y-80343476D01*
X181736904Y-80438714D01*
X181689285Y-80486333D01*
X181594047Y-80533952D01*
X181403571Y-80533952D01*
X181308333Y-80581571D01*
X181260714Y-80629190D01*
X181213095Y-80724428D01*
X181213095Y-80914904D01*
X181260714Y-81010142D01*
X181308333Y-81057761D01*
X181403571Y-81105380D01*
X181594047Y-81105380D01*
X181689285Y-81057761D01*
X181736904Y-81010142D01*
X181784523Y-80914904D01*
X181784523Y-80724428D01*
X181736904Y-80629190D01*
X181689285Y-80581571D01*
X181594047Y-80533952D01*
%TO.C,J2*%
D16*
X138769170Y-125583833D02*
X139483456Y-125583833D01*
X139626313Y-125631452D01*
X139721551Y-125726690D01*
X139769170Y-125869547D01*
X139769170Y-125964785D01*
X138864409Y-125155261D02*
X138816790Y-125107642D01*
X138769170Y-125012404D01*
X138769170Y-124774309D01*
X138816790Y-124679071D01*
X138864409Y-124631452D01*
X138959647Y-124583833D01*
X139054885Y-124583833D01*
X139197742Y-124631452D01*
X139769170Y-125202880D01*
X139769170Y-124583833D01*
%TD*%
M02*
