%TF.GenerationSoftware,KiCad,Pcbnew,(6.0.6)*%
%TF.CreationDate,2022-07-28T15:02:35+08:00*%
%TF.ProjectId,Motor_clock,4d6f746f-725f-4636-9c6f-636b2e6b6963,rev?*%
%TF.SameCoordinates,Original*%
%TF.FileFunction,Soldermask,Top*%
%TF.FilePolarity,Negative*%
%FSLAX46Y46*%
G04 Gerber Fmt 4.6, Leading zero omitted, Abs format (unit mm)*
G04 Created by KiCad (PCBNEW (6.0.6)) date 2022-07-28 15:02:35*
%MOMM*%
%LPD*%
G01*
G04 APERTURE LIST*
G04 Aperture macros list*
%AMRoundRect*
0 Rectangle with rounded corners*
0 $1 Rounding radius*
0 $2 $3 $4 $5 $6 $7 $8 $9 X,Y pos of 4 corners*
0 Add a 4 corners polygon primitive as box body*
4,1,4,$2,$3,$4,$5,$6,$7,$8,$9,$2,$3,0*
0 Add four circle primitives for the rounded corners*
1,1,$1+$1,$2,$3*
1,1,$1+$1,$4,$5*
1,1,$1+$1,$6,$7*
1,1,$1+$1,$8,$9*
0 Add four rect primitives between the rounded corners*
20,1,$1+$1,$2,$3,$4,$5,0*
20,1,$1+$1,$4,$5,$6,$7,0*
20,1,$1+$1,$6,$7,$8,$9,0*
20,1,$1+$1,$8,$9,$2,$3,0*%
G04 Aperture macros list end*
%ADD10R,1.250000X0.590000*%
%ADD11R,3.150000X4.780000*%
%ADD12RoundRect,0.225000X-0.225000X-0.250000X0.225000X-0.250000X0.225000X0.250000X-0.225000X0.250000X0*%
%ADD13RoundRect,0.225000X0.225000X0.250000X-0.225000X0.250000X-0.225000X-0.250000X0.225000X-0.250000X0*%
%ADD14RoundRect,0.225000X0.250000X-0.225000X0.250000X0.225000X-0.250000X0.225000X-0.250000X-0.225000X0*%
%ADD15RoundRect,0.250000X0.250000X0.475000X-0.250000X0.475000X-0.250000X-0.475000X0.250000X-0.475000X0*%
%ADD16RoundRect,0.250000X0.475000X-0.250000X0.475000X0.250000X-0.475000X0.250000X-0.475000X-0.250000X0*%
%ADD17RoundRect,0.218750X-0.256250X0.218750X-0.256250X-0.218750X0.256250X-0.218750X0.256250X0.218750X0*%
%ADD18RoundRect,0.250000X-0.600000X-0.725000X0.600000X-0.725000X0.600000X0.725000X-0.600000X0.725000X0*%
%ADD19O,1.700000X1.950000*%
%ADD20RoundRect,0.249999X-0.350001X-0.625001X0.350001X-0.625001X0.350001X0.625001X-0.350001X0.625001X0*%
%ADD21O,1.200000X1.750000*%
%ADD22R,1.700000X1.700000*%
%ADD23O,1.700000X1.700000*%
%ADD24RoundRect,0.249999X0.625001X-0.350001X0.625001X0.350001X-0.625001X0.350001X-0.625001X-0.350001X0*%
%ADD25O,1.750000X1.200000*%
%ADD26R,2.200000X1.500000*%
%ADD27RoundRect,0.200000X-0.275000X0.200000X-0.275000X-0.200000X0.275000X-0.200000X0.275000X0.200000X0*%
%ADD28RoundRect,0.200000X0.275000X-0.200000X0.275000X0.200000X-0.275000X0.200000X-0.275000X-0.200000X0*%
%ADD29RoundRect,0.200000X-0.200000X-0.275000X0.200000X-0.275000X0.200000X0.275000X-0.200000X0.275000X0*%
%ADD30RoundRect,0.200000X0.200000X0.275000X-0.200000X0.275000X-0.200000X-0.275000X0.200000X-0.275000X0*%
%ADD31R,1.550000X1.300000*%
%ADD32R,0.550000X1.600000*%
%ADD33R,1.600000X0.550000*%
%ADD34R,1.200000X1.400000*%
%ADD35C,1.524000*%
%ADD36O,4.000000X2.000000*%
%ADD37O,2.350000X4.700000*%
%ADD38C,3.200000*%
%ADD39RoundRect,0.249999X-0.625001X0.350001X-0.625001X-0.350001X0.625001X-0.350001X0.625001X0.350001X0*%
%ADD40RoundRect,0.249999X0.350001X0.625001X-0.350001X0.625001X-0.350001X-0.625001X0.350001X-0.625001X0*%
%ADD41RoundRect,0.100000X0.637500X0.100000X-0.637500X0.100000X-0.637500X-0.100000X0.637500X-0.100000X0*%
%ADD42RoundRect,0.150000X-0.875000X-0.150000X0.875000X-0.150000X0.875000X0.150000X-0.875000X0.150000X0*%
%ADD43RoundRect,0.225000X-0.250000X0.225000X-0.250000X-0.225000X0.250000X-0.225000X0.250000X0.225000X0*%
%ADD44R,2.500000X1.800000*%
%ADD45R,1.400000X1.200000*%
%ADD46RoundRect,0.150000X0.150000X-0.825000X0.150000X0.825000X-0.150000X0.825000X-0.150000X-0.825000X0*%
%ADD47R,1.250000X0.400000*%
%ADD48C,1.300000*%
%ADD49R,1.350000X0.600000*%
%ADD50O,1.900000X1.070000*%
%ADD51R,1.800000X2.500000*%
%ADD52R,0.800000X0.900000*%
%ADD53RoundRect,0.250000X0.312500X0.625000X-0.312500X0.625000X-0.312500X-0.625000X0.312500X-0.625000X0*%
G04 APERTURE END LIST*
D10*
%TO.C,VR1*%
X124155000Y-117850000D03*
X124155000Y-116900000D03*
X124155000Y-115950000D03*
X121645000Y-115950000D03*
X121645000Y-116900000D03*
X121645000Y-117850000D03*
%TD*%
D11*
%TO.C,BT1*%
X175564800Y-119532400D03*
X206604800Y-119532400D03*
%TD*%
D12*
%TO.C,C1*%
X204952000Y-107061000D03*
X206502000Y-107061000D03*
%TD*%
D13*
%TO.C,C2*%
X116275000Y-112100000D03*
X114725000Y-112100000D03*
%TD*%
D14*
%TO.C,C3*%
X133858000Y-99022500D03*
X133858000Y-97472500D03*
%TD*%
D13*
%TO.C,C4*%
X116275000Y-110500000D03*
X114725000Y-110500000D03*
%TD*%
D15*
%TO.C,C5*%
X116280500Y-108600000D03*
X114380500Y-108600000D03*
%TD*%
D14*
%TO.C,C6*%
X138874500Y-98933000D03*
X138874500Y-97383000D03*
%TD*%
D16*
%TO.C,C7*%
X125095000Y-121793000D03*
X125095000Y-119893000D03*
%TD*%
D13*
%TO.C,C8*%
X114625000Y-118400000D03*
X116175000Y-118400000D03*
%TD*%
D15*
%TO.C,C9*%
X116250000Y-115600000D03*
X114350000Y-115600000D03*
%TD*%
D17*
%TO.C,D1*%
X112700000Y-111712500D03*
X112700000Y-113287500D03*
%TD*%
D18*
%TO.C,J1*%
X165027600Y-121462800D03*
D19*
X167527600Y-121462800D03*
X170027600Y-121462800D03*
%TD*%
D20*
%TO.C,J3*%
X119126000Y-121412000D03*
D21*
X121126000Y-121412000D03*
%TD*%
D22*
%TO.C,J4*%
X135509000Y-69977000D03*
D23*
X138049000Y-69977000D03*
X135509000Y-72517000D03*
X138049000Y-72517000D03*
X135509000Y-75057000D03*
X138049000Y-75057000D03*
%TD*%
D24*
%TO.C,J5*%
X195707000Y-96075500D03*
D25*
X195707000Y-94075500D03*
X195707000Y-92075500D03*
X195707000Y-90075500D03*
%TD*%
D24*
%TO.C,J6*%
X143764000Y-96456500D03*
D25*
X143764000Y-94456500D03*
X143764000Y-92456500D03*
X143764000Y-90456500D03*
%TD*%
D24*
%TO.C,J7*%
X195897500Y-72390000D03*
D25*
X195897500Y-70390000D03*
X195897500Y-68390000D03*
X195897500Y-66390000D03*
%TD*%
D24*
%TO.C,J8*%
X143256000Y-71882000D03*
D25*
X143256000Y-69882000D03*
X143256000Y-67882000D03*
X143256000Y-65882000D03*
%TD*%
D24*
%TO.C,J9*%
X169799000Y-96393000D03*
D25*
X169799000Y-94393000D03*
X169799000Y-92393000D03*
X169799000Y-90393000D03*
%TD*%
D24*
%TO.C,J10*%
X169481500Y-72644000D03*
D25*
X169481500Y-70644000D03*
X169481500Y-68644000D03*
X169481500Y-66644000D03*
%TD*%
D26*
%TO.C,L1*%
X121208800Y-113998800D03*
X121208800Y-107598800D03*
%TD*%
D27*
%TO.C,R1*%
X123444000Y-90171000D03*
X123444000Y-91821000D03*
%TD*%
D28*
%TO.C,R2*%
X125399800Y-85368400D03*
X125399800Y-83718400D03*
%TD*%
%TO.C,R3*%
X125158500Y-93599000D03*
X125158500Y-91949000D03*
%TD*%
D29*
%TO.C,R4*%
X123318000Y-95123000D03*
X124968000Y-95123000D03*
%TD*%
D28*
%TO.C,R5*%
X125222000Y-90043000D03*
X125222000Y-88393000D03*
%TD*%
D27*
%TO.C,R7*%
X128041400Y-110972600D03*
X128041400Y-112622600D03*
%TD*%
D30*
%TO.C,R8*%
X116325000Y-113700000D03*
X114675000Y-113700000D03*
%TD*%
D31*
%TO.C,SW2*%
X113335000Y-87884000D03*
X121285000Y-87884000D03*
X121285000Y-92384000D03*
X113335000Y-92384000D03*
%TD*%
D32*
%TO.C,U2*%
X128962500Y-94864500D03*
X129762500Y-94864500D03*
X130562500Y-94864500D03*
X131362500Y-94864500D03*
X132162500Y-94864500D03*
X132962500Y-94864500D03*
X133762500Y-94864500D03*
X134562500Y-94864500D03*
D33*
X136012500Y-93414500D03*
X136012500Y-92614500D03*
X136012500Y-91814500D03*
X136012500Y-91014500D03*
X136012500Y-90214500D03*
X136012500Y-89414500D03*
X136012500Y-88614500D03*
X136012500Y-87814500D03*
D32*
X134562500Y-86364500D03*
X133762500Y-86364500D03*
X132962500Y-86364500D03*
X132162500Y-86364500D03*
X131362500Y-86364500D03*
X130562500Y-86364500D03*
X129762500Y-86364500D03*
X128962500Y-86364500D03*
D33*
X127512500Y-87814500D03*
X127512500Y-88614500D03*
X127512500Y-89414500D03*
X127512500Y-90214500D03*
X127512500Y-91014500D03*
X127512500Y-91814500D03*
X127512500Y-92614500D03*
X127512500Y-93414500D03*
%TD*%
D34*
%TO.C,Y1*%
X135509000Y-97050500D03*
X135509000Y-99250500D03*
X137209000Y-99250500D03*
X137209000Y-97050500D03*
%TD*%
D35*
%TO.C,U3*%
X215442800Y-102362000D03*
X215458040Y-99816920D03*
X215458040Y-97292160D03*
X215458040Y-94650560D03*
X215458040Y-92095320D03*
X215458040Y-89545160D03*
X215447880Y-86995000D03*
X215452960Y-84470240D03*
X202438000Y-102362000D03*
X202438000Y-99822000D03*
X202438000Y-97282000D03*
X202438000Y-94742000D03*
X202438000Y-92202000D03*
X202438000Y-89662000D03*
X202438000Y-87122000D03*
X202438000Y-84582000D03*
%TD*%
%TO.C,U4*%
X162991800Y-102235000D03*
X163007040Y-99689920D03*
X163007040Y-97165160D03*
X163007040Y-94523560D03*
X163007040Y-91968320D03*
X163007040Y-89418160D03*
X162996880Y-86868000D03*
X163001960Y-84343240D03*
X149987000Y-102235000D03*
X149987000Y-99695000D03*
X149987000Y-97155000D03*
X149987000Y-94615000D03*
X149987000Y-92075000D03*
X149987000Y-89535000D03*
X149987000Y-86995000D03*
X149987000Y-84455000D03*
%TD*%
%TO.C,U5*%
X215379300Y-78359000D03*
X215394540Y-75813920D03*
X215394540Y-73289160D03*
X215394540Y-70647560D03*
X215394540Y-68092320D03*
X215394540Y-65542160D03*
X215384380Y-62992000D03*
X215389460Y-60467240D03*
X202374500Y-78359000D03*
X202374500Y-75819000D03*
X202374500Y-73279000D03*
X202374500Y-70739000D03*
X202374500Y-68199000D03*
X202374500Y-65659000D03*
X202374500Y-63119000D03*
X202374500Y-60579000D03*
%TD*%
%TO.C,U6*%
X162737800Y-78232000D03*
X162753040Y-75686920D03*
X162753040Y-73162160D03*
X162753040Y-70520560D03*
X162753040Y-67965320D03*
X162753040Y-65415160D03*
X162742880Y-62865000D03*
X162747960Y-60340240D03*
X149733000Y-78232000D03*
X149733000Y-75692000D03*
X149733000Y-73152000D03*
X149733000Y-70612000D03*
X149733000Y-68072000D03*
X149733000Y-65532000D03*
X149733000Y-62992000D03*
X149733000Y-60452000D03*
%TD*%
%TO.C,U7*%
X189026800Y-102489000D03*
X189042040Y-99943920D03*
X189042040Y-97419160D03*
X189042040Y-94777560D03*
X189042040Y-92222320D03*
X189042040Y-89672160D03*
X189031880Y-87122000D03*
X189036960Y-84597240D03*
X176022000Y-102489000D03*
X176022000Y-99949000D03*
X176022000Y-97409000D03*
X176022000Y-94869000D03*
X176022000Y-92329000D03*
X176022000Y-89789000D03*
X176022000Y-87249000D03*
X176022000Y-84709000D03*
%TD*%
%TO.C,U8*%
X188899800Y-78613000D03*
X188915040Y-76067920D03*
X188915040Y-73543160D03*
X188915040Y-70901560D03*
X188915040Y-68346320D03*
X188915040Y-65796160D03*
X188904880Y-63246000D03*
X188909960Y-60721240D03*
X175895000Y-78613000D03*
X175895000Y-76073000D03*
X175895000Y-73533000D03*
X175895000Y-70993000D03*
X175895000Y-68453000D03*
X175895000Y-65913000D03*
X175895000Y-63373000D03*
X175895000Y-60833000D03*
%TD*%
D36*
%TO.C,J2*%
X131826000Y-114617500D03*
D37*
X136626000Y-117117500D03*
D36*
X131826000Y-120617500D03*
%TD*%
D38*
%TO.C,H2*%
X139065000Y-60579000D03*
%TD*%
D39*
%TO.C,J12*%
X133096000Y-58801000D03*
D25*
X133096000Y-60801000D03*
X133096000Y-62801000D03*
X133096000Y-64801000D03*
%TD*%
D39*
%TO.C,J13*%
X120142000Y-58833000D03*
D25*
X120142000Y-60833000D03*
X120142000Y-62833000D03*
X120142000Y-64833000D03*
%TD*%
D40*
%TO.C,J14*%
X130429000Y-71882000D03*
D21*
X128429000Y-71882000D03*
X126429000Y-71882000D03*
X124429000Y-71882000D03*
%TD*%
D20*
%TO.C,J15*%
X112840000Y-70739000D03*
D21*
X114840000Y-70739000D03*
X116840000Y-70739000D03*
X118840000Y-70739000D03*
%TD*%
D39*
%TO.C,J16*%
X126619000Y-58801000D03*
D25*
X126619000Y-60801000D03*
X126619000Y-62801000D03*
X126619000Y-64801000D03*
%TD*%
D39*
%TO.C,J17*%
X113665000Y-58801000D03*
D25*
X113665000Y-60801000D03*
X113665000Y-62801000D03*
X113665000Y-64801000D03*
%TD*%
D41*
%TO.C,U10*%
X133350000Y-84582000D03*
X133350000Y-83932000D03*
X133350000Y-83282000D03*
X133350000Y-82632000D03*
X133350000Y-81982000D03*
X133350000Y-81332000D03*
X133350000Y-80682000D03*
X133350000Y-80032000D03*
X133350000Y-79382000D03*
X133350000Y-78732000D03*
X133350000Y-78082000D03*
X133350000Y-77432000D03*
X127625000Y-77432000D03*
X127625000Y-78082000D03*
X127625000Y-78732000D03*
X127625000Y-79382000D03*
X127625000Y-80032000D03*
X127625000Y-80682000D03*
X127625000Y-81332000D03*
X127625000Y-81982000D03*
X127625000Y-82632000D03*
X127625000Y-83282000D03*
X127625000Y-83932000D03*
X127625000Y-84582000D03*
%TD*%
D42*
%TO.C,U1*%
X113128000Y-76835000D03*
X113128000Y-78105000D03*
X113128000Y-79375000D03*
X113128000Y-80645000D03*
X113128000Y-81915000D03*
X113128000Y-83185000D03*
X113128000Y-84455000D03*
X113128000Y-85725000D03*
X122428000Y-85725000D03*
X122428000Y-84455000D03*
X122428000Y-83185000D03*
X122428000Y-81915000D03*
X122428000Y-80645000D03*
X122428000Y-79375000D03*
X122428000Y-78105000D03*
X122428000Y-76835000D03*
%TD*%
D12*
%TO.C,C10*%
X116825000Y-105700000D03*
X118375000Y-105700000D03*
%TD*%
D13*
%TO.C,C12*%
X122075000Y-105700000D03*
X120525000Y-105700000D03*
%TD*%
D12*
%TO.C,C14*%
X127863000Y-98933000D03*
X129413000Y-98933000D03*
%TD*%
D43*
%TO.C,C13*%
X132207000Y-101028500D03*
X132207000Y-102578500D03*
%TD*%
D44*
%TO.C,D2*%
X132842000Y-106045000D03*
X128842000Y-106045000D03*
%TD*%
D12*
%TO.C,C11*%
X124125000Y-105700000D03*
X125675000Y-105700000D03*
%TD*%
D45*
%TO.C,Y2*%
X128016000Y-102665000D03*
X130216000Y-102665000D03*
X130216000Y-100965000D03*
X128016000Y-100965000D03*
%TD*%
D46*
%TO.C,U9*%
X117055000Y-103675000D03*
X118325000Y-103675000D03*
X119595000Y-103675000D03*
X120865000Y-103675000D03*
X122135000Y-103675000D03*
X123405000Y-103675000D03*
X124675000Y-103675000D03*
X125945000Y-103675000D03*
X125945000Y-98725000D03*
X124675000Y-98725000D03*
X123405000Y-98725000D03*
X122135000Y-98725000D03*
X120865000Y-98725000D03*
X119595000Y-98725000D03*
X118325000Y-98725000D03*
X117055000Y-98725000D03*
%TD*%
D47*
%TO.C,J11*%
X114427000Y-99904000D03*
X114427000Y-100554000D03*
X114427000Y-101204000D03*
X114427000Y-101854000D03*
X114427000Y-102504000D03*
D48*
X114427000Y-98779000D03*
D49*
X111752000Y-102004000D03*
X111752000Y-100404000D03*
D48*
X114427000Y-103629000D03*
D50*
X111777000Y-104804000D03*
X111777000Y-97604000D03*
%TD*%
D38*
%TO.C,H4*%
X113157000Y-124460000D03*
%TD*%
D35*
%TO.C,BZ1*%
X145034000Y-118755000D03*
X145034000Y-126355000D03*
%TD*%
D38*
%TO.C,H3*%
X215341200Y-123952000D03*
%TD*%
%TO.C,H1*%
X208432400Y-64262000D03*
%TD*%
D43*
%TO.C,C15*%
X157073600Y-121741600D03*
X157073600Y-123291600D03*
%TD*%
D51*
%TO.C,D3*%
X153847800Y-122453400D03*
X153847800Y-126453400D03*
%TD*%
D52*
%TO.C,Q1*%
X158912600Y-124891800D03*
X157012600Y-124891800D03*
X157962600Y-126891800D03*
%TD*%
D53*
%TO.C,R6*%
X132871400Y-111099600D03*
X129946400Y-111099600D03*
%TD*%
D28*
%TO.C,R9*%
X159029400Y-123367800D03*
X159029400Y-121717800D03*
%TD*%
M02*
