M48
; DRILL file {KiCad (5.1.9-0-10_14)} date Monday, August 09, 2021 at 10:27:00 PM
; FORMAT={-:-/ absolute / inch / decimal}
; #@! TF.CreationDate,2021-08-09T22:27:00+08:00
; #@! TF.GenerationSoftware,Kicad,Pcbnew,(5.1.9-0-10_14)
; #@! TF.FileFunction,Plated,1,2,PTH
FMAT,2
INCH
T1C0.0157
T2C0.0197
T3C0.0276
T4C0.0295
T5C0.0300
T6C0.0315
T7C0.0374
T8C0.0394
%
G90
G05
T1
X4.532Y-4.19
X4.57Y-2.435
X4.575Y-3.82
X4.6275Y-4.0545
X4.635Y-2.345
X4.675Y-2.915
X4.675Y-3.52
X4.6775Y-4.0545
X4.735Y-3.78
X4.74Y-3.38
X4.755Y-3.115
X4.84Y-3.67
X4.8875Y-3.1425
X4.89Y-3.66
X4.936Y-3.419
X4.95Y-4.974
X4.955Y-4.0134
X4.9623Y-3.195
X4.977Y-4.658
X5.0Y-4.145
X5.01Y-3.4
X5.025Y-3.755
X5.045Y-4.2789
X5.0815Y-3.6225
X5.085Y-3.06
X5.0897Y-3.1693
X5.09Y-3.115
X5.11Y-3.675
X5.1117Y-3.525
X5.135Y-3.155
X5.1373Y-3.1123
X5.15Y-2.555
X5.155Y-3.0711
X5.16Y-3.84
X5.1648Y-3.1848
X5.165Y-3.225
X5.1827Y-3.1479
X5.2365Y-2.875
X5.265Y-2.84
X5.2707Y-3.4857
X5.275Y-3.6425
X5.275Y-4.005
X5.315Y-3.32
X5.4Y-4.005
X5.428Y-3.6945
X5.505Y-3.55
X5.5642Y-2.965
X5.755Y-2.965
X5.921Y-4.89
X6.045Y-3.4375
X6.124Y-4.71
X6.3Y-3.4125
X7.895Y-3.4725
X8.315Y-2.8375
X8.655Y-2.38
T3
X4.505Y-3.8889
X4.505Y-4.0799
T4
X4.4425Y-2.785
X4.475Y-2.315
X4.475Y-2.3937
X4.475Y-2.4725
X4.475Y-2.5512
X4.5213Y-2.785
X4.6Y-2.785
X4.6787Y-2.785
X4.69Y-4.78
X4.73Y-2.3163
X4.73Y-2.395
X4.73Y-2.4737
X4.73Y-2.5525
X4.7687Y-4.78
X4.8988Y-2.83
X4.9775Y-2.83
X4.985Y-2.315
X4.985Y-2.3937
X4.985Y-2.4725
X4.985Y-2.5512
X5.0563Y-2.83
X5.135Y-2.83
X5.24Y-2.315
X5.24Y-2.3937
X5.24Y-2.4725
X5.24Y-2.5512
X5.64Y-2.5938
X5.64Y-2.6725
X5.64Y-2.7513
X5.64Y-2.83
X5.66Y-3.5613
X5.66Y-3.64
X5.66Y-3.7188
X5.66Y-3.7975
X6.6725Y-2.6238
X6.6725Y-2.7025
X6.6725Y-2.7813
X6.6725Y-2.86
X6.685Y-3.5588
X6.685Y-3.6375
X6.685Y-3.7163
X6.685Y-3.795
X7.705Y-3.5463
X7.705Y-3.625
X7.705Y-3.7038
X7.705Y-3.7825
X7.7125Y-2.6138
X7.7125Y-2.6925
X7.7125Y-2.7713
X7.7125Y-2.85
T5
X5.71Y-4.6754
X5.71Y-4.9746
T7
X6.4971Y-4.782
X6.5956Y-4.782
X6.694Y-4.782
T8
X5.335Y-2.755
X5.335Y-2.855
X5.335Y-2.955
X5.435Y-2.755
X5.435Y-2.855
X5.435Y-2.955
X5.895Y-2.38
X5.895Y-2.48
X5.895Y-2.58
X5.895Y-2.68
X5.895Y-2.78
X5.895Y-2.88
X5.895Y-2.98
X5.895Y-3.08
X5.905Y-3.325
X5.905Y-3.425
X5.905Y-3.525
X5.905Y-3.625
X5.905Y-3.725
X5.905Y-3.825
X5.905Y-3.925
X5.905Y-4.025
X6.407Y-3.08
X6.4072Y-2.475
X6.4074Y-2.3756
X6.4076Y-2.5754
X6.4076Y-2.6758
X6.4076Y-2.7764
X6.4076Y-2.8804
X6.4076Y-2.9798
X6.417Y-4.025
X6.4172Y-3.42
X6.4174Y-3.3206
X6.4176Y-3.5204
X6.4176Y-3.6208
X6.4176Y-3.7214
X6.4176Y-3.8254
X6.4176Y-3.9248
X6.925Y-2.395
X6.925Y-2.495
X6.925Y-2.595
X6.925Y-2.695
X6.925Y-2.795
X6.925Y-2.895
X6.925Y-2.995
X6.925Y-3.095
X6.93Y-3.335
X6.93Y-3.435
X6.93Y-3.535
X6.93Y-3.635
X6.93Y-3.735
X6.93Y-3.835
X6.93Y-3.935
X6.93Y-4.035
X7.437Y-3.095
X7.4372Y-2.49
X7.4374Y-2.3906
X7.4376Y-2.5904
X7.4376Y-2.6908
X7.4376Y-2.7914
X7.4376Y-2.8954
X7.4376Y-2.9948
X7.442Y-4.035
X7.4422Y-3.43
X7.4424Y-3.3306
X7.4426Y-3.5304
X7.4426Y-3.6308
X7.4426Y-3.7314
X7.4426Y-3.8354
X7.4426Y-3.9348
X7.9675Y-2.385
X7.9675Y-2.485
X7.9675Y-2.585
X7.9675Y-2.685
X7.9675Y-2.785
X7.9675Y-2.885
X7.9675Y-2.985
X7.9675Y-3.085
X7.97Y-3.33
X7.97Y-3.43
X7.97Y-3.53
X7.97Y-3.63
X7.97Y-3.73
X7.97Y-3.83
X7.97Y-3.93
X7.97Y-4.03
X8.4795Y-3.085
X8.4797Y-2.48
X8.4799Y-2.3806
X8.4801Y-2.5804
X8.4801Y-2.6808
X8.4801Y-2.7814
X8.4801Y-2.8854
X8.4801Y-2.9848
X8.482Y-4.03
X8.4822Y-3.425
X8.4824Y-3.3256
X8.4826Y-3.5254
X8.4826Y-3.6258
X8.4826Y-3.7264
X8.4826Y-3.8304
X8.4826Y-3.9298
T2
G00X4.3849Y-3.8427
M15
G01X4.4164Y-3.8427
M16
G05
G00X4.3849Y-4.1261
M15
G01X4.4164Y-4.1261
M16
G05
T6
G00X5.1467Y-4.5125
M15
G01X5.2333Y-4.5125
M16
G05
G00X5.1467Y-4.7487
M15
G01X5.2333Y-4.7487
M16
G05
G00X5.379Y-4.6641
M15
G01X5.379Y-4.5578
M16
G05
T0
M30
