%TF.GenerationSoftware,KiCad,Pcbnew,(5.1.9-0-10_14)*%
%TF.CreationDate,2021-07-31T12:38:44+08:00*%
%TF.ProjectId,Encoder,456e636f-6465-4722-9e6b-696361645f70,rev?*%
%TF.SameCoordinates,Original*%
%TF.FileFunction,Paste,Top*%
%TF.FilePolarity,Positive*%
%FSLAX46Y46*%
G04 Gerber Fmt 4.6, Leading zero omitted, Abs format (unit mm)*
G04 Created by KiCad (PCBNEW (5.1.9-0-10_14)) date 2021-07-31 12:38:44*
%MOMM*%
%LPD*%
G01*
G04 APERTURE LIST*
%ADD10R,0.600000X1.400000*%
G04 APERTURE END LIST*
%TO.C,R3*%
G36*
G01*
X133583000Y-107676000D02*
X134133000Y-107676000D01*
G75*
G02*
X134333000Y-107876000I0J-200000D01*
G01*
X134333000Y-108276000D01*
G75*
G02*
X134133000Y-108476000I-200000J0D01*
G01*
X133583000Y-108476000D01*
G75*
G02*
X133383000Y-108276000I0J200000D01*
G01*
X133383000Y-107876000D01*
G75*
G02*
X133583000Y-107676000I200000J0D01*
G01*
G37*
G36*
G01*
X133583000Y-106026000D02*
X134133000Y-106026000D01*
G75*
G02*
X134333000Y-106226000I0J-200000D01*
G01*
X134333000Y-106626000D01*
G75*
G02*
X134133000Y-106826000I-200000J0D01*
G01*
X133583000Y-106826000D01*
G75*
G02*
X133383000Y-106626000I0J200000D01*
G01*
X133383000Y-106226000D01*
G75*
G02*
X133583000Y-106026000I200000J0D01*
G01*
G37*
%TD*%
%TO.C,R2*%
G36*
G01*
X135361000Y-107677000D02*
X135911000Y-107677000D01*
G75*
G02*
X136111000Y-107877000I0J-200000D01*
G01*
X136111000Y-108277000D01*
G75*
G02*
X135911000Y-108477000I-200000J0D01*
G01*
X135361000Y-108477000D01*
G75*
G02*
X135161000Y-108277000I0J200000D01*
G01*
X135161000Y-107877000D01*
G75*
G02*
X135361000Y-107677000I200000J0D01*
G01*
G37*
G36*
G01*
X135361000Y-106027000D02*
X135911000Y-106027000D01*
G75*
G02*
X136111000Y-106227000I0J-200000D01*
G01*
X136111000Y-106627000D01*
G75*
G02*
X135911000Y-106827000I-200000J0D01*
G01*
X135361000Y-106827000D01*
G75*
G02*
X135161000Y-106627000I0J200000D01*
G01*
X135161000Y-106227000D01*
G75*
G02*
X135361000Y-106027000I200000J0D01*
G01*
G37*
%TD*%
%TO.C,C2*%
G36*
G01*
X140467500Y-114457500D02*
X140467500Y-113507500D01*
G75*
G02*
X140717500Y-113257500I250000J0D01*
G01*
X141217500Y-113257500D01*
G75*
G02*
X141467500Y-113507500I0J-250000D01*
G01*
X141467500Y-114457500D01*
G75*
G02*
X141217500Y-114707500I-250000J0D01*
G01*
X140717500Y-114707500D01*
G75*
G02*
X140467500Y-114457500I0J250000D01*
G01*
G37*
G36*
G01*
X138567500Y-114457500D02*
X138567500Y-113507500D01*
G75*
G02*
X138817500Y-113257500I250000J0D01*
G01*
X139317500Y-113257500D01*
G75*
G02*
X139567500Y-113507500I0J-250000D01*
G01*
X139567500Y-114457500D01*
G75*
G02*
X139317500Y-114707500I-250000J0D01*
G01*
X138817500Y-114707500D01*
G75*
G02*
X138567500Y-114457500I0J250000D01*
G01*
G37*
%TD*%
D10*
%TO.C,U1*%
X138811000Y-106329500D03*
X140081000Y-106329500D03*
X141351000Y-106329500D03*
X142621000Y-106329500D03*
X142621000Y-111729500D03*
X141351000Y-111729500D03*
X140081000Y-111729500D03*
X138811000Y-111729500D03*
%TD*%
%TO.C,R1*%
G36*
G01*
X152727498Y-108979000D02*
X153977502Y-108979000D01*
G75*
G02*
X154227500Y-109228998I0J-249998D01*
G01*
X154227500Y-109854002D01*
G75*
G02*
X153977502Y-110104000I-249998J0D01*
G01*
X152727498Y-110104000D01*
G75*
G02*
X152477500Y-109854002I0J249998D01*
G01*
X152477500Y-109228998D01*
G75*
G02*
X152727498Y-108979000I249998J0D01*
G01*
G37*
G36*
G01*
X152727498Y-106054000D02*
X153977502Y-106054000D01*
G75*
G02*
X154227500Y-106303998I0J-249998D01*
G01*
X154227500Y-106929002D01*
G75*
G02*
X153977502Y-107179000I-249998J0D01*
G01*
X152727498Y-107179000D01*
G75*
G02*
X152477500Y-106929002I0J249998D01*
G01*
X152477500Y-106303998D01*
G75*
G02*
X152727498Y-106054000I249998J0D01*
G01*
G37*
%TD*%
%TO.C,C1*%
G36*
G01*
X136111000Y-110360000D02*
X135161000Y-110360000D01*
G75*
G02*
X134911000Y-110110000I0J250000D01*
G01*
X134911000Y-109610000D01*
G75*
G02*
X135161000Y-109360000I250000J0D01*
G01*
X136111000Y-109360000D01*
G75*
G02*
X136361000Y-109610000I0J-250000D01*
G01*
X136361000Y-110110000D01*
G75*
G02*
X136111000Y-110360000I-250000J0D01*
G01*
G37*
G36*
G01*
X136111000Y-112260000D02*
X135161000Y-112260000D01*
G75*
G02*
X134911000Y-112010000I0J250000D01*
G01*
X134911000Y-111510000D01*
G75*
G02*
X135161000Y-111260000I250000J0D01*
G01*
X136111000Y-111260000D01*
G75*
G02*
X136361000Y-111510000I0J-250000D01*
G01*
X136361000Y-112010000D01*
G75*
G02*
X136111000Y-112260000I-250000J0D01*
G01*
G37*
%TD*%
M02*
