%TF.GenerationSoftware,KiCad,Pcbnew,(5.1.9-0-10_14)*%
%TF.CreationDate,2021-07-31T12:38:44+08:00*%
%TF.ProjectId,Encoder,456e636f-6465-4722-9e6b-696361645f70,rev?*%
%TF.SameCoordinates,Original*%
%TF.FileFunction,Legend,Bot*%
%TF.FilePolarity,Positive*%
%FSLAX46Y46*%
G04 Gerber Fmt 4.6, Leading zero omitted, Abs format (unit mm)*
G04 Created by KiCad (PCBNEW (5.1.9-0-10_14)) date 2021-07-31 12:38:44*
%MOMM*%
%LPD*%
G01*
G04 APERTURE LIST*
%ADD10C,0.010000*%
%ADD11C,0.120000*%
%ADD12C,0.150000*%
G04 APERTURE END LIST*
D10*
%TO.C,G\u002A\u002A\u002A*%
G36*
X148856700Y-102400100D02*
G01*
X133083300Y-102400100D01*
X133083300Y-106349800D01*
X138550866Y-106349800D01*
X138830050Y-106070400D01*
X139109233Y-105791000D01*
X140224908Y-105791000D01*
X140216458Y-107915075D01*
X140215486Y-108166485D01*
X140214546Y-108423753D01*
X140213644Y-108684502D01*
X140212785Y-108946355D01*
X140211977Y-109206934D01*
X140211226Y-109463864D01*
X140210538Y-109714766D01*
X140209918Y-109957263D01*
X140209374Y-110188979D01*
X140208912Y-110407537D01*
X140208538Y-110610559D01*
X140208258Y-110795668D01*
X140208078Y-110960487D01*
X140208005Y-111102640D01*
X140208004Y-111121825D01*
X140208000Y-112204500D01*
X140779500Y-112204500D01*
X140779500Y-110111347D01*
X142306105Y-108557599D01*
X143832710Y-107003850D01*
X144233330Y-106996049D01*
X144358737Y-106993621D01*
X144461083Y-106991611D01*
X144542700Y-106989883D01*
X144605923Y-106988302D01*
X144653082Y-106986732D01*
X144686512Y-106985037D01*
X144708544Y-106983082D01*
X144721512Y-106980731D01*
X144727749Y-106977849D01*
X144729588Y-106974300D01*
X144729360Y-106969947D01*
X144729200Y-106967221D01*
X144734622Y-106948675D01*
X144749153Y-106913651D01*
X144770192Y-106868208D01*
X144782349Y-106843452D01*
X144853794Y-106728423D01*
X144945168Y-106626448D01*
X145053261Y-106540101D01*
X145174866Y-106471955D01*
X145303437Y-106425477D01*
X145402562Y-106407640D01*
X145512973Y-106402642D01*
X145624822Y-106410131D01*
X145728261Y-106429753D01*
X145768499Y-106442114D01*
X145898919Y-106500491D01*
X146016507Y-106578048D01*
X146118036Y-106672228D01*
X146200279Y-106780471D01*
X146205108Y-106788306D01*
X146266498Y-106909863D01*
X146304575Y-107035817D01*
X146320746Y-107171148D01*
X146321485Y-107200700D01*
X146319340Y-107297617D01*
X146309216Y-107379893D01*
X146288885Y-107457630D01*
X146256120Y-107540927D01*
X146237646Y-107580987D01*
X146181469Y-107676729D01*
X146108167Y-107768119D01*
X146023566Y-107849193D01*
X145933494Y-107913985D01*
X145888789Y-107938142D01*
X145797429Y-107981750D01*
X145797119Y-108316763D01*
X146177000Y-108316763D01*
X146177000Y-108280992D01*
X146178427Y-108259345D01*
X146187223Y-108249888D01*
X146210162Y-108249208D01*
X146235020Y-108251760D01*
X146293041Y-108258300D01*
X146288995Y-108209691D01*
X146283555Y-108177865D01*
X146269346Y-108157255D01*
X146239433Y-108138833D01*
X146231567Y-108134916D01*
X146198063Y-108115956D01*
X146182216Y-108097360D01*
X146177675Y-108071193D01*
X146177592Y-108067475D01*
X146179747Y-108039496D01*
X146185793Y-108026649D01*
X146186525Y-108026554D01*
X146201396Y-108033836D01*
X146228672Y-108051998D01*
X146246338Y-108064953D01*
X146296626Y-108102999D01*
X146313334Y-108071111D01*
X146339084Y-108043338D01*
X146374598Y-108028875D01*
X146409506Y-108031322D01*
X146417090Y-108035102D01*
X146442026Y-108059561D01*
X146458263Y-108098416D01*
X146466857Y-108155356D01*
X146468937Y-108216700D01*
X146469149Y-108324650D01*
X146323074Y-108320707D01*
X146177000Y-108316763D01*
X145797119Y-108316763D01*
X145796757Y-108707476D01*
X146179718Y-108707476D01*
X146193339Y-108700036D01*
X146210443Y-108699271D01*
X146246850Y-108699241D01*
X146242761Y-108799151D01*
X146241223Y-108849388D01*
X146242482Y-108879855D01*
X146247735Y-108896130D01*
X146258183Y-108903792D01*
X146265763Y-108906145D01*
X146288901Y-108905957D01*
X146301083Y-108888375D01*
X146303554Y-108850647D01*
X146301828Y-108826352D01*
X146299875Y-108793873D01*
X146306039Y-108779387D01*
X146325798Y-108775629D01*
X146340144Y-108775500D01*
X146367817Y-108777330D01*
X146374227Y-108784388D01*
X146369081Y-108792645D01*
X146360526Y-108817859D01*
X146360089Y-108854295D01*
X146367342Y-108889254D01*
X146372720Y-108900674D01*
X146392171Y-108913887D01*
X146400966Y-108915200D01*
X146410584Y-108911116D01*
X146415836Y-108895731D01*
X146417421Y-108864349D01*
X146416092Y-108813567D01*
X146415011Y-108758795D01*
X146418231Y-108725262D01*
X146427288Y-108708957D01*
X146443719Y-108705871D01*
X146456400Y-108708340D01*
X146465019Y-108714701D01*
X146470233Y-108731267D01*
X146472513Y-108762357D01*
X146472332Y-108812290D01*
X146471457Y-108845973D01*
X146467465Y-108978700D01*
X146189700Y-108978700D01*
X146189526Y-108867575D01*
X146188591Y-108813482D01*
X146186251Y-108766339D01*
X146182949Y-108734039D01*
X146181695Y-108727875D01*
X146179718Y-108707476D01*
X145796757Y-108707476D01*
X145796699Y-108769150D01*
X145796401Y-108931525D01*
X145795817Y-109104695D01*
X145794981Y-109283745D01*
X145793976Y-109454950D01*
X146183350Y-109454950D01*
X146183350Y-109423200D01*
X146184179Y-109409303D01*
X146189611Y-109399937D01*
X146204059Y-109393879D01*
X146231936Y-109389903D01*
X146277655Y-109386785D01*
X146323050Y-109384436D01*
X146379562Y-109381398D01*
X146425713Y-109378538D01*
X146456227Y-109376208D01*
X146465925Y-109374911D01*
X146468035Y-109384275D01*
X146469076Y-109410532D01*
X146469100Y-109415751D01*
X146469100Y-109459101D01*
X146326225Y-109457026D01*
X146183350Y-109454950D01*
X145793976Y-109454950D01*
X145793924Y-109463759D01*
X145792679Y-109639823D01*
X145791280Y-109807020D01*
X145789760Y-109960436D01*
X145788914Y-110031274D01*
X146184665Y-110031274D01*
X146190733Y-109961467D01*
X146217218Y-109889925D01*
X146230949Y-109871457D01*
X146248213Y-109871971D01*
X146271502Y-109887154D01*
X146285435Y-109900950D01*
X146283065Y-109905800D01*
X146268807Y-109916112D01*
X146255238Y-109938148D01*
X146241083Y-109989143D01*
X146243516Y-110036491D01*
X146259373Y-110076501D01*
X146285489Y-110105481D01*
X146318700Y-110119738D01*
X146355839Y-110115579D01*
X146388906Y-110094087D01*
X146410519Y-110058489D01*
X146418734Y-110011568D01*
X146412841Y-109964005D01*
X146399457Y-109935351D01*
X146388227Y-109914799D01*
X146394558Y-109900541D01*
X146411710Y-109888075D01*
X146435530Y-109873477D01*
X146447867Y-109867700D01*
X146452913Y-109879039D01*
X146461012Y-109908576D01*
X146469213Y-109944438D01*
X146477245Y-110021868D01*
X146466705Y-110085970D01*
X146438767Y-110134787D01*
X146394603Y-110166363D01*
X146335386Y-110178744D01*
X146328665Y-110178850D01*
X146284674Y-110175637D01*
X146254252Y-110163385D01*
X146233533Y-110145907D01*
X146199027Y-110094256D01*
X146184665Y-110031274D01*
X145788914Y-110031274D01*
X145788150Y-110095155D01*
X145787549Y-110138559D01*
X145779129Y-110720567D01*
X145501111Y-110443359D01*
X145223094Y-110166150D01*
X145240648Y-107994450D01*
X145159549Y-107954746D01*
X145046735Y-107888421D01*
X144944601Y-107806555D01*
X144857983Y-107713646D01*
X144791714Y-107614189D01*
X144790113Y-107611192D01*
X144760993Y-107556300D01*
X144083174Y-107556300D01*
X143772498Y-107870625D01*
X143722067Y-107921700D01*
X143655394Y-107989306D01*
X143574041Y-108071857D01*
X143479567Y-108167767D01*
X143373533Y-108275452D01*
X143257502Y-108393324D01*
X143133032Y-108519798D01*
X143001686Y-108653288D01*
X142865023Y-108792209D01*
X142724605Y-108934975D01*
X142581993Y-109079999D01*
X142438747Y-109225696D01*
X142400649Y-109264450D01*
X141339477Y-110343950D01*
X141338888Y-110994825D01*
X141338396Y-111539630D01*
X143065500Y-111539630D01*
X143065500Y-109167740D01*
X143113489Y-109171645D01*
X143129301Y-109174103D01*
X143145601Y-109180212D01*
X143164788Y-109192071D01*
X143189259Y-109211780D01*
X143221414Y-109241438D01*
X143263651Y-109283145D01*
X143318366Y-109339000D01*
X143387960Y-109411102D01*
X143392889Y-109416227D01*
X143624300Y-109656903D01*
X143624300Y-112079675D01*
X143344900Y-111809652D01*
X143065500Y-111539630D01*
X141338396Y-111539630D01*
X141338300Y-111645700D01*
X142519400Y-111645700D01*
X142519400Y-112204500D01*
X143065500Y-112204500D01*
X143065500Y-112039400D01*
X143065742Y-111977982D01*
X143066405Y-111926924D01*
X143067393Y-111890941D01*
X143068610Y-111874750D01*
X143068858Y-111874300D01*
X143078443Y-111882841D01*
X143103060Y-111906585D01*
X143139837Y-111942714D01*
X143185906Y-111988409D01*
X143236950Y-112039400D01*
X143385056Y-112187836D01*
X144145000Y-112187836D01*
X144145000Y-111823613D01*
X144145147Y-111709813D01*
X144145572Y-111584589D01*
X144146249Y-111450088D01*
X144147153Y-111308457D01*
X144148257Y-111161843D01*
X144149537Y-111012392D01*
X144150966Y-110862251D01*
X144152519Y-110713566D01*
X144154170Y-110568485D01*
X144155894Y-110429154D01*
X144157664Y-110297719D01*
X144159457Y-110176327D01*
X144161244Y-110067126D01*
X144163002Y-109972261D01*
X144164704Y-109893879D01*
X144166326Y-109834127D01*
X144167840Y-109795151D01*
X144169221Y-109779099D01*
X144169420Y-109778800D01*
X144179945Y-109787446D01*
X144206112Y-109811919D01*
X144245666Y-109850024D01*
X144296352Y-109899563D01*
X144355916Y-109958343D01*
X144422101Y-110024166D01*
X144448774Y-110050824D01*
X144720577Y-110322848D01*
X144715813Y-110817668D01*
X146189700Y-110817668D01*
X146191845Y-110792788D01*
X146197075Y-110785371D01*
X146197719Y-110785887D01*
X146213857Y-110787158D01*
X146229469Y-110781207D01*
X146244330Y-110761443D01*
X146252861Y-110727328D01*
X146254861Y-110687796D01*
X146250129Y-110651779D01*
X146238463Y-110628211D01*
X146233003Y-110624668D01*
X146209220Y-110621598D01*
X146201253Y-110624059D01*
X146194181Y-110617454D01*
X146190098Y-110592392D01*
X146189700Y-110579092D01*
X146189700Y-110526985D01*
X146314407Y-110591043D01*
X146367000Y-110617104D01*
X146412825Y-110638060D01*
X146446299Y-110651462D01*
X146460457Y-110655100D01*
X146475772Y-110662463D01*
X146481552Y-110687940D01*
X146481800Y-110698761D01*
X146478562Y-110729436D01*
X146466887Y-110740981D01*
X146459575Y-110741529D01*
X146439381Y-110746372D01*
X146402204Y-110760163D01*
X146353844Y-110780618D01*
X146313525Y-110799053D01*
X146189700Y-110857469D01*
X146189700Y-110817668D01*
X144715813Y-110817668D01*
X144711553Y-111260076D01*
X144710053Y-111411943D01*
X144708553Y-111556253D01*
X144707080Y-111691019D01*
X144705658Y-111814253D01*
X144704313Y-111923969D01*
X144703069Y-112018179D01*
X144701952Y-112094895D01*
X144700987Y-112152131D01*
X144700200Y-112187899D01*
X144699626Y-112200207D01*
X144686663Y-112200721D01*
X144652008Y-112200534D01*
X144599359Y-112199708D01*
X144532412Y-112198306D01*
X144454865Y-112196392D01*
X144420861Y-112195473D01*
X144145000Y-112187836D01*
X143385056Y-112187836D01*
X143401683Y-112204500D01*
X145207919Y-112204500D01*
X145216151Y-112061625D01*
X145217938Y-112017637D01*
X145219593Y-111951828D01*
X145221076Y-111867777D01*
X145222341Y-111769065D01*
X145223346Y-111659271D01*
X145224049Y-111541973D01*
X145224406Y-111420752D01*
X145224442Y-111372759D01*
X145224500Y-110826767D01*
X145503900Y-111105950D01*
X145586462Y-111188449D01*
X146183350Y-111188449D01*
X146259550Y-111188441D01*
X146251184Y-111394303D01*
X146366498Y-111389827D01*
X146481812Y-111385350D01*
X146481820Y-111461550D01*
X146191204Y-111461550D01*
X146187277Y-111325000D01*
X146183350Y-111188449D01*
X145586462Y-111188449D01*
X145783300Y-111385134D01*
X145783300Y-112021358D01*
X146190683Y-112021358D01*
X146191583Y-111964629D01*
X146198754Y-111914745D01*
X146207487Y-111889545D01*
X146222583Y-111867732D01*
X146243900Y-111857630D01*
X146280749Y-111854956D01*
X146282730Y-111854943D01*
X146340186Y-111854635D01*
X146344318Y-111934344D01*
X146348450Y-112014054D01*
X146304000Y-112013025D01*
X146279208Y-112010863D01*
X146273261Y-112006788D01*
X146275425Y-112005590D01*
X146286853Y-111989582D01*
X146291300Y-111962142D01*
X146287050Y-111934731D01*
X146271399Y-111925369D01*
X146265900Y-111925100D01*
X146251396Y-111928040D01*
X146243740Y-111940824D01*
X146240835Y-111969397D01*
X146240500Y-111997125D01*
X146245370Y-112054718D01*
X146261511Y-112091605D01*
X146291214Y-112110842D01*
X146329400Y-112115600D01*
X146376840Y-112105810D01*
X146409432Y-112075715D01*
X146423805Y-112043200D01*
X146426210Y-112014500D01*
X146421462Y-111978439D01*
X146411823Y-111943724D01*
X146399549Y-111919062D01*
X146389870Y-111912400D01*
X146381173Y-111908212D01*
X146390317Y-111898451D01*
X146411700Y-111887326D01*
X146432058Y-111880704D01*
X146458775Y-111879095D01*
X146466523Y-111889330D01*
X146473389Y-111960540D01*
X146477392Y-112011334D01*
X146478326Y-112046557D01*
X146475983Y-112071052D01*
X146470154Y-112089666D01*
X146460633Y-112107242D01*
X146456929Y-112113190D01*
X146418160Y-112154789D01*
X146369671Y-112178280D01*
X146317458Y-112183655D01*
X146267517Y-112170907D01*
X146225843Y-112140028D01*
X146207666Y-112113505D01*
X146196047Y-112074470D01*
X146190683Y-112021358D01*
X145783300Y-112021358D01*
X145783300Y-112204500D01*
X145207919Y-112204500D01*
X143401683Y-112204500D01*
X143065500Y-112204500D01*
X142519400Y-112204500D01*
X140779500Y-112204500D01*
X140208000Y-112204500D01*
X139649200Y-112204500D01*
X139649200Y-106876624D01*
X139121928Y-106349800D01*
X138550866Y-106349800D01*
X133083300Y-106349800D01*
X133083300Y-107358326D01*
X134883288Y-107358326D01*
X134887795Y-107312266D01*
X134917064Y-107176060D01*
X134968432Y-107048441D01*
X135039762Y-106932025D01*
X135128915Y-106829427D01*
X135233756Y-106743262D01*
X135352146Y-106676145D01*
X135433461Y-106644580D01*
X135483251Y-106628691D01*
X135521485Y-106617859D01*
X135555032Y-106611245D01*
X135590758Y-106608011D01*
X135635533Y-106607317D01*
X135696223Y-106608324D01*
X135724900Y-106608979D01*
X135798430Y-106611492D01*
X135853839Y-106615822D01*
X135898394Y-106623031D01*
X135939360Y-106634181D01*
X135969267Y-106644703D01*
X136091701Y-106702105D01*
X136204547Y-106777646D01*
X136303084Y-106867516D01*
X136382590Y-106967907D01*
X136395723Y-106988798D01*
X136455821Y-107112520D01*
X136494731Y-107246343D01*
X136511731Y-107385325D01*
X136506099Y-107524525D01*
X136488035Y-107620502D01*
X136460712Y-107727750D01*
X136524831Y-107784900D01*
X136542004Y-107800329D01*
X136576845Y-107831738D01*
X136628181Y-107878069D01*
X136694843Y-107938264D01*
X136775659Y-108011266D01*
X136869459Y-108096015D01*
X136975072Y-108191455D01*
X137091327Y-108296527D01*
X137217053Y-108410173D01*
X137351080Y-108531334D01*
X137492237Y-108658954D01*
X137639353Y-108791974D01*
X137791257Y-108929336D01*
X137838824Y-108972350D01*
X139088697Y-110102650D01*
X139089548Y-111153575D01*
X139090400Y-112204500D01*
X136823666Y-112204500D01*
X137102850Y-111925100D01*
X137382033Y-111645700D01*
X137992071Y-111645700D01*
X138262032Y-111375521D01*
X138531992Y-111105341D01*
X138528621Y-110731353D01*
X138525250Y-110357364D01*
X137915042Y-109804557D01*
X137784577Y-109686374D01*
X137639824Y-109555263D01*
X137485329Y-109415341D01*
X137325635Y-109270724D01*
X137165289Y-109125527D01*
X137008836Y-108983867D01*
X136860820Y-108849859D01*
X136725788Y-108727619D01*
X136692639Y-108697613D01*
X136080443Y-108143476D01*
X136005093Y-108173911D01*
X135915759Y-108204186D01*
X135824825Y-108221998D01*
X135722435Y-108229095D01*
X135692041Y-108229400D01*
X135600399Y-108226081D01*
X135521187Y-108214580D01*
X135444487Y-108192579D01*
X135360382Y-108157762D01*
X135335773Y-108146178D01*
X135215312Y-108074855D01*
X135111181Y-107985550D01*
X135024745Y-107880808D01*
X134957372Y-107763171D01*
X134910427Y-107635183D01*
X134885277Y-107499387D01*
X134883288Y-107358326D01*
X133083300Y-107358326D01*
X133083300Y-110490000D01*
X134848600Y-110490000D01*
X137668000Y-110490000D01*
X137668000Y-110539739D01*
X137667291Y-110555504D01*
X137663782Y-110570568D01*
X137655395Y-110587367D01*
X137640054Y-110608337D01*
X137615681Y-110635914D01*
X137580200Y-110672533D01*
X137531535Y-110720632D01*
X137467608Y-110782645D01*
X137429875Y-110819050D01*
X137191750Y-111048623D01*
X136020175Y-111048712D01*
X134848600Y-111048800D01*
X134848600Y-110490000D01*
X133083300Y-110490000D01*
X133083300Y-112204500D01*
X134848600Y-112204500D01*
X134848600Y-111645700D01*
X135785225Y-111646234D01*
X136721850Y-111646767D01*
X136438524Y-111925634D01*
X136155198Y-112204500D01*
X134848600Y-112204500D01*
X133083300Y-112204500D01*
X133083300Y-115773200D01*
X148856700Y-115773200D01*
X148856700Y-102400100D01*
G37*
X148856700Y-102400100D02*
X133083300Y-102400100D01*
X133083300Y-106349800D01*
X138550866Y-106349800D01*
X138830050Y-106070400D01*
X139109233Y-105791000D01*
X140224908Y-105791000D01*
X140216458Y-107915075D01*
X140215486Y-108166485D01*
X140214546Y-108423753D01*
X140213644Y-108684502D01*
X140212785Y-108946355D01*
X140211977Y-109206934D01*
X140211226Y-109463864D01*
X140210538Y-109714766D01*
X140209918Y-109957263D01*
X140209374Y-110188979D01*
X140208912Y-110407537D01*
X140208538Y-110610559D01*
X140208258Y-110795668D01*
X140208078Y-110960487D01*
X140208005Y-111102640D01*
X140208004Y-111121825D01*
X140208000Y-112204500D01*
X140779500Y-112204500D01*
X140779500Y-110111347D01*
X142306105Y-108557599D01*
X143832710Y-107003850D01*
X144233330Y-106996049D01*
X144358737Y-106993621D01*
X144461083Y-106991611D01*
X144542700Y-106989883D01*
X144605923Y-106988302D01*
X144653082Y-106986732D01*
X144686512Y-106985037D01*
X144708544Y-106983082D01*
X144721512Y-106980731D01*
X144727749Y-106977849D01*
X144729588Y-106974300D01*
X144729360Y-106969947D01*
X144729200Y-106967221D01*
X144734622Y-106948675D01*
X144749153Y-106913651D01*
X144770192Y-106868208D01*
X144782349Y-106843452D01*
X144853794Y-106728423D01*
X144945168Y-106626448D01*
X145053261Y-106540101D01*
X145174866Y-106471955D01*
X145303437Y-106425477D01*
X145402562Y-106407640D01*
X145512973Y-106402642D01*
X145624822Y-106410131D01*
X145728261Y-106429753D01*
X145768499Y-106442114D01*
X145898919Y-106500491D01*
X146016507Y-106578048D01*
X146118036Y-106672228D01*
X146200279Y-106780471D01*
X146205108Y-106788306D01*
X146266498Y-106909863D01*
X146304575Y-107035817D01*
X146320746Y-107171148D01*
X146321485Y-107200700D01*
X146319340Y-107297617D01*
X146309216Y-107379893D01*
X146288885Y-107457630D01*
X146256120Y-107540927D01*
X146237646Y-107580987D01*
X146181469Y-107676729D01*
X146108167Y-107768119D01*
X146023566Y-107849193D01*
X145933494Y-107913985D01*
X145888789Y-107938142D01*
X145797429Y-107981750D01*
X145797119Y-108316763D01*
X146177000Y-108316763D01*
X146177000Y-108280992D01*
X146178427Y-108259345D01*
X146187223Y-108249888D01*
X146210162Y-108249208D01*
X146235020Y-108251760D01*
X146293041Y-108258300D01*
X146288995Y-108209691D01*
X146283555Y-108177865D01*
X146269346Y-108157255D01*
X146239433Y-108138833D01*
X146231567Y-108134916D01*
X146198063Y-108115956D01*
X146182216Y-108097360D01*
X146177675Y-108071193D01*
X146177592Y-108067475D01*
X146179747Y-108039496D01*
X146185793Y-108026649D01*
X146186525Y-108026554D01*
X146201396Y-108033836D01*
X146228672Y-108051998D01*
X146246338Y-108064953D01*
X146296626Y-108102999D01*
X146313334Y-108071111D01*
X146339084Y-108043338D01*
X146374598Y-108028875D01*
X146409506Y-108031322D01*
X146417090Y-108035102D01*
X146442026Y-108059561D01*
X146458263Y-108098416D01*
X146466857Y-108155356D01*
X146468937Y-108216700D01*
X146469149Y-108324650D01*
X146323074Y-108320707D01*
X146177000Y-108316763D01*
X145797119Y-108316763D01*
X145796757Y-108707476D01*
X146179718Y-108707476D01*
X146193339Y-108700036D01*
X146210443Y-108699271D01*
X146246850Y-108699241D01*
X146242761Y-108799151D01*
X146241223Y-108849388D01*
X146242482Y-108879855D01*
X146247735Y-108896130D01*
X146258183Y-108903792D01*
X146265763Y-108906145D01*
X146288901Y-108905957D01*
X146301083Y-108888375D01*
X146303554Y-108850647D01*
X146301828Y-108826352D01*
X146299875Y-108793873D01*
X146306039Y-108779387D01*
X146325798Y-108775629D01*
X146340144Y-108775500D01*
X146367817Y-108777330D01*
X146374227Y-108784388D01*
X146369081Y-108792645D01*
X146360526Y-108817859D01*
X146360089Y-108854295D01*
X146367342Y-108889254D01*
X146372720Y-108900674D01*
X146392171Y-108913887D01*
X146400966Y-108915200D01*
X146410584Y-108911116D01*
X146415836Y-108895731D01*
X146417421Y-108864349D01*
X146416092Y-108813567D01*
X146415011Y-108758795D01*
X146418231Y-108725262D01*
X146427288Y-108708957D01*
X146443719Y-108705871D01*
X146456400Y-108708340D01*
X146465019Y-108714701D01*
X146470233Y-108731267D01*
X146472513Y-108762357D01*
X146472332Y-108812290D01*
X146471457Y-108845973D01*
X146467465Y-108978700D01*
X146189700Y-108978700D01*
X146189526Y-108867575D01*
X146188591Y-108813482D01*
X146186251Y-108766339D01*
X146182949Y-108734039D01*
X146181695Y-108727875D01*
X146179718Y-108707476D01*
X145796757Y-108707476D01*
X145796699Y-108769150D01*
X145796401Y-108931525D01*
X145795817Y-109104695D01*
X145794981Y-109283745D01*
X145793976Y-109454950D01*
X146183350Y-109454950D01*
X146183350Y-109423200D01*
X146184179Y-109409303D01*
X146189611Y-109399937D01*
X146204059Y-109393879D01*
X146231936Y-109389903D01*
X146277655Y-109386785D01*
X146323050Y-109384436D01*
X146379562Y-109381398D01*
X146425713Y-109378538D01*
X146456227Y-109376208D01*
X146465925Y-109374911D01*
X146468035Y-109384275D01*
X146469076Y-109410532D01*
X146469100Y-109415751D01*
X146469100Y-109459101D01*
X146326225Y-109457026D01*
X146183350Y-109454950D01*
X145793976Y-109454950D01*
X145793924Y-109463759D01*
X145792679Y-109639823D01*
X145791280Y-109807020D01*
X145789760Y-109960436D01*
X145788914Y-110031274D01*
X146184665Y-110031274D01*
X146190733Y-109961467D01*
X146217218Y-109889925D01*
X146230949Y-109871457D01*
X146248213Y-109871971D01*
X146271502Y-109887154D01*
X146285435Y-109900950D01*
X146283065Y-109905800D01*
X146268807Y-109916112D01*
X146255238Y-109938148D01*
X146241083Y-109989143D01*
X146243516Y-110036491D01*
X146259373Y-110076501D01*
X146285489Y-110105481D01*
X146318700Y-110119738D01*
X146355839Y-110115579D01*
X146388906Y-110094087D01*
X146410519Y-110058489D01*
X146418734Y-110011568D01*
X146412841Y-109964005D01*
X146399457Y-109935351D01*
X146388227Y-109914799D01*
X146394558Y-109900541D01*
X146411710Y-109888075D01*
X146435530Y-109873477D01*
X146447867Y-109867700D01*
X146452913Y-109879039D01*
X146461012Y-109908576D01*
X146469213Y-109944438D01*
X146477245Y-110021868D01*
X146466705Y-110085970D01*
X146438767Y-110134787D01*
X146394603Y-110166363D01*
X146335386Y-110178744D01*
X146328665Y-110178850D01*
X146284674Y-110175637D01*
X146254252Y-110163385D01*
X146233533Y-110145907D01*
X146199027Y-110094256D01*
X146184665Y-110031274D01*
X145788914Y-110031274D01*
X145788150Y-110095155D01*
X145787549Y-110138559D01*
X145779129Y-110720567D01*
X145501111Y-110443359D01*
X145223094Y-110166150D01*
X145240648Y-107994450D01*
X145159549Y-107954746D01*
X145046735Y-107888421D01*
X144944601Y-107806555D01*
X144857983Y-107713646D01*
X144791714Y-107614189D01*
X144790113Y-107611192D01*
X144760993Y-107556300D01*
X144083174Y-107556300D01*
X143772498Y-107870625D01*
X143722067Y-107921700D01*
X143655394Y-107989306D01*
X143574041Y-108071857D01*
X143479567Y-108167767D01*
X143373533Y-108275452D01*
X143257502Y-108393324D01*
X143133032Y-108519798D01*
X143001686Y-108653288D01*
X142865023Y-108792209D01*
X142724605Y-108934975D01*
X142581993Y-109079999D01*
X142438747Y-109225696D01*
X142400649Y-109264450D01*
X141339477Y-110343950D01*
X141338888Y-110994825D01*
X141338396Y-111539630D01*
X143065500Y-111539630D01*
X143065500Y-109167740D01*
X143113489Y-109171645D01*
X143129301Y-109174103D01*
X143145601Y-109180212D01*
X143164788Y-109192071D01*
X143189259Y-109211780D01*
X143221414Y-109241438D01*
X143263651Y-109283145D01*
X143318366Y-109339000D01*
X143387960Y-109411102D01*
X143392889Y-109416227D01*
X143624300Y-109656903D01*
X143624300Y-112079675D01*
X143344900Y-111809652D01*
X143065500Y-111539630D01*
X141338396Y-111539630D01*
X141338300Y-111645700D01*
X142519400Y-111645700D01*
X142519400Y-112204500D01*
X143065500Y-112204500D01*
X143065500Y-112039400D01*
X143065742Y-111977982D01*
X143066405Y-111926924D01*
X143067393Y-111890941D01*
X143068610Y-111874750D01*
X143068858Y-111874300D01*
X143078443Y-111882841D01*
X143103060Y-111906585D01*
X143139837Y-111942714D01*
X143185906Y-111988409D01*
X143236950Y-112039400D01*
X143385056Y-112187836D01*
X144145000Y-112187836D01*
X144145000Y-111823613D01*
X144145147Y-111709813D01*
X144145572Y-111584589D01*
X144146249Y-111450088D01*
X144147153Y-111308457D01*
X144148257Y-111161843D01*
X144149537Y-111012392D01*
X144150966Y-110862251D01*
X144152519Y-110713566D01*
X144154170Y-110568485D01*
X144155894Y-110429154D01*
X144157664Y-110297719D01*
X144159457Y-110176327D01*
X144161244Y-110067126D01*
X144163002Y-109972261D01*
X144164704Y-109893879D01*
X144166326Y-109834127D01*
X144167840Y-109795151D01*
X144169221Y-109779099D01*
X144169420Y-109778800D01*
X144179945Y-109787446D01*
X144206112Y-109811919D01*
X144245666Y-109850024D01*
X144296352Y-109899563D01*
X144355916Y-109958343D01*
X144422101Y-110024166D01*
X144448774Y-110050824D01*
X144720577Y-110322848D01*
X144715813Y-110817668D01*
X146189700Y-110817668D01*
X146191845Y-110792788D01*
X146197075Y-110785371D01*
X146197719Y-110785887D01*
X146213857Y-110787158D01*
X146229469Y-110781207D01*
X146244330Y-110761443D01*
X146252861Y-110727328D01*
X146254861Y-110687796D01*
X146250129Y-110651779D01*
X146238463Y-110628211D01*
X146233003Y-110624668D01*
X146209220Y-110621598D01*
X146201253Y-110624059D01*
X146194181Y-110617454D01*
X146190098Y-110592392D01*
X146189700Y-110579092D01*
X146189700Y-110526985D01*
X146314407Y-110591043D01*
X146367000Y-110617104D01*
X146412825Y-110638060D01*
X146446299Y-110651462D01*
X146460457Y-110655100D01*
X146475772Y-110662463D01*
X146481552Y-110687940D01*
X146481800Y-110698761D01*
X146478562Y-110729436D01*
X146466887Y-110740981D01*
X146459575Y-110741529D01*
X146439381Y-110746372D01*
X146402204Y-110760163D01*
X146353844Y-110780618D01*
X146313525Y-110799053D01*
X146189700Y-110857469D01*
X146189700Y-110817668D01*
X144715813Y-110817668D01*
X144711553Y-111260076D01*
X144710053Y-111411943D01*
X144708553Y-111556253D01*
X144707080Y-111691019D01*
X144705658Y-111814253D01*
X144704313Y-111923969D01*
X144703069Y-112018179D01*
X144701952Y-112094895D01*
X144700987Y-112152131D01*
X144700200Y-112187899D01*
X144699626Y-112200207D01*
X144686663Y-112200721D01*
X144652008Y-112200534D01*
X144599359Y-112199708D01*
X144532412Y-112198306D01*
X144454865Y-112196392D01*
X144420861Y-112195473D01*
X144145000Y-112187836D01*
X143385056Y-112187836D01*
X143401683Y-112204500D01*
X145207919Y-112204500D01*
X145216151Y-112061625D01*
X145217938Y-112017637D01*
X145219593Y-111951828D01*
X145221076Y-111867777D01*
X145222341Y-111769065D01*
X145223346Y-111659271D01*
X145224049Y-111541973D01*
X145224406Y-111420752D01*
X145224442Y-111372759D01*
X145224500Y-110826767D01*
X145503900Y-111105950D01*
X145586462Y-111188449D01*
X146183350Y-111188449D01*
X146259550Y-111188441D01*
X146251184Y-111394303D01*
X146366498Y-111389827D01*
X146481812Y-111385350D01*
X146481820Y-111461550D01*
X146191204Y-111461550D01*
X146187277Y-111325000D01*
X146183350Y-111188449D01*
X145586462Y-111188449D01*
X145783300Y-111385134D01*
X145783300Y-112021358D01*
X146190683Y-112021358D01*
X146191583Y-111964629D01*
X146198754Y-111914745D01*
X146207487Y-111889545D01*
X146222583Y-111867732D01*
X146243900Y-111857630D01*
X146280749Y-111854956D01*
X146282730Y-111854943D01*
X146340186Y-111854635D01*
X146344318Y-111934344D01*
X146348450Y-112014054D01*
X146304000Y-112013025D01*
X146279208Y-112010863D01*
X146273261Y-112006788D01*
X146275425Y-112005590D01*
X146286853Y-111989582D01*
X146291300Y-111962142D01*
X146287050Y-111934731D01*
X146271399Y-111925369D01*
X146265900Y-111925100D01*
X146251396Y-111928040D01*
X146243740Y-111940824D01*
X146240835Y-111969397D01*
X146240500Y-111997125D01*
X146245370Y-112054718D01*
X146261511Y-112091605D01*
X146291214Y-112110842D01*
X146329400Y-112115600D01*
X146376840Y-112105810D01*
X146409432Y-112075715D01*
X146423805Y-112043200D01*
X146426210Y-112014500D01*
X146421462Y-111978439D01*
X146411823Y-111943724D01*
X146399549Y-111919062D01*
X146389870Y-111912400D01*
X146381173Y-111908212D01*
X146390317Y-111898451D01*
X146411700Y-111887326D01*
X146432058Y-111880704D01*
X146458775Y-111879095D01*
X146466523Y-111889330D01*
X146473389Y-111960540D01*
X146477392Y-112011334D01*
X146478326Y-112046557D01*
X146475983Y-112071052D01*
X146470154Y-112089666D01*
X146460633Y-112107242D01*
X146456929Y-112113190D01*
X146418160Y-112154789D01*
X146369671Y-112178280D01*
X146317458Y-112183655D01*
X146267517Y-112170907D01*
X146225843Y-112140028D01*
X146207666Y-112113505D01*
X146196047Y-112074470D01*
X146190683Y-112021358D01*
X145783300Y-112021358D01*
X145783300Y-112204500D01*
X145207919Y-112204500D01*
X143401683Y-112204500D01*
X143065500Y-112204500D01*
X142519400Y-112204500D01*
X140779500Y-112204500D01*
X140208000Y-112204500D01*
X139649200Y-112204500D01*
X139649200Y-106876624D01*
X139121928Y-106349800D01*
X138550866Y-106349800D01*
X133083300Y-106349800D01*
X133083300Y-107358326D01*
X134883288Y-107358326D01*
X134887795Y-107312266D01*
X134917064Y-107176060D01*
X134968432Y-107048441D01*
X135039762Y-106932025D01*
X135128915Y-106829427D01*
X135233756Y-106743262D01*
X135352146Y-106676145D01*
X135433461Y-106644580D01*
X135483251Y-106628691D01*
X135521485Y-106617859D01*
X135555032Y-106611245D01*
X135590758Y-106608011D01*
X135635533Y-106607317D01*
X135696223Y-106608324D01*
X135724900Y-106608979D01*
X135798430Y-106611492D01*
X135853839Y-106615822D01*
X135898394Y-106623031D01*
X135939360Y-106634181D01*
X135969267Y-106644703D01*
X136091701Y-106702105D01*
X136204547Y-106777646D01*
X136303084Y-106867516D01*
X136382590Y-106967907D01*
X136395723Y-106988798D01*
X136455821Y-107112520D01*
X136494731Y-107246343D01*
X136511731Y-107385325D01*
X136506099Y-107524525D01*
X136488035Y-107620502D01*
X136460712Y-107727750D01*
X136524831Y-107784900D01*
X136542004Y-107800329D01*
X136576845Y-107831738D01*
X136628181Y-107878069D01*
X136694843Y-107938264D01*
X136775659Y-108011266D01*
X136869459Y-108096015D01*
X136975072Y-108191455D01*
X137091327Y-108296527D01*
X137217053Y-108410173D01*
X137351080Y-108531334D01*
X137492237Y-108658954D01*
X137639353Y-108791974D01*
X137791257Y-108929336D01*
X137838824Y-108972350D01*
X139088697Y-110102650D01*
X139089548Y-111153575D01*
X139090400Y-112204500D01*
X136823666Y-112204500D01*
X137102850Y-111925100D01*
X137382033Y-111645700D01*
X137992071Y-111645700D01*
X138262032Y-111375521D01*
X138531992Y-111105341D01*
X138528621Y-110731353D01*
X138525250Y-110357364D01*
X137915042Y-109804557D01*
X137784577Y-109686374D01*
X137639824Y-109555263D01*
X137485329Y-109415341D01*
X137325635Y-109270724D01*
X137165289Y-109125527D01*
X137008836Y-108983867D01*
X136860820Y-108849859D01*
X136725788Y-108727619D01*
X136692639Y-108697613D01*
X136080443Y-108143476D01*
X136005093Y-108173911D01*
X135915759Y-108204186D01*
X135824825Y-108221998D01*
X135722435Y-108229095D01*
X135692041Y-108229400D01*
X135600399Y-108226081D01*
X135521187Y-108214580D01*
X135444487Y-108192579D01*
X135360382Y-108157762D01*
X135335773Y-108146178D01*
X135215312Y-108074855D01*
X135111181Y-107985550D01*
X135024745Y-107880808D01*
X134957372Y-107763171D01*
X134910427Y-107635183D01*
X134885277Y-107499387D01*
X134883288Y-107358326D01*
X133083300Y-107358326D01*
X133083300Y-110490000D01*
X134848600Y-110490000D01*
X137668000Y-110490000D01*
X137668000Y-110539739D01*
X137667291Y-110555504D01*
X137663782Y-110570568D01*
X137655395Y-110587367D01*
X137640054Y-110608337D01*
X137615681Y-110635914D01*
X137580200Y-110672533D01*
X137531535Y-110720632D01*
X137467608Y-110782645D01*
X137429875Y-110819050D01*
X137191750Y-111048623D01*
X136020175Y-111048712D01*
X134848600Y-111048800D01*
X134848600Y-110490000D01*
X133083300Y-110490000D01*
X133083300Y-112204500D01*
X134848600Y-112204500D01*
X134848600Y-111645700D01*
X135785225Y-111646234D01*
X136721850Y-111646767D01*
X136438524Y-111925634D01*
X136155198Y-112204500D01*
X134848600Y-112204500D01*
X133083300Y-112204500D01*
X133083300Y-115773200D01*
X148856700Y-115773200D01*
X148856700Y-102400100D01*
G36*
X139649200Y-106349800D02*
G01*
X139458700Y-106349800D01*
X139392405Y-106350409D01*
X139336145Y-106352085D01*
X139294308Y-106354606D01*
X139271285Y-106357749D01*
X139268200Y-106359484D01*
X139276799Y-106370940D01*
X139300840Y-106397474D01*
X139337686Y-106436319D01*
X139384702Y-106484711D01*
X139439251Y-106539884D01*
X139458700Y-106559350D01*
X139649200Y-106749533D01*
X139649200Y-106349800D01*
G37*
X139649200Y-106349800D02*
X139458700Y-106349800D01*
X139392405Y-106350409D01*
X139336145Y-106352085D01*
X139294308Y-106354606D01*
X139271285Y-106357749D01*
X139268200Y-106359484D01*
X139276799Y-106370940D01*
X139300840Y-106397474D01*
X139337686Y-106436319D01*
X139384702Y-106484711D01*
X139439251Y-106539884D01*
X139458700Y-106559350D01*
X139649200Y-106749533D01*
X139649200Y-106349800D01*
G36*
X145515966Y-107465239D02*
G01*
X145519059Y-107465067D01*
X145569961Y-107460378D01*
X145605571Y-107451062D01*
X145635959Y-107433835D01*
X145651587Y-107421841D01*
X145700781Y-107377577D01*
X145731564Y-107336370D01*
X145748382Y-107290199D01*
X145755475Y-107234442D01*
X145750628Y-107151853D01*
X145724576Y-107083116D01*
X145677175Y-107027888D01*
X145665942Y-107019040D01*
X145592583Y-106977691D01*
X145518117Y-106961320D01*
X145443626Y-106970077D01*
X145408541Y-106983086D01*
X145341299Y-107025843D01*
X145292954Y-107081710D01*
X145263862Y-107146436D01*
X145254376Y-107215772D01*
X145264852Y-107285468D01*
X145295645Y-107351274D01*
X145347110Y-107408939D01*
X145371434Y-107427342D01*
X145407568Y-107450341D01*
X145436643Y-107462520D01*
X145469246Y-107466583D01*
X145515966Y-107465239D01*
G37*
X145515966Y-107465239D02*
X145519059Y-107465067D01*
X145569961Y-107460378D01*
X145605571Y-107451062D01*
X145635959Y-107433835D01*
X145651587Y-107421841D01*
X145700781Y-107377577D01*
X145731564Y-107336370D01*
X145748382Y-107290199D01*
X145755475Y-107234442D01*
X145750628Y-107151853D01*
X145724576Y-107083116D01*
X145677175Y-107027888D01*
X145665942Y-107019040D01*
X145592583Y-106977691D01*
X145518117Y-106961320D01*
X145443626Y-106970077D01*
X145408541Y-106983086D01*
X145341299Y-107025843D01*
X145292954Y-107081710D01*
X145263862Y-107146436D01*
X145254376Y-107215772D01*
X145264852Y-107285468D01*
X145295645Y-107351274D01*
X145347110Y-107408939D01*
X145371434Y-107427342D01*
X145407568Y-107450341D01*
X145436643Y-107462520D01*
X145469246Y-107466583D01*
X145515966Y-107465239D01*
G36*
X135749780Y-107662756D02*
G01*
X135785013Y-107656417D01*
X135815468Y-107642452D01*
X135840149Y-107626150D01*
X135895956Y-107572681D01*
X135931855Y-107508339D01*
X135947835Y-107437881D01*
X135943880Y-107366063D01*
X135919979Y-107297640D01*
X135876118Y-107237369D01*
X135841309Y-107207866D01*
X135780643Y-107178388D01*
X135710520Y-107165062D01*
X135640751Y-107168925D01*
X135597990Y-107182133D01*
X135529591Y-107225681D01*
X135480434Y-107284975D01*
X135452179Y-107357424D01*
X135445708Y-107419270D01*
X135457608Y-107496685D01*
X135492750Y-107563886D01*
X135551070Y-107620753D01*
X135557826Y-107625622D01*
X135591674Y-107647062D01*
X135622564Y-107658754D01*
X135660847Y-107663521D01*
X135699500Y-107664250D01*
X135749780Y-107662756D01*
G37*
X135749780Y-107662756D02*
X135785013Y-107656417D01*
X135815468Y-107642452D01*
X135840149Y-107626150D01*
X135895956Y-107572681D01*
X135931855Y-107508339D01*
X135947835Y-107437881D01*
X135943880Y-107366063D01*
X135919979Y-107297640D01*
X135876118Y-107237369D01*
X135841309Y-107207866D01*
X135780643Y-107178388D01*
X135710520Y-107165062D01*
X135640751Y-107168925D01*
X135597990Y-107182133D01*
X135529591Y-107225681D01*
X135480434Y-107284975D01*
X135452179Y-107357424D01*
X135445708Y-107419270D01*
X135457608Y-107496685D01*
X135492750Y-107563886D01*
X135551070Y-107620753D01*
X135557826Y-107625622D01*
X135591674Y-107647062D01*
X135622564Y-107658754D01*
X135660847Y-107663521D01*
X135699500Y-107664250D01*
X135749780Y-107662756D01*
G36*
X138322050Y-111642803D02*
G01*
X138525250Y-111639350D01*
X138528755Y-111445675D01*
X138529347Y-111378807D01*
X138528671Y-111321932D01*
X138526872Y-111279402D01*
X138524098Y-111255566D01*
X138522252Y-111252000D01*
X138510741Y-111260609D01*
X138484111Y-111284708D01*
X138445078Y-111321704D01*
X138396362Y-111369006D01*
X138340680Y-111424020D01*
X138315546Y-111449128D01*
X138118850Y-111646255D01*
X138322050Y-111642803D01*
G37*
X138322050Y-111642803D02*
X138525250Y-111639350D01*
X138528755Y-111445675D01*
X138529347Y-111378807D01*
X138528671Y-111321932D01*
X138526872Y-111279402D01*
X138524098Y-111255566D01*
X138522252Y-111252000D01*
X138510741Y-111260609D01*
X138484111Y-111284708D01*
X138445078Y-111321704D01*
X138396362Y-111369006D01*
X138340680Y-111424020D01*
X138315546Y-111449128D01*
X138118850Y-111646255D01*
X138322050Y-111642803D01*
G36*
X146380200Y-108252301D02*
G01*
X146403950Y-108248556D01*
X146414990Y-108237231D01*
X146418155Y-108210943D01*
X146418300Y-108194114D01*
X146413391Y-108142338D01*
X146399835Y-108106288D01*
X146379380Y-108090165D01*
X146374761Y-108089700D01*
X146355784Y-108099978D01*
X146349808Y-108109789D01*
X146345244Y-108133926D01*
X146342479Y-108172166D01*
X146342100Y-108192541D01*
X146342876Y-108229739D01*
X146347879Y-108247825D01*
X146361118Y-108253088D01*
X146380200Y-108252301D01*
G37*
X146380200Y-108252301D02*
X146403950Y-108248556D01*
X146414990Y-108237231D01*
X146418155Y-108210943D01*
X146418300Y-108194114D01*
X146413391Y-108142338D01*
X146399835Y-108106288D01*
X146379380Y-108090165D01*
X146374761Y-108089700D01*
X146355784Y-108099978D01*
X146349808Y-108109789D01*
X146345244Y-108133926D01*
X146342479Y-108172166D01*
X146342100Y-108192541D01*
X146342876Y-108229739D01*
X146347879Y-108247825D01*
X146361118Y-108253088D01*
X146380200Y-108252301D01*
G36*
X143360116Y-109663952D02*
G01*
X143413640Y-109662715D01*
X143458077Y-109660879D01*
X143487795Y-109658498D01*
X143497300Y-109655948D01*
X143488919Y-109644914D01*
X143466033Y-109619354D01*
X143432026Y-109582777D01*
X143390282Y-109538688D01*
X143344186Y-109490594D01*
X143297122Y-109442002D01*
X143252474Y-109396418D01*
X143213626Y-109357348D01*
X143183963Y-109328300D01*
X143166869Y-109312779D01*
X143164622Y-109311250D01*
X143161155Y-109321672D01*
X143157743Y-109353031D01*
X143154722Y-109400868D01*
X143152426Y-109460720D01*
X143151922Y-109480626D01*
X143150876Y-109544222D01*
X143150699Y-109598127D01*
X143151353Y-109637552D01*
X143152800Y-109657712D01*
X143153341Y-109659251D01*
X143167807Y-109661823D01*
X143201350Y-109663524D01*
X143248337Y-109664410D01*
X143303137Y-109664535D01*
X143360116Y-109663952D01*
G37*
X143360116Y-109663952D02*
X143413640Y-109662715D01*
X143458077Y-109660879D01*
X143487795Y-109658498D01*
X143497300Y-109655948D01*
X143488919Y-109644914D01*
X143466033Y-109619354D01*
X143432026Y-109582777D01*
X143390282Y-109538688D01*
X143344186Y-109490594D01*
X143297122Y-109442002D01*
X143252474Y-109396418D01*
X143213626Y-109357348D01*
X143183963Y-109328300D01*
X143166869Y-109312779D01*
X143164622Y-109311250D01*
X143161155Y-109321672D01*
X143157743Y-109353031D01*
X143154722Y-109400868D01*
X143152426Y-109460720D01*
X143151922Y-109480626D01*
X143150876Y-109544222D01*
X143150699Y-109598127D01*
X143151353Y-109637552D01*
X143152800Y-109657712D01*
X143153341Y-109659251D01*
X143167807Y-109661823D01*
X143201350Y-109663524D01*
X143248337Y-109664410D01*
X143303137Y-109664535D01*
X143360116Y-109663952D01*
G36*
X137206690Y-110913218D02*
G01*
X137233174Y-110889325D01*
X137271618Y-110852903D01*
X137319088Y-110806735D01*
X137372652Y-110753603D01*
X137375900Y-110750350D01*
X137546997Y-110578900D01*
X137185400Y-110578900D01*
X137185400Y-110750350D01*
X137186074Y-110813020D01*
X137187925Y-110865419D01*
X137190688Y-110902920D01*
X137194104Y-110920895D01*
X137195101Y-110921800D01*
X137206690Y-110913218D01*
G37*
X137206690Y-110913218D02*
X137233174Y-110889325D01*
X137271618Y-110852903D01*
X137319088Y-110806735D01*
X137372652Y-110753603D01*
X137375900Y-110750350D01*
X137546997Y-110578900D01*
X137185400Y-110578900D01*
X137185400Y-110750350D01*
X137186074Y-110813020D01*
X137187925Y-110865419D01*
X137190688Y-110902920D01*
X137194104Y-110920895D01*
X137195101Y-110921800D01*
X137206690Y-110913218D01*
G36*
X146344382Y-110723770D02*
G01*
X146384765Y-110702887D01*
X146353907Y-110685794D01*
X146323595Y-110671274D01*
X146308823Y-110673361D01*
X146304210Y-110694258D01*
X146304000Y-110706227D01*
X146304000Y-110744653D01*
X146344382Y-110723770D01*
G37*
X146344382Y-110723770D02*
X146384765Y-110702887D01*
X146353907Y-110685794D01*
X146323595Y-110671274D01*
X146308823Y-110673361D01*
X146304210Y-110694258D01*
X146304000Y-110706227D01*
X146304000Y-110744653D01*
X146344382Y-110723770D01*
D11*
%TO.C,J1*%
X130016500Y-113978000D02*
X125296500Y-113978000D01*
X125296500Y-113978000D02*
X125296500Y-103858000D01*
X125296500Y-103858000D02*
X130016500Y-103858000D01*
X130016500Y-103858000D02*
X130016500Y-113978000D01*
X130016500Y-112218000D02*
X130216500Y-112218000D01*
X130216500Y-112218000D02*
X130216500Y-112518000D01*
X130216500Y-112518000D02*
X130016500Y-112518000D01*
X130116500Y-112218000D02*
X130116500Y-112518000D01*
X130016500Y-111418000D02*
X129406500Y-111418000D01*
X129406500Y-111418000D02*
X129406500Y-113368000D01*
X129406500Y-113368000D02*
X125906500Y-113368000D01*
X125906500Y-113368000D02*
X125906500Y-104468000D01*
X125906500Y-104468000D02*
X129406500Y-104468000D01*
X129406500Y-104468000D02*
X129406500Y-106418000D01*
X129406500Y-106418000D02*
X130016500Y-106418000D01*
X128706500Y-113978000D02*
X128706500Y-113368000D01*
X127406500Y-113978000D02*
X127406500Y-113368000D01*
X128706500Y-103858000D02*
X128706500Y-104468000D01*
X127406500Y-103858000D02*
X127406500Y-104468000D01*
X125906500Y-111018000D02*
X126406500Y-111018000D01*
X126406500Y-111018000D02*
X126406500Y-110818000D01*
X126406500Y-110818000D02*
X125906500Y-110818000D01*
X125906500Y-110918000D02*
X126406500Y-110918000D01*
X125906500Y-109018000D02*
X126406500Y-109018000D01*
X126406500Y-109018000D02*
X126406500Y-108818000D01*
X126406500Y-108818000D02*
X125906500Y-108818000D01*
X125906500Y-108918000D02*
X126406500Y-108918000D01*
X125906500Y-107018000D02*
X126406500Y-107018000D01*
X126406500Y-107018000D02*
X126406500Y-106818000D01*
X126406500Y-106818000D02*
X125906500Y-106818000D01*
X125906500Y-106918000D02*
X126406500Y-106918000D01*
X130316500Y-113028000D02*
X130316500Y-114278000D01*
X130316500Y-114278000D02*
X129066500Y-114278000D01*
D12*
X131654119Y-109251333D02*
X130939833Y-109251333D01*
X130796976Y-109298952D01*
X130701738Y-109394190D01*
X130654119Y-109537047D01*
X130654119Y-109632285D01*
X130654119Y-108251333D02*
X130654119Y-108822761D01*
X130654119Y-108537047D02*
X131654119Y-108537047D01*
X131511261Y-108632285D01*
X131416023Y-108727523D01*
X131368404Y-108822761D01*
%TD*%
M02*
