%TF.GenerationSoftware,KiCad,Pcbnew,(5.1.9-0-10_14)*%
%TF.CreationDate,2021-07-31T12:38:44+08:00*%
%TF.ProjectId,Encoder,456e636f-6465-4722-9e6b-696361645f70,rev?*%
%TF.SameCoordinates,Original*%
%TF.FileFunction,Copper,L2,Bot*%
%TF.FilePolarity,Positive*%
%FSLAX46Y46*%
G04 Gerber Fmt 4.6, Leading zero omitted, Abs format (unit mm)*
G04 Created by KiCad (PCBNEW (5.1.9-0-10_14)) date 2021-07-31 12:38:44*
%MOMM*%
%LPD*%
G01*
G04 APERTURE LIST*
%TA.AperFunction,ComponentPad*%
%ADD10O,1.750000X1.200000*%
%TD*%
%TA.AperFunction,ViaPad*%
%ADD11C,0.800000*%
%TD*%
%TA.AperFunction,Conductor*%
%ADD12C,0.250000*%
%TD*%
%TA.AperFunction,Conductor*%
%ADD13C,0.254000*%
%TD*%
%TA.AperFunction,Conductor*%
%ADD14C,0.100000*%
%TD*%
G04 APERTURE END LIST*
D10*
%TO.P,J1,4*%
%TO.N,GND*%
X128206500Y-105918000D03*
%TO.P,J1,3*%
%TO.N,SDA*%
X128206500Y-107918000D03*
%TO.P,J1,2*%
%TO.N,SCL*%
X128206500Y-109918000D03*
%TO.P,J1,1*%
%TO.N,+5V*%
%TA.AperFunction,ComponentPad*%
G36*
G01*
X128831501Y-112518000D02*
X127581499Y-112518000D01*
G75*
G02*
X127331500Y-112268001I0J249999D01*
G01*
X127331500Y-111567999D01*
G75*
G02*
X127581499Y-111318000I249999J0D01*
G01*
X128831501Y-111318000D01*
G75*
G02*
X129081500Y-111567999I0J-249999D01*
G01*
X129081500Y-112268001D01*
G75*
G02*
X128831501Y-112518000I-249999J0D01*
G01*
G37*
%TD.AperFunction*%
%TD*%
D11*
%TO.N,+5V*%
X131572000Y-106934000D03*
%TD*%
D12*
%TO.N,+5V*%
X131572000Y-108552500D02*
X128206500Y-111918000D01*
X131572000Y-106934000D02*
X131572000Y-108552500D01*
%TD*%
D13*
%TO.N,GND*%
X165685001Y-116155000D02*
X114985000Y-116155000D01*
X114985000Y-108491872D01*
X115875000Y-108491872D01*
X115875000Y-108932128D01*
X115960890Y-109363925D01*
X116129369Y-109770669D01*
X116373962Y-110136729D01*
X116685271Y-110448038D01*
X117051331Y-110692631D01*
X117458075Y-110861110D01*
X117889872Y-110947000D01*
X118330128Y-110947000D01*
X118761925Y-110861110D01*
X119168669Y-110692631D01*
X119534729Y-110448038D01*
X119846038Y-110136729D01*
X120090631Y-109770669D01*
X120259110Y-109363925D01*
X120345000Y-108932128D01*
X120345000Y-108491872D01*
X120259110Y-108060075D01*
X120200261Y-107918000D01*
X126690525Y-107918000D01*
X126714370Y-108160102D01*
X126784989Y-108392901D01*
X126899667Y-108607449D01*
X127053998Y-108795502D01*
X127203262Y-108918000D01*
X127053998Y-109040498D01*
X126899667Y-109228551D01*
X126784989Y-109443099D01*
X126714370Y-109675898D01*
X126690525Y-109918000D01*
X126714370Y-110160102D01*
X126784989Y-110392901D01*
X126899667Y-110607449D01*
X127053998Y-110795502D01*
X127092611Y-110827191D01*
X127088113Y-110829595D01*
X126953538Y-110940038D01*
X126843095Y-111074613D01*
X126761028Y-111228149D01*
X126710492Y-111394745D01*
X126693428Y-111567999D01*
X126693428Y-112268001D01*
X126710492Y-112441255D01*
X126761028Y-112607851D01*
X126843095Y-112761387D01*
X126953538Y-112895962D01*
X127088113Y-113006405D01*
X127241649Y-113088472D01*
X127408245Y-113139008D01*
X127581499Y-113156072D01*
X128831501Y-113156072D01*
X129004755Y-113139008D01*
X129171351Y-113088472D01*
X129324887Y-113006405D01*
X129459462Y-112895962D01*
X129569905Y-112761387D01*
X129651972Y-112607851D01*
X129702508Y-112441255D01*
X129719572Y-112268001D01*
X129719572Y-111567999D01*
X129711658Y-111487644D01*
X132083003Y-109116299D01*
X132112001Y-109092501D01*
X132206974Y-108976776D01*
X132277546Y-108844747D01*
X132321003Y-108701486D01*
X132332000Y-108589833D01*
X132332000Y-108589825D01*
X132335676Y-108552500D01*
X132332000Y-108515175D01*
X132332000Y-108237872D01*
X159753500Y-108237872D01*
X159753500Y-108678128D01*
X159839390Y-109109925D01*
X160007869Y-109516669D01*
X160252462Y-109882729D01*
X160563771Y-110194038D01*
X160929831Y-110438631D01*
X161336575Y-110607110D01*
X161768372Y-110693000D01*
X162208628Y-110693000D01*
X162640425Y-110607110D01*
X163047169Y-110438631D01*
X163413229Y-110194038D01*
X163724538Y-109882729D01*
X163969131Y-109516669D01*
X164137610Y-109109925D01*
X164223500Y-108678128D01*
X164223500Y-108237872D01*
X164137610Y-107806075D01*
X163969131Y-107399331D01*
X163724538Y-107033271D01*
X163413229Y-106721962D01*
X163047169Y-106477369D01*
X162640425Y-106308890D01*
X162208628Y-106223000D01*
X161768372Y-106223000D01*
X161336575Y-106308890D01*
X160929831Y-106477369D01*
X160563771Y-106721962D01*
X160252462Y-107033271D01*
X160007869Y-107399331D01*
X159839390Y-107806075D01*
X159753500Y-108237872D01*
X132332000Y-108237872D01*
X132332000Y-107637711D01*
X132375937Y-107593774D01*
X132489205Y-107424256D01*
X132567226Y-107235898D01*
X132607000Y-107035939D01*
X132607000Y-106832061D01*
X132567226Y-106632102D01*
X132489205Y-106443744D01*
X132375937Y-106274226D01*
X132231774Y-106130063D01*
X132062256Y-106016795D01*
X131873898Y-105938774D01*
X131673939Y-105899000D01*
X131470061Y-105899000D01*
X131270102Y-105938774D01*
X131081744Y-106016795D01*
X130912226Y-106130063D01*
X130768063Y-106274226D01*
X130654795Y-106443744D01*
X130576774Y-106632102D01*
X130537000Y-106832061D01*
X130537000Y-107035939D01*
X130576774Y-107235898D01*
X130654795Y-107424256D01*
X130768063Y-107593774D01*
X130812000Y-107637711D01*
X130812001Y-108237697D01*
X129620553Y-109429146D01*
X129513333Y-109228551D01*
X129359002Y-109040498D01*
X129209738Y-108918000D01*
X129359002Y-108795502D01*
X129513333Y-108607449D01*
X129628011Y-108392901D01*
X129698630Y-108160102D01*
X129722475Y-107918000D01*
X129698630Y-107675898D01*
X129628011Y-107443099D01*
X129513333Y-107228551D01*
X129359002Y-107040498D01*
X129209152Y-106917519D01*
X129273225Y-106874307D01*
X129444578Y-106701474D01*
X129578921Y-106498533D01*
X129671091Y-106273282D01*
X129674962Y-106235609D01*
X129550231Y-106045000D01*
X128333500Y-106045000D01*
X128333500Y-106065000D01*
X128079500Y-106065000D01*
X128079500Y-106045000D01*
X126862769Y-106045000D01*
X126738038Y-106235609D01*
X126741909Y-106273282D01*
X126834079Y-106498533D01*
X126968422Y-106701474D01*
X127139775Y-106874307D01*
X127203848Y-106917519D01*
X127053998Y-107040498D01*
X126899667Y-107228551D01*
X126784989Y-107443099D01*
X126714370Y-107675898D01*
X126690525Y-107918000D01*
X120200261Y-107918000D01*
X120090631Y-107653331D01*
X119846038Y-107287271D01*
X119534729Y-106975962D01*
X119168669Y-106731369D01*
X118761925Y-106562890D01*
X118330128Y-106477000D01*
X117889872Y-106477000D01*
X117458075Y-106562890D01*
X117051331Y-106731369D01*
X116685271Y-106975962D01*
X116373962Y-107287271D01*
X116129369Y-107653331D01*
X115960890Y-108060075D01*
X115875000Y-108491872D01*
X114985000Y-108491872D01*
X114985000Y-105600391D01*
X126738038Y-105600391D01*
X126862769Y-105791000D01*
X128079500Y-105791000D01*
X128079500Y-104683000D01*
X128333500Y-104683000D01*
X128333500Y-105791000D01*
X129550231Y-105791000D01*
X129674962Y-105600391D01*
X129671091Y-105562718D01*
X129578921Y-105337467D01*
X129444578Y-105134526D01*
X129273225Y-104961693D01*
X129071446Y-104825610D01*
X128846996Y-104731507D01*
X128608500Y-104683000D01*
X128333500Y-104683000D01*
X128079500Y-104683000D01*
X127804500Y-104683000D01*
X127566004Y-104731507D01*
X127341554Y-104825610D01*
X127139775Y-104961693D01*
X126968422Y-105134526D01*
X126834079Y-105337467D01*
X126741909Y-105562718D01*
X126738038Y-105600391D01*
X114985000Y-105600391D01*
X114985000Y-102285000D01*
X165685000Y-102285000D01*
X165685001Y-116155000D01*
%TA.AperFunction,Conductor*%
D14*
G36*
X165685001Y-116155000D02*
G01*
X114985000Y-116155000D01*
X114985000Y-108491872D01*
X115875000Y-108491872D01*
X115875000Y-108932128D01*
X115960890Y-109363925D01*
X116129369Y-109770669D01*
X116373962Y-110136729D01*
X116685271Y-110448038D01*
X117051331Y-110692631D01*
X117458075Y-110861110D01*
X117889872Y-110947000D01*
X118330128Y-110947000D01*
X118761925Y-110861110D01*
X119168669Y-110692631D01*
X119534729Y-110448038D01*
X119846038Y-110136729D01*
X120090631Y-109770669D01*
X120259110Y-109363925D01*
X120345000Y-108932128D01*
X120345000Y-108491872D01*
X120259110Y-108060075D01*
X120200261Y-107918000D01*
X126690525Y-107918000D01*
X126714370Y-108160102D01*
X126784989Y-108392901D01*
X126899667Y-108607449D01*
X127053998Y-108795502D01*
X127203262Y-108918000D01*
X127053998Y-109040498D01*
X126899667Y-109228551D01*
X126784989Y-109443099D01*
X126714370Y-109675898D01*
X126690525Y-109918000D01*
X126714370Y-110160102D01*
X126784989Y-110392901D01*
X126899667Y-110607449D01*
X127053998Y-110795502D01*
X127092611Y-110827191D01*
X127088113Y-110829595D01*
X126953538Y-110940038D01*
X126843095Y-111074613D01*
X126761028Y-111228149D01*
X126710492Y-111394745D01*
X126693428Y-111567999D01*
X126693428Y-112268001D01*
X126710492Y-112441255D01*
X126761028Y-112607851D01*
X126843095Y-112761387D01*
X126953538Y-112895962D01*
X127088113Y-113006405D01*
X127241649Y-113088472D01*
X127408245Y-113139008D01*
X127581499Y-113156072D01*
X128831501Y-113156072D01*
X129004755Y-113139008D01*
X129171351Y-113088472D01*
X129324887Y-113006405D01*
X129459462Y-112895962D01*
X129569905Y-112761387D01*
X129651972Y-112607851D01*
X129702508Y-112441255D01*
X129719572Y-112268001D01*
X129719572Y-111567999D01*
X129711658Y-111487644D01*
X132083003Y-109116299D01*
X132112001Y-109092501D01*
X132206974Y-108976776D01*
X132277546Y-108844747D01*
X132321003Y-108701486D01*
X132332000Y-108589833D01*
X132332000Y-108589825D01*
X132335676Y-108552500D01*
X132332000Y-108515175D01*
X132332000Y-108237872D01*
X159753500Y-108237872D01*
X159753500Y-108678128D01*
X159839390Y-109109925D01*
X160007869Y-109516669D01*
X160252462Y-109882729D01*
X160563771Y-110194038D01*
X160929831Y-110438631D01*
X161336575Y-110607110D01*
X161768372Y-110693000D01*
X162208628Y-110693000D01*
X162640425Y-110607110D01*
X163047169Y-110438631D01*
X163413229Y-110194038D01*
X163724538Y-109882729D01*
X163969131Y-109516669D01*
X164137610Y-109109925D01*
X164223500Y-108678128D01*
X164223500Y-108237872D01*
X164137610Y-107806075D01*
X163969131Y-107399331D01*
X163724538Y-107033271D01*
X163413229Y-106721962D01*
X163047169Y-106477369D01*
X162640425Y-106308890D01*
X162208628Y-106223000D01*
X161768372Y-106223000D01*
X161336575Y-106308890D01*
X160929831Y-106477369D01*
X160563771Y-106721962D01*
X160252462Y-107033271D01*
X160007869Y-107399331D01*
X159839390Y-107806075D01*
X159753500Y-108237872D01*
X132332000Y-108237872D01*
X132332000Y-107637711D01*
X132375937Y-107593774D01*
X132489205Y-107424256D01*
X132567226Y-107235898D01*
X132607000Y-107035939D01*
X132607000Y-106832061D01*
X132567226Y-106632102D01*
X132489205Y-106443744D01*
X132375937Y-106274226D01*
X132231774Y-106130063D01*
X132062256Y-106016795D01*
X131873898Y-105938774D01*
X131673939Y-105899000D01*
X131470061Y-105899000D01*
X131270102Y-105938774D01*
X131081744Y-106016795D01*
X130912226Y-106130063D01*
X130768063Y-106274226D01*
X130654795Y-106443744D01*
X130576774Y-106632102D01*
X130537000Y-106832061D01*
X130537000Y-107035939D01*
X130576774Y-107235898D01*
X130654795Y-107424256D01*
X130768063Y-107593774D01*
X130812000Y-107637711D01*
X130812001Y-108237697D01*
X129620553Y-109429146D01*
X129513333Y-109228551D01*
X129359002Y-109040498D01*
X129209738Y-108918000D01*
X129359002Y-108795502D01*
X129513333Y-108607449D01*
X129628011Y-108392901D01*
X129698630Y-108160102D01*
X129722475Y-107918000D01*
X129698630Y-107675898D01*
X129628011Y-107443099D01*
X129513333Y-107228551D01*
X129359002Y-107040498D01*
X129209152Y-106917519D01*
X129273225Y-106874307D01*
X129444578Y-106701474D01*
X129578921Y-106498533D01*
X129671091Y-106273282D01*
X129674962Y-106235609D01*
X129550231Y-106045000D01*
X128333500Y-106045000D01*
X128333500Y-106065000D01*
X128079500Y-106065000D01*
X128079500Y-106045000D01*
X126862769Y-106045000D01*
X126738038Y-106235609D01*
X126741909Y-106273282D01*
X126834079Y-106498533D01*
X126968422Y-106701474D01*
X127139775Y-106874307D01*
X127203848Y-106917519D01*
X127053998Y-107040498D01*
X126899667Y-107228551D01*
X126784989Y-107443099D01*
X126714370Y-107675898D01*
X126690525Y-107918000D01*
X120200261Y-107918000D01*
X120090631Y-107653331D01*
X119846038Y-107287271D01*
X119534729Y-106975962D01*
X119168669Y-106731369D01*
X118761925Y-106562890D01*
X118330128Y-106477000D01*
X117889872Y-106477000D01*
X117458075Y-106562890D01*
X117051331Y-106731369D01*
X116685271Y-106975962D01*
X116373962Y-107287271D01*
X116129369Y-107653331D01*
X115960890Y-108060075D01*
X115875000Y-108491872D01*
X114985000Y-108491872D01*
X114985000Y-105600391D01*
X126738038Y-105600391D01*
X126862769Y-105791000D01*
X128079500Y-105791000D01*
X128079500Y-104683000D01*
X128333500Y-104683000D01*
X128333500Y-105791000D01*
X129550231Y-105791000D01*
X129674962Y-105600391D01*
X129671091Y-105562718D01*
X129578921Y-105337467D01*
X129444578Y-105134526D01*
X129273225Y-104961693D01*
X129071446Y-104825610D01*
X128846996Y-104731507D01*
X128608500Y-104683000D01*
X128333500Y-104683000D01*
X128079500Y-104683000D01*
X127804500Y-104683000D01*
X127566004Y-104731507D01*
X127341554Y-104825610D01*
X127139775Y-104961693D01*
X126968422Y-105134526D01*
X126834079Y-105337467D01*
X126741909Y-105562718D01*
X126738038Y-105600391D01*
X114985000Y-105600391D01*
X114985000Y-102285000D01*
X165685000Y-102285000D01*
X165685001Y-116155000D01*
G37*
%TD.AperFunction*%
%TD*%
M02*
