%TF.GenerationSoftware,KiCad,Pcbnew,(5.1.9-0-10_14)*%
%TF.CreationDate,2021-07-31T12:38:44+08:00*%
%TF.ProjectId,Encoder,456e636f-6465-4722-9e6b-696361645f70,rev?*%
%TF.SameCoordinates,Original*%
%TF.FileFunction,Copper,L1,Top*%
%TF.FilePolarity,Positive*%
%FSLAX46Y46*%
G04 Gerber Fmt 4.6, Leading zero omitted, Abs format (unit mm)*
G04 Created by KiCad (PCBNEW (5.1.9-0-10_14)) date 2021-07-31 12:38:44*
%MOMM*%
%LPD*%
G01*
G04 APERTURE LIST*
%TA.AperFunction,SMDPad,CuDef*%
%ADD10R,0.600000X1.400000*%
%TD*%
%TA.AperFunction,ComponentPad*%
%ADD11O,1.750000X1.200000*%
%TD*%
%TA.AperFunction,ViaPad*%
%ADD12C,0.800000*%
%TD*%
%TA.AperFunction,Conductor*%
%ADD13C,0.250000*%
%TD*%
%TA.AperFunction,Conductor*%
%ADD14C,0.254000*%
%TD*%
%TA.AperFunction,Conductor*%
%ADD15C,0.100000*%
%TD*%
G04 APERTURE END LIST*
%TO.P,R3,2*%
%TO.N,SDA*%
%TA.AperFunction,SMDPad,CuDef*%
G36*
G01*
X133583000Y-107676000D02*
X134133000Y-107676000D01*
G75*
G02*
X134333000Y-107876000I0J-200000D01*
G01*
X134333000Y-108276000D01*
G75*
G02*
X134133000Y-108476000I-200000J0D01*
G01*
X133583000Y-108476000D01*
G75*
G02*
X133383000Y-108276000I0J200000D01*
G01*
X133383000Y-107876000D01*
G75*
G02*
X133583000Y-107676000I200000J0D01*
G01*
G37*
%TD.AperFunction*%
%TO.P,R3,1*%
%TO.N,+5V*%
%TA.AperFunction,SMDPad,CuDef*%
G36*
G01*
X133583000Y-106026000D02*
X134133000Y-106026000D01*
G75*
G02*
X134333000Y-106226000I0J-200000D01*
G01*
X134333000Y-106626000D01*
G75*
G02*
X134133000Y-106826000I-200000J0D01*
G01*
X133583000Y-106826000D01*
G75*
G02*
X133383000Y-106626000I0J200000D01*
G01*
X133383000Y-106226000D01*
G75*
G02*
X133583000Y-106026000I200000J0D01*
G01*
G37*
%TD.AperFunction*%
%TD*%
%TO.P,R2,2*%
%TO.N,SCL*%
%TA.AperFunction,SMDPad,CuDef*%
G36*
G01*
X135361000Y-107677000D02*
X135911000Y-107677000D01*
G75*
G02*
X136111000Y-107877000I0J-200000D01*
G01*
X136111000Y-108277000D01*
G75*
G02*
X135911000Y-108477000I-200000J0D01*
G01*
X135361000Y-108477000D01*
G75*
G02*
X135161000Y-108277000I0J200000D01*
G01*
X135161000Y-107877000D01*
G75*
G02*
X135361000Y-107677000I200000J0D01*
G01*
G37*
%TD.AperFunction*%
%TO.P,R2,1*%
%TO.N,+5V*%
%TA.AperFunction,SMDPad,CuDef*%
G36*
G01*
X135361000Y-106027000D02*
X135911000Y-106027000D01*
G75*
G02*
X136111000Y-106227000I0J-200000D01*
G01*
X136111000Y-106627000D01*
G75*
G02*
X135911000Y-106827000I-200000J0D01*
G01*
X135361000Y-106827000D01*
G75*
G02*
X135161000Y-106627000I0J200000D01*
G01*
X135161000Y-106227000D01*
G75*
G02*
X135361000Y-106027000I200000J0D01*
G01*
G37*
%TD.AperFunction*%
%TD*%
%TO.P,C2,2*%
%TO.N,GND*%
%TA.AperFunction,SMDPad,CuDef*%
G36*
G01*
X140467500Y-114457500D02*
X140467500Y-113507500D01*
G75*
G02*
X140717500Y-113257500I250000J0D01*
G01*
X141217500Y-113257500D01*
G75*
G02*
X141467500Y-113507500I0J-250000D01*
G01*
X141467500Y-114457500D01*
G75*
G02*
X141217500Y-114707500I-250000J0D01*
G01*
X140717500Y-114707500D01*
G75*
G02*
X140467500Y-114457500I0J250000D01*
G01*
G37*
%TD.AperFunction*%
%TO.P,C2,1*%
%TO.N,Net-(C2-Pad1)*%
%TA.AperFunction,SMDPad,CuDef*%
G36*
G01*
X138567500Y-114457500D02*
X138567500Y-113507500D01*
G75*
G02*
X138817500Y-113257500I250000J0D01*
G01*
X139317500Y-113257500D01*
G75*
G02*
X139567500Y-113507500I0J-250000D01*
G01*
X139567500Y-114457500D01*
G75*
G02*
X139317500Y-114707500I-250000J0D01*
G01*
X138817500Y-114707500D01*
G75*
G02*
X138567500Y-114457500I0J250000D01*
G01*
G37*
%TD.AperFunction*%
%TD*%
D10*
%TO.P,U1,8*%
%TO.N,GND*%
X138811000Y-106329500D03*
%TO.P,U1,7*%
%TO.N,SCL*%
X140081000Y-106329500D03*
%TO.P,U1,6*%
%TO.N,SDA*%
X141351000Y-106329500D03*
%TO.P,U1,5*%
%TO.N,Net-(R1-Pad1)*%
X142621000Y-106329500D03*
%TO.P,U1,4*%
%TO.N,GND*%
X142621000Y-111729500D03*
%TO.P,U1,3*%
%TO.N,N/C*%
X141351000Y-111729500D03*
%TO.P,U1,2*%
%TO.N,Net-(C2-Pad1)*%
X140081000Y-111729500D03*
%TO.P,U1,1*%
%TO.N,+5V*%
X138811000Y-111729500D03*
%TD*%
%TO.P,R1,2*%
%TO.N,GND*%
%TA.AperFunction,SMDPad,CuDef*%
G36*
G01*
X152727498Y-108979000D02*
X153977502Y-108979000D01*
G75*
G02*
X154227500Y-109228998I0J-249998D01*
G01*
X154227500Y-109854002D01*
G75*
G02*
X153977502Y-110104000I-249998J0D01*
G01*
X152727498Y-110104000D01*
G75*
G02*
X152477500Y-109854002I0J249998D01*
G01*
X152477500Y-109228998D01*
G75*
G02*
X152727498Y-108979000I249998J0D01*
G01*
G37*
%TD.AperFunction*%
%TO.P,R1,1*%
%TO.N,Net-(R1-Pad1)*%
%TA.AperFunction,SMDPad,CuDef*%
G36*
G01*
X152727498Y-106054000D02*
X153977502Y-106054000D01*
G75*
G02*
X154227500Y-106303998I0J-249998D01*
G01*
X154227500Y-106929002D01*
G75*
G02*
X153977502Y-107179000I-249998J0D01*
G01*
X152727498Y-107179000D01*
G75*
G02*
X152477500Y-106929002I0J249998D01*
G01*
X152477500Y-106303998D01*
G75*
G02*
X152727498Y-106054000I249998J0D01*
G01*
G37*
%TD.AperFunction*%
%TD*%
D11*
%TO.P,J1,4*%
%TO.N,GND*%
X128206500Y-105918000D03*
%TO.P,J1,3*%
%TO.N,SDA*%
X128206500Y-107918000D03*
%TO.P,J1,2*%
%TO.N,SCL*%
X128206500Y-109918000D03*
%TO.P,J1,1*%
%TO.N,+5V*%
%TA.AperFunction,ComponentPad*%
G36*
G01*
X128831501Y-112518000D02*
X127581499Y-112518000D01*
G75*
G02*
X127331500Y-112268001I0J249999D01*
G01*
X127331500Y-111567999D01*
G75*
G02*
X127581499Y-111318000I249999J0D01*
G01*
X128831501Y-111318000D01*
G75*
G02*
X129081500Y-111567999I0J-249999D01*
G01*
X129081500Y-112268001D01*
G75*
G02*
X128831501Y-112518000I-249999J0D01*
G01*
G37*
%TD.AperFunction*%
%TD*%
%TO.P,C1,2*%
%TO.N,GND*%
%TA.AperFunction,SMDPad,CuDef*%
G36*
G01*
X136111000Y-110360000D02*
X135161000Y-110360000D01*
G75*
G02*
X134911000Y-110110000I0J250000D01*
G01*
X134911000Y-109610000D01*
G75*
G02*
X135161000Y-109360000I250000J0D01*
G01*
X136111000Y-109360000D01*
G75*
G02*
X136361000Y-109610000I0J-250000D01*
G01*
X136361000Y-110110000D01*
G75*
G02*
X136111000Y-110360000I-250000J0D01*
G01*
G37*
%TD.AperFunction*%
%TO.P,C1,1*%
%TO.N,+5V*%
%TA.AperFunction,SMDPad,CuDef*%
G36*
G01*
X136111000Y-112260000D02*
X135161000Y-112260000D01*
G75*
G02*
X134911000Y-112010000I0J250000D01*
G01*
X134911000Y-111510000D01*
G75*
G02*
X135161000Y-111260000I250000J0D01*
G01*
X136111000Y-111260000D01*
G75*
G02*
X136361000Y-111510000I0J-250000D01*
G01*
X136361000Y-112010000D01*
G75*
G02*
X136111000Y-112260000I-250000J0D01*
G01*
G37*
%TD.AperFunction*%
%TD*%
D12*
%TO.N,+5V*%
X131572000Y-106934000D03*
%TD*%
D13*
%TO.N,GND*%
X140967500Y-113982500D02*
X141986000Y-112964000D01*
X128206500Y-105918000D02*
X127508000Y-105918000D01*
X127508000Y-105918000D02*
X125857000Y-107569000D01*
X125857000Y-107569000D02*
X125857000Y-113157000D01*
X125857000Y-113157000D02*
X128524000Y-115824000D01*
X139126000Y-115824000D02*
X140967500Y-113982500D01*
X128524000Y-115824000D02*
X139126000Y-115824000D01*
X138811000Y-106685000D02*
X138811000Y-106329500D01*
X135636000Y-109860000D02*
X138811000Y-106685000D01*
X141986000Y-112364500D02*
X142621000Y-111729500D01*
X141986000Y-112964000D02*
X141986000Y-112364500D01*
X151164500Y-111729500D02*
X151195500Y-111698500D01*
X142621000Y-111729500D02*
X151164500Y-111729500D01*
X151195500Y-111698500D02*
X153352500Y-109541500D01*
%TO.N,+5V*%
X135636000Y-106427000D02*
X135636000Y-106172000D01*
X135635000Y-106426000D02*
X135636000Y-106427000D01*
X133858000Y-106426000D02*
X135635000Y-106426000D01*
X135478000Y-111918000D02*
X135636000Y-111760000D01*
X128206500Y-111918000D02*
X135478000Y-111918000D01*
X138145500Y-111760000D02*
X138176000Y-111729500D01*
X135636000Y-111760000D02*
X138145500Y-111760000D01*
X132080000Y-106426000D02*
X131572000Y-106934000D01*
X133858000Y-106426000D02*
X132080000Y-106426000D01*
X138780500Y-111760000D02*
X138811000Y-111729500D01*
X138145500Y-111760000D02*
X138780500Y-111760000D01*
%TO.N,SDA*%
X128206500Y-107918000D02*
X128556000Y-107918000D01*
X128556000Y-107918000D02*
X132524500Y-103949500D01*
X132524500Y-103949500D02*
X139509500Y-103949500D01*
X133700000Y-107918000D02*
X133858000Y-108076000D01*
X128206500Y-107918000D02*
X133700000Y-107918000D01*
X141351000Y-105791000D02*
X141351000Y-106329500D01*
X139509500Y-103949500D02*
X141351000Y-105791000D01*
%TO.N,SCL*%
X128206500Y-109918000D02*
X128207000Y-109918000D01*
X133795000Y-109918000D02*
X135636000Y-108077000D01*
X128206500Y-109918000D02*
X133795000Y-109918000D01*
X137764498Y-105156000D02*
X139222500Y-105156000D01*
X137160000Y-105760498D02*
X137764498Y-105156000D01*
X137160000Y-106553000D02*
X137160000Y-105760498D01*
X135636000Y-108077000D02*
X137160000Y-106553000D01*
X140081000Y-106014500D02*
X140081000Y-106329500D01*
X139222500Y-105156000D02*
X140081000Y-106014500D01*
%TO.N,Net-(R1-Pad1)*%
X153065500Y-106329500D02*
X153352500Y-106616500D01*
X142621000Y-106329500D02*
X153065500Y-106329500D01*
%TO.N,Net-(C2-Pad1)*%
X140081000Y-112969000D02*
X140081000Y-111729500D01*
X139067500Y-113982500D02*
X140081000Y-112969000D01*
%TD*%
D14*
%TO.N,GND*%
X165685001Y-116155000D02*
X114985000Y-116155000D01*
X114985000Y-108491872D01*
X115875000Y-108491872D01*
X115875000Y-108932128D01*
X115960890Y-109363925D01*
X116129369Y-109770669D01*
X116373962Y-110136729D01*
X116685271Y-110448038D01*
X117051331Y-110692631D01*
X117458075Y-110861110D01*
X117889872Y-110947000D01*
X118330128Y-110947000D01*
X118761925Y-110861110D01*
X119168669Y-110692631D01*
X119534729Y-110448038D01*
X119846038Y-110136729D01*
X120090631Y-109770669D01*
X120259110Y-109363925D01*
X120345000Y-108932128D01*
X120345000Y-108491872D01*
X120259110Y-108060075D01*
X120200261Y-107918000D01*
X126690525Y-107918000D01*
X126714370Y-108160102D01*
X126784989Y-108392901D01*
X126899667Y-108607449D01*
X127053998Y-108795502D01*
X127203262Y-108918000D01*
X127053998Y-109040498D01*
X126899667Y-109228551D01*
X126784989Y-109443099D01*
X126714370Y-109675898D01*
X126690525Y-109918000D01*
X126714370Y-110160102D01*
X126784989Y-110392901D01*
X126899667Y-110607449D01*
X127053998Y-110795502D01*
X127092611Y-110827191D01*
X127088113Y-110829595D01*
X126953538Y-110940038D01*
X126843095Y-111074613D01*
X126761028Y-111228149D01*
X126710492Y-111394745D01*
X126693428Y-111567999D01*
X126693428Y-112268001D01*
X126710492Y-112441255D01*
X126761028Y-112607851D01*
X126843095Y-112761387D01*
X126953538Y-112895962D01*
X127088113Y-113006405D01*
X127241649Y-113088472D01*
X127408245Y-113139008D01*
X127581499Y-113156072D01*
X128831501Y-113156072D01*
X129004755Y-113139008D01*
X129171351Y-113088472D01*
X129324887Y-113006405D01*
X129459462Y-112895962D01*
X129569905Y-112761387D01*
X129614476Y-112678000D01*
X134581825Y-112678000D01*
X134667614Y-112748405D01*
X134821150Y-112830472D01*
X134987746Y-112881008D01*
X135161000Y-112898072D01*
X136111000Y-112898072D01*
X136284254Y-112881008D01*
X136450850Y-112830472D01*
X136604386Y-112748405D01*
X136738962Y-112637962D01*
X136835770Y-112520000D01*
X137881841Y-112520000D01*
X137885188Y-112553982D01*
X137921498Y-112673680D01*
X137980463Y-112783994D01*
X138059815Y-112880685D01*
X138136768Y-112943839D01*
X138079095Y-113014114D01*
X137997028Y-113167650D01*
X137946492Y-113334246D01*
X137929428Y-113507500D01*
X137929428Y-114457500D01*
X137946492Y-114630754D01*
X137997028Y-114797350D01*
X138079095Y-114950886D01*
X138189538Y-115085462D01*
X138324114Y-115195905D01*
X138477650Y-115277972D01*
X138644246Y-115328508D01*
X138817500Y-115345572D01*
X139317500Y-115345572D01*
X139490754Y-115328508D01*
X139657350Y-115277972D01*
X139810886Y-115195905D01*
X139945462Y-115085462D01*
X139950842Y-115078906D01*
X140016315Y-115158685D01*
X140113006Y-115238037D01*
X140223320Y-115297002D01*
X140343018Y-115333312D01*
X140467500Y-115345572D01*
X140681750Y-115342500D01*
X140840500Y-115183750D01*
X140840500Y-114109500D01*
X141094500Y-114109500D01*
X141094500Y-115183750D01*
X141253250Y-115342500D01*
X141467500Y-115345572D01*
X141591982Y-115333312D01*
X141711680Y-115297002D01*
X141821994Y-115238037D01*
X141918685Y-115158685D01*
X141998037Y-115061994D01*
X142057002Y-114951680D01*
X142093312Y-114831982D01*
X142105572Y-114707500D01*
X142102500Y-114268250D01*
X141943750Y-114109500D01*
X141094500Y-114109500D01*
X140840500Y-114109500D01*
X140820500Y-114109500D01*
X140820500Y-113855500D01*
X140840500Y-113855500D01*
X140840500Y-113835500D01*
X141094500Y-113835500D01*
X141094500Y-113855500D01*
X141943750Y-113855500D01*
X142102500Y-113696750D01*
X142105572Y-113257500D01*
X142093312Y-113133018D01*
X142057002Y-113013320D01*
X142053327Y-113006444D01*
X142076820Y-113019002D01*
X142196518Y-113055312D01*
X142321000Y-113067572D01*
X142335250Y-113064500D01*
X142494000Y-112905750D01*
X142494000Y-111856500D01*
X142748000Y-111856500D01*
X142748000Y-112905750D01*
X142906750Y-113064500D01*
X142921000Y-113067572D01*
X143045482Y-113055312D01*
X143165180Y-113019002D01*
X143275494Y-112960037D01*
X143372185Y-112880685D01*
X143451537Y-112783994D01*
X143510502Y-112673680D01*
X143546812Y-112553982D01*
X143559072Y-112429500D01*
X143556000Y-112015250D01*
X143397250Y-111856500D01*
X142748000Y-111856500D01*
X142494000Y-111856500D01*
X142474000Y-111856500D01*
X142474000Y-111602500D01*
X142494000Y-111602500D01*
X142494000Y-110553250D01*
X142748000Y-110553250D01*
X142748000Y-111602500D01*
X143397250Y-111602500D01*
X143556000Y-111443750D01*
X143559072Y-111029500D01*
X143546812Y-110905018D01*
X143510502Y-110785320D01*
X143451537Y-110675006D01*
X143372185Y-110578315D01*
X143275494Y-110498963D01*
X143165180Y-110439998D01*
X143045482Y-110403688D01*
X142921000Y-110391428D01*
X142906750Y-110394500D01*
X142748000Y-110553250D01*
X142494000Y-110553250D01*
X142335250Y-110394500D01*
X142321000Y-110391428D01*
X142196518Y-110403688D01*
X142076820Y-110439998D01*
X141986000Y-110488543D01*
X141895180Y-110439998D01*
X141775482Y-110403688D01*
X141651000Y-110391428D01*
X141051000Y-110391428D01*
X140926518Y-110403688D01*
X140806820Y-110439998D01*
X140716000Y-110488543D01*
X140625180Y-110439998D01*
X140505482Y-110403688D01*
X140381000Y-110391428D01*
X139781000Y-110391428D01*
X139656518Y-110403688D01*
X139536820Y-110439998D01*
X139446000Y-110488543D01*
X139355180Y-110439998D01*
X139235482Y-110403688D01*
X139111000Y-110391428D01*
X138511000Y-110391428D01*
X138386518Y-110403688D01*
X138266820Y-110439998D01*
X138156506Y-110498963D01*
X138059815Y-110578315D01*
X137980463Y-110675006D01*
X137921498Y-110785320D01*
X137885188Y-110905018D01*
X137875833Y-111000000D01*
X136835770Y-111000000D01*
X136738962Y-110882038D01*
X136732406Y-110876658D01*
X136812185Y-110811185D01*
X136891537Y-110714494D01*
X136950502Y-110604180D01*
X136986812Y-110484482D01*
X136999072Y-110360000D01*
X136996000Y-110145750D01*
X136954250Y-110104000D01*
X151839428Y-110104000D01*
X151851688Y-110228482D01*
X151887998Y-110348180D01*
X151946963Y-110458494D01*
X152026315Y-110555185D01*
X152123006Y-110634537D01*
X152233320Y-110693502D01*
X152353018Y-110729812D01*
X152477500Y-110742072D01*
X153066750Y-110739000D01*
X153225500Y-110580250D01*
X153225500Y-109668500D01*
X153479500Y-109668500D01*
X153479500Y-110580250D01*
X153638250Y-110739000D01*
X154227500Y-110742072D01*
X154351982Y-110729812D01*
X154471680Y-110693502D01*
X154581994Y-110634537D01*
X154678685Y-110555185D01*
X154758037Y-110458494D01*
X154817002Y-110348180D01*
X154853312Y-110228482D01*
X154865572Y-110104000D01*
X154862500Y-109827250D01*
X154703750Y-109668500D01*
X153479500Y-109668500D01*
X153225500Y-109668500D01*
X152001250Y-109668500D01*
X151842500Y-109827250D01*
X151839428Y-110104000D01*
X136954250Y-110104000D01*
X136837250Y-109987000D01*
X135763000Y-109987000D01*
X135763000Y-110007000D01*
X135509000Y-110007000D01*
X135509000Y-109987000D01*
X135489000Y-109987000D01*
X135489000Y-109733000D01*
X135509000Y-109733000D01*
X135509000Y-109713000D01*
X135763000Y-109713000D01*
X135763000Y-109733000D01*
X136837250Y-109733000D01*
X136996000Y-109574250D01*
X136999072Y-109360000D01*
X136986812Y-109235518D01*
X136950502Y-109115820D01*
X136891537Y-109005506D01*
X136869785Y-108979000D01*
X151839428Y-108979000D01*
X151842500Y-109255750D01*
X152001250Y-109414500D01*
X153225500Y-109414500D01*
X153225500Y-108502750D01*
X153479500Y-108502750D01*
X153479500Y-109414500D01*
X154703750Y-109414500D01*
X154862500Y-109255750D01*
X154865572Y-108979000D01*
X154853312Y-108854518D01*
X154817002Y-108734820D01*
X154758037Y-108624506D01*
X154678685Y-108527815D01*
X154581994Y-108448463D01*
X154471680Y-108389498D01*
X154351982Y-108353188D01*
X154227500Y-108340928D01*
X153638250Y-108344000D01*
X153479500Y-108502750D01*
X153225500Y-108502750D01*
X153066750Y-108344000D01*
X152477500Y-108340928D01*
X152353018Y-108353188D01*
X152233320Y-108389498D01*
X152123006Y-108448463D01*
X152026315Y-108527815D01*
X151946963Y-108624506D01*
X151887998Y-108734820D01*
X151851688Y-108854518D01*
X151839428Y-108979000D01*
X136869785Y-108979000D01*
X136812185Y-108908815D01*
X136715494Y-108829463D01*
X136605180Y-108770498D01*
X136588976Y-108765583D01*
X136607831Y-108742608D01*
X136685278Y-108597716D01*
X136732969Y-108440500D01*
X136749072Y-108277000D01*
X136749072Y-108237872D01*
X159753500Y-108237872D01*
X159753500Y-108678128D01*
X159839390Y-109109925D01*
X160007869Y-109516669D01*
X160252462Y-109882729D01*
X160563771Y-110194038D01*
X160929831Y-110438631D01*
X161336575Y-110607110D01*
X161768372Y-110693000D01*
X162208628Y-110693000D01*
X162640425Y-110607110D01*
X163047169Y-110438631D01*
X163413229Y-110194038D01*
X163724538Y-109882729D01*
X163969131Y-109516669D01*
X164137610Y-109109925D01*
X164223500Y-108678128D01*
X164223500Y-108237872D01*
X164137610Y-107806075D01*
X163969131Y-107399331D01*
X163724538Y-107033271D01*
X163413229Y-106721962D01*
X163047169Y-106477369D01*
X162640425Y-106308890D01*
X162208628Y-106223000D01*
X161768372Y-106223000D01*
X161336575Y-106308890D01*
X160929831Y-106477369D01*
X160563771Y-106721962D01*
X160252462Y-107033271D01*
X160007869Y-107399331D01*
X159839390Y-107806075D01*
X159753500Y-108237872D01*
X136749072Y-108237872D01*
X136749072Y-108038730D01*
X137671009Y-107116794D01*
X137700001Y-107093001D01*
X137723795Y-107064008D01*
X137723799Y-107064004D01*
X137794973Y-106977277D01*
X137794974Y-106977276D01*
X137865546Y-106845247D01*
X137874514Y-106815684D01*
X137872928Y-107029500D01*
X137885188Y-107153982D01*
X137921498Y-107273680D01*
X137980463Y-107383994D01*
X138059815Y-107480685D01*
X138156506Y-107560037D01*
X138266820Y-107619002D01*
X138386518Y-107655312D01*
X138511000Y-107667572D01*
X138525250Y-107664500D01*
X138684000Y-107505750D01*
X138684000Y-106456500D01*
X138664000Y-106456500D01*
X138664000Y-106202500D01*
X138684000Y-106202500D01*
X138684000Y-106182500D01*
X138938000Y-106182500D01*
X138938000Y-106202500D01*
X138958000Y-106202500D01*
X138958000Y-106456500D01*
X138938000Y-106456500D01*
X138938000Y-107505750D01*
X139096750Y-107664500D01*
X139111000Y-107667572D01*
X139235482Y-107655312D01*
X139355180Y-107619002D01*
X139446000Y-107570457D01*
X139536820Y-107619002D01*
X139656518Y-107655312D01*
X139781000Y-107667572D01*
X140381000Y-107667572D01*
X140505482Y-107655312D01*
X140625180Y-107619002D01*
X140716000Y-107570457D01*
X140806820Y-107619002D01*
X140926518Y-107655312D01*
X141051000Y-107667572D01*
X141651000Y-107667572D01*
X141775482Y-107655312D01*
X141895180Y-107619002D01*
X141986000Y-107570457D01*
X142076820Y-107619002D01*
X142196518Y-107655312D01*
X142321000Y-107667572D01*
X142921000Y-107667572D01*
X143045482Y-107655312D01*
X143165180Y-107619002D01*
X143275494Y-107560037D01*
X143372185Y-107480685D01*
X143451537Y-107383994D01*
X143510502Y-107273680D01*
X143546812Y-107153982D01*
X143553163Y-107089500D01*
X151855236Y-107089500D01*
X151856492Y-107102256D01*
X151907028Y-107268852D01*
X151989095Y-107422387D01*
X152099538Y-107556962D01*
X152234113Y-107667405D01*
X152387648Y-107749472D01*
X152554244Y-107800008D01*
X152727498Y-107817072D01*
X153977502Y-107817072D01*
X154150756Y-107800008D01*
X154317352Y-107749472D01*
X154470887Y-107667405D01*
X154605462Y-107556962D01*
X154715905Y-107422387D01*
X154797972Y-107268852D01*
X154848508Y-107102256D01*
X154865572Y-106929002D01*
X154865572Y-106303998D01*
X154848508Y-106130744D01*
X154797972Y-105964148D01*
X154715905Y-105810613D01*
X154605462Y-105676038D01*
X154470887Y-105565595D01*
X154317352Y-105483528D01*
X154150756Y-105432992D01*
X153977502Y-105415928D01*
X152727498Y-105415928D01*
X152554244Y-105432992D01*
X152387648Y-105483528D01*
X152234113Y-105565595D01*
X152229355Y-105569500D01*
X143553163Y-105569500D01*
X143546812Y-105505018D01*
X143510502Y-105385320D01*
X143451537Y-105275006D01*
X143372185Y-105178315D01*
X143275494Y-105098963D01*
X143165180Y-105039998D01*
X143045482Y-105003688D01*
X142921000Y-104991428D01*
X142321000Y-104991428D01*
X142196518Y-105003688D01*
X142076820Y-105039998D01*
X141986000Y-105088543D01*
X141895180Y-105039998D01*
X141775482Y-105003688D01*
X141651000Y-104991428D01*
X141626230Y-104991428D01*
X140073304Y-103438503D01*
X140049501Y-103409499D01*
X139933776Y-103314526D01*
X139801747Y-103243954D01*
X139658486Y-103200497D01*
X139546833Y-103189500D01*
X139546822Y-103189500D01*
X139509500Y-103185824D01*
X139472178Y-103189500D01*
X132561833Y-103189500D01*
X132524500Y-103185823D01*
X132487167Y-103189500D01*
X132375514Y-103200497D01*
X132232253Y-103243954D01*
X132100224Y-103314526D01*
X131984499Y-103409499D01*
X131960701Y-103438497D01*
X129608201Y-105790998D01*
X129550232Y-105790998D01*
X129674962Y-105600391D01*
X129671091Y-105562718D01*
X129578921Y-105337467D01*
X129444578Y-105134526D01*
X129273225Y-104961693D01*
X129071446Y-104825610D01*
X128846996Y-104731507D01*
X128608500Y-104683000D01*
X128333500Y-104683000D01*
X128333500Y-105791000D01*
X128353500Y-105791000D01*
X128353500Y-106045000D01*
X128333500Y-106045000D01*
X128333500Y-106065000D01*
X128079500Y-106065000D01*
X128079500Y-106045000D01*
X126862769Y-106045000D01*
X126738038Y-106235609D01*
X126741909Y-106273282D01*
X126834079Y-106498533D01*
X126968422Y-106701474D01*
X127139775Y-106874307D01*
X127203848Y-106917519D01*
X127053998Y-107040498D01*
X126899667Y-107228551D01*
X126784989Y-107443099D01*
X126714370Y-107675898D01*
X126690525Y-107918000D01*
X120200261Y-107918000D01*
X120090631Y-107653331D01*
X119846038Y-107287271D01*
X119534729Y-106975962D01*
X119168669Y-106731369D01*
X118761925Y-106562890D01*
X118330128Y-106477000D01*
X117889872Y-106477000D01*
X117458075Y-106562890D01*
X117051331Y-106731369D01*
X116685271Y-106975962D01*
X116373962Y-107287271D01*
X116129369Y-107653331D01*
X115960890Y-108060075D01*
X115875000Y-108491872D01*
X114985000Y-108491872D01*
X114985000Y-105600391D01*
X126738038Y-105600391D01*
X126862769Y-105791000D01*
X128079500Y-105791000D01*
X128079500Y-104683000D01*
X127804500Y-104683000D01*
X127566004Y-104731507D01*
X127341554Y-104825610D01*
X127139775Y-104961693D01*
X126968422Y-105134526D01*
X126834079Y-105337467D01*
X126741909Y-105562718D01*
X126738038Y-105600391D01*
X114985000Y-105600391D01*
X114985000Y-102285000D01*
X165685000Y-102285000D01*
X165685001Y-116155000D01*
%TA.AperFunction,Conductor*%
D15*
G36*
X165685001Y-116155000D02*
G01*
X114985000Y-116155000D01*
X114985000Y-108491872D01*
X115875000Y-108491872D01*
X115875000Y-108932128D01*
X115960890Y-109363925D01*
X116129369Y-109770669D01*
X116373962Y-110136729D01*
X116685271Y-110448038D01*
X117051331Y-110692631D01*
X117458075Y-110861110D01*
X117889872Y-110947000D01*
X118330128Y-110947000D01*
X118761925Y-110861110D01*
X119168669Y-110692631D01*
X119534729Y-110448038D01*
X119846038Y-110136729D01*
X120090631Y-109770669D01*
X120259110Y-109363925D01*
X120345000Y-108932128D01*
X120345000Y-108491872D01*
X120259110Y-108060075D01*
X120200261Y-107918000D01*
X126690525Y-107918000D01*
X126714370Y-108160102D01*
X126784989Y-108392901D01*
X126899667Y-108607449D01*
X127053998Y-108795502D01*
X127203262Y-108918000D01*
X127053998Y-109040498D01*
X126899667Y-109228551D01*
X126784989Y-109443099D01*
X126714370Y-109675898D01*
X126690525Y-109918000D01*
X126714370Y-110160102D01*
X126784989Y-110392901D01*
X126899667Y-110607449D01*
X127053998Y-110795502D01*
X127092611Y-110827191D01*
X127088113Y-110829595D01*
X126953538Y-110940038D01*
X126843095Y-111074613D01*
X126761028Y-111228149D01*
X126710492Y-111394745D01*
X126693428Y-111567999D01*
X126693428Y-112268001D01*
X126710492Y-112441255D01*
X126761028Y-112607851D01*
X126843095Y-112761387D01*
X126953538Y-112895962D01*
X127088113Y-113006405D01*
X127241649Y-113088472D01*
X127408245Y-113139008D01*
X127581499Y-113156072D01*
X128831501Y-113156072D01*
X129004755Y-113139008D01*
X129171351Y-113088472D01*
X129324887Y-113006405D01*
X129459462Y-112895962D01*
X129569905Y-112761387D01*
X129614476Y-112678000D01*
X134581825Y-112678000D01*
X134667614Y-112748405D01*
X134821150Y-112830472D01*
X134987746Y-112881008D01*
X135161000Y-112898072D01*
X136111000Y-112898072D01*
X136284254Y-112881008D01*
X136450850Y-112830472D01*
X136604386Y-112748405D01*
X136738962Y-112637962D01*
X136835770Y-112520000D01*
X137881841Y-112520000D01*
X137885188Y-112553982D01*
X137921498Y-112673680D01*
X137980463Y-112783994D01*
X138059815Y-112880685D01*
X138136768Y-112943839D01*
X138079095Y-113014114D01*
X137997028Y-113167650D01*
X137946492Y-113334246D01*
X137929428Y-113507500D01*
X137929428Y-114457500D01*
X137946492Y-114630754D01*
X137997028Y-114797350D01*
X138079095Y-114950886D01*
X138189538Y-115085462D01*
X138324114Y-115195905D01*
X138477650Y-115277972D01*
X138644246Y-115328508D01*
X138817500Y-115345572D01*
X139317500Y-115345572D01*
X139490754Y-115328508D01*
X139657350Y-115277972D01*
X139810886Y-115195905D01*
X139945462Y-115085462D01*
X139950842Y-115078906D01*
X140016315Y-115158685D01*
X140113006Y-115238037D01*
X140223320Y-115297002D01*
X140343018Y-115333312D01*
X140467500Y-115345572D01*
X140681750Y-115342500D01*
X140840500Y-115183750D01*
X140840500Y-114109500D01*
X141094500Y-114109500D01*
X141094500Y-115183750D01*
X141253250Y-115342500D01*
X141467500Y-115345572D01*
X141591982Y-115333312D01*
X141711680Y-115297002D01*
X141821994Y-115238037D01*
X141918685Y-115158685D01*
X141998037Y-115061994D01*
X142057002Y-114951680D01*
X142093312Y-114831982D01*
X142105572Y-114707500D01*
X142102500Y-114268250D01*
X141943750Y-114109500D01*
X141094500Y-114109500D01*
X140840500Y-114109500D01*
X140820500Y-114109500D01*
X140820500Y-113855500D01*
X140840500Y-113855500D01*
X140840500Y-113835500D01*
X141094500Y-113835500D01*
X141094500Y-113855500D01*
X141943750Y-113855500D01*
X142102500Y-113696750D01*
X142105572Y-113257500D01*
X142093312Y-113133018D01*
X142057002Y-113013320D01*
X142053327Y-113006444D01*
X142076820Y-113019002D01*
X142196518Y-113055312D01*
X142321000Y-113067572D01*
X142335250Y-113064500D01*
X142494000Y-112905750D01*
X142494000Y-111856500D01*
X142748000Y-111856500D01*
X142748000Y-112905750D01*
X142906750Y-113064500D01*
X142921000Y-113067572D01*
X143045482Y-113055312D01*
X143165180Y-113019002D01*
X143275494Y-112960037D01*
X143372185Y-112880685D01*
X143451537Y-112783994D01*
X143510502Y-112673680D01*
X143546812Y-112553982D01*
X143559072Y-112429500D01*
X143556000Y-112015250D01*
X143397250Y-111856500D01*
X142748000Y-111856500D01*
X142494000Y-111856500D01*
X142474000Y-111856500D01*
X142474000Y-111602500D01*
X142494000Y-111602500D01*
X142494000Y-110553250D01*
X142748000Y-110553250D01*
X142748000Y-111602500D01*
X143397250Y-111602500D01*
X143556000Y-111443750D01*
X143559072Y-111029500D01*
X143546812Y-110905018D01*
X143510502Y-110785320D01*
X143451537Y-110675006D01*
X143372185Y-110578315D01*
X143275494Y-110498963D01*
X143165180Y-110439998D01*
X143045482Y-110403688D01*
X142921000Y-110391428D01*
X142906750Y-110394500D01*
X142748000Y-110553250D01*
X142494000Y-110553250D01*
X142335250Y-110394500D01*
X142321000Y-110391428D01*
X142196518Y-110403688D01*
X142076820Y-110439998D01*
X141986000Y-110488543D01*
X141895180Y-110439998D01*
X141775482Y-110403688D01*
X141651000Y-110391428D01*
X141051000Y-110391428D01*
X140926518Y-110403688D01*
X140806820Y-110439998D01*
X140716000Y-110488543D01*
X140625180Y-110439998D01*
X140505482Y-110403688D01*
X140381000Y-110391428D01*
X139781000Y-110391428D01*
X139656518Y-110403688D01*
X139536820Y-110439998D01*
X139446000Y-110488543D01*
X139355180Y-110439998D01*
X139235482Y-110403688D01*
X139111000Y-110391428D01*
X138511000Y-110391428D01*
X138386518Y-110403688D01*
X138266820Y-110439998D01*
X138156506Y-110498963D01*
X138059815Y-110578315D01*
X137980463Y-110675006D01*
X137921498Y-110785320D01*
X137885188Y-110905018D01*
X137875833Y-111000000D01*
X136835770Y-111000000D01*
X136738962Y-110882038D01*
X136732406Y-110876658D01*
X136812185Y-110811185D01*
X136891537Y-110714494D01*
X136950502Y-110604180D01*
X136986812Y-110484482D01*
X136999072Y-110360000D01*
X136996000Y-110145750D01*
X136954250Y-110104000D01*
X151839428Y-110104000D01*
X151851688Y-110228482D01*
X151887998Y-110348180D01*
X151946963Y-110458494D01*
X152026315Y-110555185D01*
X152123006Y-110634537D01*
X152233320Y-110693502D01*
X152353018Y-110729812D01*
X152477500Y-110742072D01*
X153066750Y-110739000D01*
X153225500Y-110580250D01*
X153225500Y-109668500D01*
X153479500Y-109668500D01*
X153479500Y-110580250D01*
X153638250Y-110739000D01*
X154227500Y-110742072D01*
X154351982Y-110729812D01*
X154471680Y-110693502D01*
X154581994Y-110634537D01*
X154678685Y-110555185D01*
X154758037Y-110458494D01*
X154817002Y-110348180D01*
X154853312Y-110228482D01*
X154865572Y-110104000D01*
X154862500Y-109827250D01*
X154703750Y-109668500D01*
X153479500Y-109668500D01*
X153225500Y-109668500D01*
X152001250Y-109668500D01*
X151842500Y-109827250D01*
X151839428Y-110104000D01*
X136954250Y-110104000D01*
X136837250Y-109987000D01*
X135763000Y-109987000D01*
X135763000Y-110007000D01*
X135509000Y-110007000D01*
X135509000Y-109987000D01*
X135489000Y-109987000D01*
X135489000Y-109733000D01*
X135509000Y-109733000D01*
X135509000Y-109713000D01*
X135763000Y-109713000D01*
X135763000Y-109733000D01*
X136837250Y-109733000D01*
X136996000Y-109574250D01*
X136999072Y-109360000D01*
X136986812Y-109235518D01*
X136950502Y-109115820D01*
X136891537Y-109005506D01*
X136869785Y-108979000D01*
X151839428Y-108979000D01*
X151842500Y-109255750D01*
X152001250Y-109414500D01*
X153225500Y-109414500D01*
X153225500Y-108502750D01*
X153479500Y-108502750D01*
X153479500Y-109414500D01*
X154703750Y-109414500D01*
X154862500Y-109255750D01*
X154865572Y-108979000D01*
X154853312Y-108854518D01*
X154817002Y-108734820D01*
X154758037Y-108624506D01*
X154678685Y-108527815D01*
X154581994Y-108448463D01*
X154471680Y-108389498D01*
X154351982Y-108353188D01*
X154227500Y-108340928D01*
X153638250Y-108344000D01*
X153479500Y-108502750D01*
X153225500Y-108502750D01*
X153066750Y-108344000D01*
X152477500Y-108340928D01*
X152353018Y-108353188D01*
X152233320Y-108389498D01*
X152123006Y-108448463D01*
X152026315Y-108527815D01*
X151946963Y-108624506D01*
X151887998Y-108734820D01*
X151851688Y-108854518D01*
X151839428Y-108979000D01*
X136869785Y-108979000D01*
X136812185Y-108908815D01*
X136715494Y-108829463D01*
X136605180Y-108770498D01*
X136588976Y-108765583D01*
X136607831Y-108742608D01*
X136685278Y-108597716D01*
X136732969Y-108440500D01*
X136749072Y-108277000D01*
X136749072Y-108237872D01*
X159753500Y-108237872D01*
X159753500Y-108678128D01*
X159839390Y-109109925D01*
X160007869Y-109516669D01*
X160252462Y-109882729D01*
X160563771Y-110194038D01*
X160929831Y-110438631D01*
X161336575Y-110607110D01*
X161768372Y-110693000D01*
X162208628Y-110693000D01*
X162640425Y-110607110D01*
X163047169Y-110438631D01*
X163413229Y-110194038D01*
X163724538Y-109882729D01*
X163969131Y-109516669D01*
X164137610Y-109109925D01*
X164223500Y-108678128D01*
X164223500Y-108237872D01*
X164137610Y-107806075D01*
X163969131Y-107399331D01*
X163724538Y-107033271D01*
X163413229Y-106721962D01*
X163047169Y-106477369D01*
X162640425Y-106308890D01*
X162208628Y-106223000D01*
X161768372Y-106223000D01*
X161336575Y-106308890D01*
X160929831Y-106477369D01*
X160563771Y-106721962D01*
X160252462Y-107033271D01*
X160007869Y-107399331D01*
X159839390Y-107806075D01*
X159753500Y-108237872D01*
X136749072Y-108237872D01*
X136749072Y-108038730D01*
X137671009Y-107116794D01*
X137700001Y-107093001D01*
X137723795Y-107064008D01*
X137723799Y-107064004D01*
X137794973Y-106977277D01*
X137794974Y-106977276D01*
X137865546Y-106845247D01*
X137874514Y-106815684D01*
X137872928Y-107029500D01*
X137885188Y-107153982D01*
X137921498Y-107273680D01*
X137980463Y-107383994D01*
X138059815Y-107480685D01*
X138156506Y-107560037D01*
X138266820Y-107619002D01*
X138386518Y-107655312D01*
X138511000Y-107667572D01*
X138525250Y-107664500D01*
X138684000Y-107505750D01*
X138684000Y-106456500D01*
X138664000Y-106456500D01*
X138664000Y-106202500D01*
X138684000Y-106202500D01*
X138684000Y-106182500D01*
X138938000Y-106182500D01*
X138938000Y-106202500D01*
X138958000Y-106202500D01*
X138958000Y-106456500D01*
X138938000Y-106456500D01*
X138938000Y-107505750D01*
X139096750Y-107664500D01*
X139111000Y-107667572D01*
X139235482Y-107655312D01*
X139355180Y-107619002D01*
X139446000Y-107570457D01*
X139536820Y-107619002D01*
X139656518Y-107655312D01*
X139781000Y-107667572D01*
X140381000Y-107667572D01*
X140505482Y-107655312D01*
X140625180Y-107619002D01*
X140716000Y-107570457D01*
X140806820Y-107619002D01*
X140926518Y-107655312D01*
X141051000Y-107667572D01*
X141651000Y-107667572D01*
X141775482Y-107655312D01*
X141895180Y-107619002D01*
X141986000Y-107570457D01*
X142076820Y-107619002D01*
X142196518Y-107655312D01*
X142321000Y-107667572D01*
X142921000Y-107667572D01*
X143045482Y-107655312D01*
X143165180Y-107619002D01*
X143275494Y-107560037D01*
X143372185Y-107480685D01*
X143451537Y-107383994D01*
X143510502Y-107273680D01*
X143546812Y-107153982D01*
X143553163Y-107089500D01*
X151855236Y-107089500D01*
X151856492Y-107102256D01*
X151907028Y-107268852D01*
X151989095Y-107422387D01*
X152099538Y-107556962D01*
X152234113Y-107667405D01*
X152387648Y-107749472D01*
X152554244Y-107800008D01*
X152727498Y-107817072D01*
X153977502Y-107817072D01*
X154150756Y-107800008D01*
X154317352Y-107749472D01*
X154470887Y-107667405D01*
X154605462Y-107556962D01*
X154715905Y-107422387D01*
X154797972Y-107268852D01*
X154848508Y-107102256D01*
X154865572Y-106929002D01*
X154865572Y-106303998D01*
X154848508Y-106130744D01*
X154797972Y-105964148D01*
X154715905Y-105810613D01*
X154605462Y-105676038D01*
X154470887Y-105565595D01*
X154317352Y-105483528D01*
X154150756Y-105432992D01*
X153977502Y-105415928D01*
X152727498Y-105415928D01*
X152554244Y-105432992D01*
X152387648Y-105483528D01*
X152234113Y-105565595D01*
X152229355Y-105569500D01*
X143553163Y-105569500D01*
X143546812Y-105505018D01*
X143510502Y-105385320D01*
X143451537Y-105275006D01*
X143372185Y-105178315D01*
X143275494Y-105098963D01*
X143165180Y-105039998D01*
X143045482Y-105003688D01*
X142921000Y-104991428D01*
X142321000Y-104991428D01*
X142196518Y-105003688D01*
X142076820Y-105039998D01*
X141986000Y-105088543D01*
X141895180Y-105039998D01*
X141775482Y-105003688D01*
X141651000Y-104991428D01*
X141626230Y-104991428D01*
X140073304Y-103438503D01*
X140049501Y-103409499D01*
X139933776Y-103314526D01*
X139801747Y-103243954D01*
X139658486Y-103200497D01*
X139546833Y-103189500D01*
X139546822Y-103189500D01*
X139509500Y-103185824D01*
X139472178Y-103189500D01*
X132561833Y-103189500D01*
X132524500Y-103185823D01*
X132487167Y-103189500D01*
X132375514Y-103200497D01*
X132232253Y-103243954D01*
X132100224Y-103314526D01*
X131984499Y-103409499D01*
X131960701Y-103438497D01*
X129608201Y-105790998D01*
X129550232Y-105790998D01*
X129674962Y-105600391D01*
X129671091Y-105562718D01*
X129578921Y-105337467D01*
X129444578Y-105134526D01*
X129273225Y-104961693D01*
X129071446Y-104825610D01*
X128846996Y-104731507D01*
X128608500Y-104683000D01*
X128333500Y-104683000D01*
X128333500Y-105791000D01*
X128353500Y-105791000D01*
X128353500Y-106045000D01*
X128333500Y-106045000D01*
X128333500Y-106065000D01*
X128079500Y-106065000D01*
X128079500Y-106045000D01*
X126862769Y-106045000D01*
X126738038Y-106235609D01*
X126741909Y-106273282D01*
X126834079Y-106498533D01*
X126968422Y-106701474D01*
X127139775Y-106874307D01*
X127203848Y-106917519D01*
X127053998Y-107040498D01*
X126899667Y-107228551D01*
X126784989Y-107443099D01*
X126714370Y-107675898D01*
X126690525Y-107918000D01*
X120200261Y-107918000D01*
X120090631Y-107653331D01*
X119846038Y-107287271D01*
X119534729Y-106975962D01*
X119168669Y-106731369D01*
X118761925Y-106562890D01*
X118330128Y-106477000D01*
X117889872Y-106477000D01*
X117458075Y-106562890D01*
X117051331Y-106731369D01*
X116685271Y-106975962D01*
X116373962Y-107287271D01*
X116129369Y-107653331D01*
X115960890Y-108060075D01*
X115875000Y-108491872D01*
X114985000Y-108491872D01*
X114985000Y-105600391D01*
X126738038Y-105600391D01*
X126862769Y-105791000D01*
X128079500Y-105791000D01*
X128079500Y-104683000D01*
X127804500Y-104683000D01*
X127566004Y-104731507D01*
X127341554Y-104825610D01*
X127139775Y-104961693D01*
X126968422Y-105134526D01*
X126834079Y-105337467D01*
X126741909Y-105562718D01*
X126738038Y-105600391D01*
X114985000Y-105600391D01*
X114985000Y-102285000D01*
X165685000Y-102285000D01*
X165685001Y-116155000D01*
G37*
%TD.AperFunction*%
%TD*%
M02*
